{"glyphs":{"0":{"ha":957,"x_min":41,"x_max":916,"o":"m 916 504 q 879 264 916 366 q 783 96 843 163 q 643 -3 722 29 q 479 -36 564 -36 q 315 -3 395 -36 q 175 96 236 29 q 78 264 114 163 q 41 504 41 366 q 80 737 41 636 q 181 905 119 838 q 321 1006 243 972 q 479 1040 400 1040 q 636 1006 558 1040 q 776 905 714 972 q 877 737 838 838 q 916 504 916 636 m 696 595 q 677 711 696 659 q 628 802 659 764 q 558 861 597 840 q 479 882 519 882 q 399 861 439 882 q 329 802 359 840 q 280 711 298 764 q 261 595 261 659 q 273 498 261 549 q 311 406 285 447 q 379 336 338 364 q 479 309 421 309 q 578 336 538 309 q 646 406 619 364 q 684 498 672 447 q 696 595 696 549 z "},"1":{"ha":667,"x_min":14,"x_max":625,"o":"m 437 393 q 442 358 437 371 q 460 345 447 345 q 484 349 472 345 q 507 353 496 353 q 543 345 522 353 q 582 319 564 338 q 613 268 600 300 q 625 186 625 236 q 473 -20 625 -20 q 406 -10 437 -20 q 345 0 374 0 q 282 -10 314 0 q 214 -20 250 -20 q 62 186 62 -20 q 75 268 62 236 q 105 319 87 300 q 144 345 123 338 q 180 353 165 353 q 203 349 193 353 q 228 345 212 345 q 245 358 240 345 q 250 393 250 371 l 250 745 q 240 765 250 762 q 220 757 231 768 q 174 725 203 742 q 107 708 144 708 q 41 734 69 708 q 14 800 14 761 q 49 878 14 850 q 131 905 85 905 q 199 921 165 905 q 257 977 233 936 q 299 1019 277 1008 q 345 1029 322 1029 q 409 1005 380 1029 q 437 928 437 981 l 437 393 z "},"2":{"ha":854,"x_min":41,"x_max":812,"o":"m 812 248 q 807 202 812 225 q 802 151 802 179 q 803 124 802 135 q 806 103 804 113 q 810 85 808 94 q 811 60 811 75 q 785 1 811 22 q 722 -20 758 -20 q 663 -17 701 -20 q 578 -10 624 -14 q 490 -4 533 -7 q 418 -1 447 -1 q 308 -9 355 -1 q 224 -36 261 -17 q 173 -57 196 -52 q 127 -45 150 -62 q 101 -15 117 -36 q 73 35 86 5 q 51 105 60 65 q 41 192 41 144 q 67 317 41 262 q 134 415 93 372 q 223 492 175 458 q 318 553 272 525 q 394 598 353 574 q 473 649 436 623 q 535 704 510 675 q 559 766 559 733 q 548 818 559 796 q 518 853 536 839 q 477 873 500 867 q 433 879 454 879 q 375 868 393 879 q 357 842 357 857 q 367 809 357 827 q 376 760 376 791 q 337 675 376 705 q 248 644 298 644 q 195 655 220 644 q 152 687 170 667 q 123 736 134 708 q 113 798 113 764 q 131 876 113 833 q 186 954 149 918 q 282 1015 224 990 q 422 1039 340 1039 q 538 1022 481 1039 q 643 972 596 1006 q 718 888 689 939 q 747 768 747 838 q 733 681 747 720 q 696 610 720 643 q 642 550 673 578 q 578 494 611 522 q 429 268 429 375 q 462 174 429 200 q 557 149 494 149 q 608 158 596 149 q 621 187 621 167 q 616 217 621 204 q 612 252 612 231 q 640 316 612 288 q 714 345 668 345 q 783 318 754 345 q 812 248 812 292 z "},"3":{"ha":817,"x_min":40,"x_max":775,"o":"m 775 298 q 745 161 775 224 q 663 55 715 98 q 542 -13 611 11 q 396 -37 473 -37 q 286 -25 338 -37 q 190 5 233 -14 q 114 47 146 24 q 62 93 82 71 q 46 123 53 104 q 41 168 40 142 q 55 224 43 193 q 96 293 68 256 q 185 387 149 361 q 244 414 221 414 q 264 406 257 414 q 279 386 272 399 q 299 351 288 368 q 327 320 311 334 q 364 297 342 306 q 415 289 386 289 q 490 320 465 289 q 514 392 514 351 q 504 443 514 419 q 479 484 493 467 q 451 513 465 501 q 428 530 436 525 q 381 566 397 550 q 364 612 364 582 q 379 656 364 640 q 412 686 393 672 q 452 724 432 700 q 472 787 472 747 q 443 856 472 832 q 378 880 414 880 q 333 867 346 880 q 321 842 321 854 q 329 806 321 822 q 338 762 338 790 q 327 712 338 733 q 300 675 317 690 q 262 652 283 660 q 218 644 240 644 q 168 655 192 644 q 124 685 143 665 q 93 734 104 705 q 81 799 81 762 q 107 895 81 851 q 174 971 134 939 q 267 1021 215 1003 q 368 1039 318 1039 q 468 1024 416 1039 q 562 979 519 1008 q 631 906 604 950 q 659 803 659 861 q 649 743 659 770 q 626 696 640 717 q 597 662 612 676 q 570 637 582 647 q 558 624 558 629 q 563 616 558 619 q 572 610 567 612 q 622 575 589 600 q 690 510 656 550 q 749 417 724 471 q 775 298 775 364 z "},"4":{"ha":832,"x_min":41,"x_max":790,"o":"m 790 317 q 777 222 790 257 q 746 170 764 187 q 710 149 728 153 q 686 144 693 144 q 673 140 679 144 q 668 119 668 135 q 671 91 668 104 q 675 65 675 78 q 648 2 675 25 q 585 -21 621 -21 q 522 -1 550 -21 q 493 61 493 20 q 495 82 493 72 q 497 107 497 92 q 480 131 497 122 q 441 142 464 139 q 396 144 419 144 q 357 144 372 144 q 230 140 288 144 q 142 135 172 135 q 72 157 97 135 q 47 221 47 179 q 53 258 47 244 q 58 300 58 272 q 50 346 58 323 q 41 399 41 368 q 55 455 41 429 q 90 508 68 481 q 140 567 111 534 q 201 643 170 599 q 254 722 227 677 q 310 812 282 766 q 364 900 338 857 q 412 974 390 942 q 457 1014 431 999 q 517 1029 484 1029 q 553 1022 534 1029 q 587 1002 572 1015 q 611 969 602 989 q 621 924 621 950 q 607 866 621 892 q 572 817 593 840 q 526 767 551 793 q 476 707 500 741 q 435 646 454 676 q 402 589 416 615 q 380 546 389 564 q 370 525 371 529 q 366 496 361 505 q 395 486 371 486 l 469 486 q 487 490 478 486 q 496 509 496 493 q 494 533 496 521 q 492 558 492 545 q 515 618 492 590 q 583 647 538 647 q 624 640 607 647 q 653 620 642 632 q 669 592 664 607 q 675 562 675 576 q 672 534 675 547 q 669 505 669 521 q 674 486 669 490 q 690 481 679 481 q 715 475 699 481 q 748 453 732 469 q 778 404 765 436 q 790 317 790 371 z "},"5":{"ha":823,"x_min":40,"x_max":782,"o":"m 342 852 q 291 838 306 852 q 277 800 277 823 l 277 679 q 281 657 277 665 q 304 648 285 648 q 482 628 396 648 q 635 565 568 607 q 742 460 701 524 q 782 311 782 397 q 749 158 782 224 q 663 49 717 93 q 540 -16 610 5 q 397 -37 471 -37 q 200 0 290 -37 q 61 94 110 37 q 46 126 53 106 q 44 174 40 146 q 64 239 47 203 q 117 317 81 275 q 227 411 189 400 q 285 379 265 422 q 301 350 292 366 q 326 320 311 334 q 360 298 340 307 q 407 289 380 289 q 479 310 452 289 q 507 375 507 332 q 423 471 507 439 q 193 484 339 503 q 149 484 171 481 q 111 496 127 486 q 85 524 94 505 q 75 572 75 543 q 83 645 75 597 q 90 754 90 692 q 82 870 90 821 q 74 949 74 920 q 97 1006 74 983 q 161 1029 119 1029 q 250 1020 196 1029 q 386 1011 304 1011 q 534 1020 478 1011 q 628 1029 590 1029 q 690 1006 667 1029 q 714 947 714 983 q 709 904 714 928 q 704 857 704 880 q 711 806 704 825 q 718 766 718 786 q 692 699 718 729 q 616 668 665 668 q 543 695 570 668 q 515 762 515 722 q 520 795 515 782 q 525 823 525 808 q 512 849 525 846 q 485 852 500 852 l 342 852 z "},"6":{"ha":865,"x_min":41,"x_max":823,"o":"m 823 285 q 791 147 823 207 q 709 46 760 87 q 594 -15 659 5 q 467 -36 530 -36 q 320 -6 396 -36 q 182 87 244 24 q 81 252 121 151 q 41 494 41 353 q 80 730 41 628 q 180 901 118 832 q 322 1005 243 970 q 482 1040 401 1040 q 586 1024 534 1040 q 679 977 637 1007 q 747 902 721 946 q 772 804 772 859 q 761 737 772 766 q 729 687 749 708 q 686 656 710 667 q 635 646 661 646 q 591 653 612 646 q 553 676 570 661 q 526 713 536 692 q 515 764 515 734 q 526 813 515 796 q 536 847 536 831 q 521 877 536 867 q 481 888 505 888 q 404 866 441 888 q 336 805 367 844 q 287 710 306 765 q 268 585 268 654 q 283 472 268 522 q 326 384 298 421 q 391 328 353 347 q 475 309 429 309 q 553 330 524 309 q 583 387 583 351 q 561 440 583 424 q 510 456 538 456 q 469 445 488 456 q 422 435 450 435 q 377 449 397 435 q 357 500 357 464 q 397 564 357 536 q 517 591 437 591 q 613 574 559 591 q 713 519 667 557 q 791 425 760 482 q 823 285 823 367 z "},"7":{"ha":749,"x_min":41,"x_max":707,"o":"m 707 885 q 677 756 707 822 q 581 612 647 690 q 498 495 532 555 q 465 368 465 435 q 478 306 465 329 q 507 270 490 282 q 540 253 524 257 q 566 249 557 249 q 618 221 603 249 q 608 155 633 193 q 545 87 585 119 q 457 32 505 56 q 353 -6 408 8 q 241 -20 297 -20 q 194 -13 215 -20 q 153 9 172 -7 q 108 85 126 33 q 90 214 90 138 q 106 319 90 269 q 147 410 122 368 q 203 486 172 452 q 265 546 235 521 q 378 643 330 600 q 456 718 425 685 q 502 778 486 751 q 517 827 517 804 q 512 848 517 842 q 492 854 507 854 l 275 854 q 247 851 260 854 q 235 825 235 847 q 239 797 235 810 q 244 764 244 783 q 217 696 244 724 q 143 669 191 669 q 68 701 94 669 q 41 768 41 732 q 48 807 41 787 q 56 859 56 827 q 51 905 56 882 q 46 949 46 929 q 70 1008 46 985 q 132 1031 93 1031 q 233 1022 168 1031 q 378 1013 298 1013 q 485 1022 435 1013 q 582 1031 534 1031 q 620 1026 599 1031 q 661 1005 642 1021 q 694 962 681 990 q 707 885 707 933 z "},"8":{"ha":825,"x_min":41,"x_max":783,"o":"m 412 1040 q 534 1019 482 1040 q 621 962 586 997 q 674 885 656 928 q 692 802 692 843 q 668 712 692 751 q 612 646 644 673 q 601 628 602 636 q 612 612 600 621 q 665 572 635 599 q 721 509 694 546 q 765 424 747 472 q 783 317 783 376 q 753 174 783 239 q 671 63 722 110 q 553 -10 621 16 q 412 -36 486 -36 q 272 -10 339 -36 q 154 63 204 16 q 72 174 103 110 q 41 317 41 239 q 60 424 41 376 q 104 509 78 472 q 161 572 131 546 q 212 612 191 599 q 224 628 225 621 q 212 646 224 636 q 157 712 180 673 q 134 802 134 751 q 152 885 134 843 q 204 962 170 928 q 292 1019 239 997 q 412 1040 345 1040 m 412 549 q 365 539 389 549 q 324 514 342 530 q 295 473 306 497 q 283 419 283 449 q 321 327 283 363 q 412 290 359 290 q 504 327 465 290 q 542 419 542 363 q 531 473 542 449 q 502 514 519 497 q 460 539 484 530 q 412 549 436 549 m 412 884 q 349 860 376 884 q 322 796 322 836 q 351 728 322 750 q 412 707 379 707 q 474 728 446 707 q 503 796 503 750 q 476 860 503 836 q 412 884 449 884 z "},"9":{"ha":865,"x_min":41,"x_max":823,"o":"m 41 720 q 74 858 41 798 q 156 959 106 918 q 271 1020 207 999 q 399 1040 335 1040 q 545 1010 469 1040 q 683 917 621 981 q 784 752 745 852 q 823 510 823 652 q 785 274 823 376 q 685 103 747 172 q 543 -1 623 35 q 383 -36 464 -36 q 280 -19 332 -36 q 186 28 228 -3 q 119 102 144 58 q 93 200 93 146 q 105 267 93 237 q 136 317 117 296 q 180 348 155 338 q 231 358 204 358 q 274 351 253 358 q 312 328 296 343 q 339 291 329 313 q 350 240 350 269 q 339 191 350 208 q 329 157 329 174 q 344 127 329 138 q 385 117 359 117 q 462 138 424 117 q 530 199 500 160 q 578 294 559 239 q 597 419 597 350 q 582 533 597 482 q 540 620 567 583 q 474 676 513 657 q 390 696 436 696 q 312 674 342 696 q 282 616 282 653 q 305 565 282 581 q 355 549 328 549 q 396 559 378 549 q 443 570 415 570 q 488 555 468 570 q 509 504 509 541 q 468 440 509 468 q 349 412 428 412 q 253 430 306 412 q 153 485 200 447 q 74 581 106 522 q 41 720 41 639 z "}," ":{"ha":389,"x_min":0,"x_max":0,"o":""}," ":{"ha":389,"x_min":0,"x_max":0,"o":""},"Š":{"ha":867,"x_min":12,"x_max":839,"o":"m 839 269 q 811 144 839 200 q 734 47 783 87 q 616 -15 685 7 q 464 -36 547 -36 q 333 -21 397 -36 q 213 20 269 -7 q 110 86 157 47 q 29 172 62 125 q 16 206 20 186 q 18 253 12 227 q 40 313 24 279 q 89 387 57 347 q 170 476 139 453 q 225 500 201 500 q 258 482 249 500 q 273 440 267 464 q 292 396 279 422 q 327 346 304 370 q 385 306 350 322 q 469 289 419 289 q 530 304 505 289 q 555 349 555 319 q 549 376 555 363 q 528 403 543 389 q 486 435 513 418 q 418 472 460 452 q 291 549 343 511 q 205 626 239 586 q 158 708 172 665 q 143 798 143 750 q 165 902 143 857 q 227 978 187 947 q 319 1024 267 1008 q 433 1040 372 1040 q 549 1025 490 1040 q 655 981 608 1010 q 732 909 703 951 q 762 811 762 867 q 751 752 762 778 q 720 708 739 726 q 678 679 701 689 q 631 669 654 669 q 543 699 581 669 q 505 778 505 729 q 512 815 505 802 q 518 844 518 828 q 497 875 518 864 q 436 886 476 886 q 357 865 389 886 q 325 800 325 844 q 341 749 325 774 q 389 703 358 725 q 460 659 419 681 q 551 612 501 636 q 664 550 611 583 q 755 476 717 517 q 817 384 794 435 q 839 269 839 334 m 635 1244 q 629 1216 635 1227 q 613 1196 623 1204 q 593 1182 603 1187 q 575 1174 583 1177 q 542 1156 555 1166 q 518 1121 529 1145 q 483 1078 504 1093 q 429 1063 463 1063 q 375 1078 396 1063 q 340 1121 354 1093 q 316 1156 329 1145 q 283 1174 302 1166 q 266 1182 275 1177 q 246 1196 256 1187 q 230 1216 236 1204 q 224 1244 224 1227 q 247 1296 224 1280 q 298 1312 271 1312 q 350 1298 326 1312 q 392 1249 374 1283 q 411 1226 400 1232 q 429 1219 421 1219 q 448 1226 439 1219 q 467 1249 457 1232 q 508 1298 485 1283 q 559 1312 532 1312 q 611 1296 587 1312 q 635 1244 635 1280 z "},"š":{"ha":867,"x_min":12,"x_max":839,"o":"m 839 269 q 811 144 839 200 q 734 47 783 87 q 616 -15 685 7 q 464 -36 547 -36 q 333 -21 397 -36 q 213 20 269 -7 q 110 86 157 47 q 29 172 62 125 q 16 206 20 186 q 18 253 12 227 q 40 313 24 279 q 89 387 57 347 q 170 476 139 453 q 225 500 201 500 q 258 482 249 500 q 273 440 267 464 q 292 396 279 422 q 327 346 304 370 q 385 306 350 322 q 469 289 419 289 q 530 304 505 289 q 555 349 555 319 q 549 376 555 363 q 528 403 543 389 q 486 435 513 418 q 418 472 460 452 q 291 549 343 511 q 205 626 239 586 q 158 708 172 665 q 143 798 143 750 q 165 902 143 857 q 227 978 187 947 q 319 1024 267 1008 q 433 1040 372 1040 q 549 1025 490 1040 q 655 981 608 1010 q 732 909 703 951 q 762 811 762 867 q 751 752 762 778 q 720 708 739 726 q 678 679 701 689 q 631 669 654 669 q 543 699 581 669 q 505 778 505 729 q 512 815 505 802 q 518 844 518 828 q 497 875 518 864 q 436 886 476 886 q 357 865 389 886 q 325 800 325 844 q 341 749 325 774 q 389 703 358 725 q 460 659 419 681 q 551 612 501 636 q 664 550 611 583 q 755 476 717 517 q 817 384 794 435 q 839 269 839 334 m 635 1244 q 629 1216 635 1227 q 613 1196 623 1204 q 593 1182 603 1187 q 575 1174 583 1177 q 542 1156 555 1166 q 518 1121 529 1145 q 483 1078 504 1093 q 429 1063 463 1063 q 375 1078 396 1063 q 340 1121 354 1093 q 316 1156 329 1145 q 283 1174 302 1166 q 266 1182 275 1177 q 246 1196 256 1187 q 230 1216 236 1204 q 224 1244 224 1227 q 247 1296 224 1280 q 298 1312 271 1312 q 350 1298 326 1312 q 392 1249 374 1283 q 411 1226 400 1232 q 429 1219 421 1219 q 448 1226 439 1219 q 467 1249 457 1232 q 508 1298 485 1283 q 559 1312 532 1312 q 611 1296 587 1312 q 635 1244 635 1280 z "},"Ý":{"ha":1078,"x_min":28,"x_max":1050,"o":"m 632 200 q 637 166 632 180 q 663 151 643 151 q 685 153 672 151 q 713 154 697 154 q 772 131 746 154 q 798 68 798 109 q 772 5 798 31 q 707 -20 747 -20 q 679 -17 697 -20 q 638 -11 661 -14 q 590 -5 615 -8 q 542 -3 566 -3 q 439 -11 479 -3 q 371 -20 399 -20 q 306 5 330 -20 q 281 68 281 31 q 306 131 281 109 q 366 154 332 154 q 391 153 379 154 q 415 151 403 151 q 437 161 429 151 q 446 199 446 171 l 446 237 q 444 260 446 249 q 437 279 443 271 q 418 293 431 288 q 382 298 406 298 q 283 318 334 298 q 193 376 233 338 q 128 473 153 415 q 103 610 103 532 q 113 686 103 650 q 135 750 122 722 q 162 798 149 778 q 183 827 175 818 q 190 850 196 842 q 172 859 184 859 q 160 858 168 859 q 142 857 151 857 q 124 857 132 857 q 113 856 117 856 q 54 879 79 856 q 28 942 28 901 q 53 1004 28 979 q 118 1029 78 1029 q 178 1021 142 1029 q 268 1013 215 1013 q 352 1021 313 1013 q 410 1029 392 1029 q 475 1004 450 1029 q 500 942 500 979 q 474 879 500 901 q 415 856 449 856 q 388 857 400 856 q 368 859 375 859 q 340 843 349 859 q 332 803 332 827 q 342 739 332 771 q 377 681 353 707 q 441 640 401 656 q 539 624 481 624 q 637 640 597 624 q 701 681 676 656 q 735 739 725 707 q 746 803 746 771 q 738 843 746 827 q 710 859 729 859 q 690 857 703 859 q 663 856 677 856 q 604 879 629 856 q 578 942 578 901 q 603 1004 578 979 q 668 1029 628 1029 q 726 1021 686 1029 q 810 1013 765 1013 q 899 1021 863 1013 q 960 1029 936 1029 q 1025 1004 1000 1029 q 1050 942 1050 979 q 1024 879 1050 901 q 965 856 999 856 q 954 857 961 856 q 936 857 946 857 q 918 858 926 857 q 905 859 909 859 q 887 850 893 859 q 895 827 882 842 q 916 798 903 818 q 942 750 929 778 q 965 686 956 722 q 975 610 975 650 q 950 473 975 532 q 885 376 925 415 q 794 318 844 338 q 696 298 745 298 q 660 293 672 298 q 641 279 647 288 q 633 260 635 271 q 632 237 632 249 l 632 200 m 652 1226 q 629 1149 652 1181 q 577 1097 607 1117 q 516 1067 547 1076 q 465 1057 485 1057 q 437 1067 446 1057 q 428 1089 428 1076 q 434 1113 428 1103 q 449 1132 440 1122 q 463 1154 457 1141 q 469 1185 469 1166 q 467 1204 469 1192 q 465 1231 465 1217 q 474 1275 465 1257 q 497 1303 484 1293 q 527 1318 511 1314 q 555 1322 542 1322 q 620 1299 589 1322 q 652 1226 652 1275 z "},"ý":{"ha":1078,"x_min":28,"x_max":1050,"o":"m 632 200 q 637 166 632 180 q 663 151 643 151 q 685 153 672 151 q 713 154 697 154 q 772 131 746 154 q 798 68 798 109 q 772 5 798 31 q 707 -20 747 -20 q 679 -17 697 -20 q 638 -11 661 -14 q 590 -5 615 -8 q 542 -3 566 -3 q 439 -11 479 -3 q 371 -20 399 -20 q 306 5 330 -20 q 281 68 281 31 q 306 131 281 109 q 366 154 332 154 q 391 153 379 154 q 415 151 403 151 q 437 161 429 151 q 446 199 446 171 l 446 237 q 444 260 446 249 q 437 279 443 271 q 418 293 431 288 q 382 298 406 298 q 283 318 334 298 q 193 376 233 338 q 128 473 153 415 q 103 610 103 532 q 113 686 103 650 q 135 750 122 722 q 162 798 149 778 q 183 827 175 818 q 190 850 196 842 q 172 859 184 859 q 160 858 168 859 q 142 857 151 857 q 124 857 132 857 q 113 856 117 856 q 54 879 79 856 q 28 942 28 901 q 53 1004 28 979 q 118 1029 78 1029 q 178 1021 142 1029 q 268 1013 215 1013 q 352 1021 313 1013 q 410 1029 392 1029 q 475 1004 450 1029 q 500 942 500 979 q 474 879 500 901 q 415 856 449 856 q 388 857 400 856 q 368 859 375 859 q 340 843 349 859 q 332 803 332 827 q 342 739 332 771 q 377 681 353 707 q 441 640 401 656 q 539 624 481 624 q 637 640 597 624 q 701 681 676 656 q 735 739 725 707 q 746 803 746 771 q 738 843 746 827 q 710 859 729 859 q 690 857 703 859 q 663 856 677 856 q 604 879 629 856 q 578 942 578 901 q 603 1004 578 979 q 668 1029 628 1029 q 726 1021 686 1029 q 810 1013 765 1013 q 899 1021 863 1013 q 960 1029 936 1029 q 1025 1004 1000 1029 q 1050 942 1050 979 q 1024 879 1050 901 q 965 856 999 856 q 954 857 961 856 q 936 857 946 857 q 918 858 926 857 q 905 859 909 859 q 887 850 893 859 q 895 827 882 842 q 916 798 903 818 q 942 750 929 778 q 965 686 956 722 q 975 610 975 650 q 950 473 975 532 q 885 376 925 415 q 794 318 844 338 q 696 298 745 298 q 660 293 672 298 q 641 279 647 288 q 633 260 635 271 q 632 237 632 249 l 632 200 m 652 1226 q 629 1149 652 1181 q 577 1097 607 1117 q 516 1067 547 1076 q 465 1057 485 1057 q 437 1067 446 1057 q 428 1089 428 1076 q 434 1113 428 1103 q 449 1132 440 1122 q 463 1154 457 1141 q 469 1185 469 1166 q 467 1204 469 1192 q 465 1231 465 1217 q 474 1275 465 1257 q 497 1303 484 1293 q 527 1318 511 1314 q 555 1322 542 1322 q 620 1299 589 1322 q 652 1226 652 1275 z "},"Þ":{"ha":1025,"x_min":36,"x_max":983,"o":"m 412 1034 q 459 1038 429 1036 q 529 1040 489 1040 q 700 1018 618 1040 q 845 952 782 996 q 946 843 908 908 q 983 690 983 778 q 944 532 983 600 q 834 421 905 464 q 662 360 762 378 q 439 350 561 342 q 406 339 411 353 q 400 304 400 325 l 400 200 q 406 166 400 180 q 431 151 411 151 q 453 153 440 151 q 481 154 465 154 q 540 131 514 154 q 566 68 566 109 q 541 5 566 31 q 475 -20 515 -20 q 447 -17 465 -20 q 406 -11 429 -14 q 358 -5 383 -8 q 310 -3 334 -3 q 207 -11 248 -3 q 138 -20 165 -20 q 72 5 97 -20 q 47 68 47 31 q 73 131 47 109 q 132 154 98 154 q 158 153 146 154 q 182 151 170 151 q 204 161 196 151 q 212 199 212 171 l 212 642 q 206 674 212 667 q 184 675 200 682 q 123 679 153 660 q 64 772 94 697 q 42 879 36 842 q 83 936 49 917 q 208 989 135 964 q 225 1014 225 994 q 217 1077 225 1040 q 208 1149 208 1114 q 237 1225 208 1197 q 306 1253 267 1253 q 374 1221 349 1253 q 400 1147 400 1190 q 399 1125 400 1139 q 395 1098 397 1112 q 392 1072 393 1084 q 390 1051 390 1060 q 412 1034 390 1029 m 734 615 q 721 655 734 637 q 685 687 708 673 q 633 707 663 700 q 571 714 603 714 q 443 683 492 714 q 395 610 395 652 q 440 535 395 562 q 559 509 485 509 q 686 538 637 509 q 734 615 734 567 z "},"þ":{"ha":1025,"x_min":36,"x_max":983,"o":"m 412 1034 q 459 1038 429 1036 q 529 1040 489 1040 q 700 1018 618 1040 q 845 952 782 996 q 946 843 908 908 q 983 690 983 778 q 944 532 983 600 q 834 421 905 464 q 662 360 762 378 q 439 350 561 342 q 406 339 411 353 q 400 304 400 325 l 400 200 q 406 166 400 180 q 431 151 411 151 q 453 153 440 151 q 481 154 465 154 q 540 131 514 154 q 566 68 566 109 q 541 5 566 31 q 475 -20 515 -20 q 447 -17 465 -20 q 406 -11 429 -14 q 358 -5 383 -8 q 310 -3 334 -3 q 207 -11 248 -3 q 138 -20 165 -20 q 72 5 97 -20 q 47 68 47 31 q 73 131 47 109 q 132 154 98 154 q 158 153 146 154 q 182 151 170 151 q 204 161 196 151 q 212 199 212 171 l 212 642 q 206 674 212 667 q 184 675 200 682 q 123 679 153 660 q 64 772 94 697 q 42 879 36 842 q 83 936 49 917 q 208 989 135 964 q 225 1014 225 994 q 217 1077 225 1040 q 208 1149 208 1114 q 237 1225 208 1197 q 306 1253 267 1253 q 374 1221 349 1253 q 400 1147 400 1190 q 399 1125 400 1139 q 395 1098 397 1112 q 392 1072 393 1084 q 390 1051 390 1060 q 412 1034 390 1029 m 734 615 q 721 655 734 637 q 685 687 708 673 q 633 707 663 700 q 571 714 603 714 q 443 683 492 714 q 395 610 395 652 q 440 535 395 562 q 559 509 485 509 q 686 538 637 509 q 734 615 734 567 z "},"Ž":{"ha":925,"x_min":41,"x_max":884,"o":"m 884 248 q 878 202 884 225 q 872 151 872 179 q 873 124 872 135 q 877 103 875 113 q 880 85 879 94 q 882 60 882 75 q 856 1 882 22 q 793 -20 829 -20 q 735 -17 777 -20 q 643 -10 694 -14 q 535 -4 591 -7 q 429 -1 479 -1 q 310 -9 358 -1 q 224 -36 261 -17 q 173 -57 196 -52 q 127 -45 150 -62 q 101 -15 117 -36 q 73 35 86 5 q 51 105 60 65 q 41 193 41 146 q 86 358 41 279 q 205 509 131 437 q 377 644 279 581 q 582 761 475 707 q 635 797 625 783 q 646 827 646 811 q 641 844 646 835 q 616 852 636 852 l 321 852 q 289 827 289 852 q 294 797 289 811 q 298 762 298 782 q 271 695 298 722 q 197 668 244 668 q 122 699 149 668 q 96 766 96 729 q 103 806 96 786 q 110 857 110 825 q 105 904 110 880 q 100 947 100 928 q 123 1006 100 983 q 186 1029 147 1029 q 229 1026 205 1029 q 285 1021 252 1023 q 363 1015 318 1018 q 469 1013 408 1013 q 644 1021 579 1013 q 745 1029 708 1029 q 804 1008 779 1029 q 829 950 829 986 q 827 922 829 940 q 825 889 825 904 q 832 851 825 865 q 839 811 839 838 q 818 745 839 772 q 777 703 796 718 q 648 592 708 647 q 544 484 589 538 q 474 374 500 429 q 449 258 449 318 q 457 202 449 222 q 479 172 465 182 q 510 159 493 161 q 545 157 526 157 l 664 157 q 683 164 675 157 q 692 187 692 172 q 688 217 692 204 q 684 252 684 231 q 711 316 684 288 q 785 345 739 345 q 854 318 825 345 q 884 248 884 292 m 669 1244 q 663 1216 669 1227 q 647 1196 657 1204 q 628 1182 637 1187 q 610 1174 618 1177 q 577 1156 590 1166 q 553 1121 564 1145 q 518 1078 539 1093 q 464 1063 497 1063 q 410 1078 431 1063 q 375 1121 389 1093 q 351 1156 364 1145 q 318 1174 338 1166 q 300 1182 310 1177 q 280 1196 290 1187 q 264 1216 271 1204 q 258 1244 258 1227 q 282 1296 258 1280 q 334 1312 306 1312 q 385 1298 361 1312 q 427 1249 408 1283 q 445 1226 435 1232 q 464 1219 456 1219 q 483 1226 473 1219 q 501 1249 492 1232 q 543 1298 519 1283 q 595 1312 567 1312 q 646 1296 623 1312 q 669 1244 669 1280 z "},"ž":{"ha":925,"x_min":41,"x_max":884,"o":"m 884 248 q 878 202 884 225 q 872 151 872 179 q 873 124 872 135 q 877 103 875 113 q 880 85 879 94 q 882 60 882 75 q 856 1 882 22 q 793 -20 829 -20 q 735 -17 777 -20 q 643 -10 694 -14 q 535 -4 591 -7 q 429 -1 479 -1 q 310 -9 358 -1 q 224 -36 261 -17 q 173 -57 196 -52 q 127 -45 150 -62 q 101 -15 117 -36 q 73 35 86 5 q 51 105 60 65 q 41 193 41 146 q 86 358 41 279 q 205 509 131 437 q 377 644 279 581 q 582 761 475 707 q 635 797 625 783 q 646 827 646 811 q 641 844 646 835 q 616 852 636 852 l 321 852 q 289 827 289 852 q 294 797 289 811 q 298 762 298 782 q 271 695 298 722 q 197 668 244 668 q 122 699 149 668 q 96 766 96 729 q 103 806 96 786 q 110 857 110 825 q 105 904 110 880 q 100 947 100 928 q 123 1006 100 983 q 186 1029 147 1029 q 229 1026 205 1029 q 285 1021 252 1023 q 363 1015 318 1018 q 469 1013 408 1013 q 644 1021 579 1013 q 745 1029 708 1029 q 804 1008 779 1029 q 829 950 829 986 q 827 922 829 940 q 825 889 825 904 q 832 851 825 865 q 839 811 839 838 q 818 745 839 772 q 777 703 796 718 q 648 592 708 647 q 544 484 589 538 q 474 374 500 429 q 449 258 449 318 q 457 202 449 222 q 479 172 465 182 q 510 159 493 161 q 545 157 526 157 l 664 157 q 683 164 675 157 q 692 187 692 172 q 688 217 692 204 q 684 252 684 231 q 711 316 684 288 q 785 345 739 345 q 854 318 825 345 q 884 248 884 292 m 669 1244 q 663 1216 669 1227 q 647 1196 657 1204 q 628 1182 637 1187 q 610 1174 618 1177 q 577 1156 590 1166 q 553 1121 564 1145 q 518 1078 539 1093 q 464 1063 497 1063 q 410 1078 431 1063 q 375 1121 389 1093 q 351 1156 364 1145 q 318 1174 338 1166 q 300 1182 310 1177 q 280 1196 290 1187 q 264 1216 271 1204 q 258 1244 258 1227 q 282 1296 258 1280 q 334 1312 306 1312 q 385 1298 361 1312 q 427 1249 408 1283 q 445 1226 435 1232 q 464 1219 456 1219 q 483 1226 473 1219 q 501 1249 492 1232 q 543 1298 519 1283 q 595 1312 567 1312 q 646 1296 623 1312 q 669 1244 669 1280 z "},"−":{"ha":699,"x_min":41,"x_max":657,"o":"m 657 589 q 631 526 657 550 q 566 503 606 503 q 473 508 529 503 q 350 514 416 514 q 226 508 282 514 q 134 503 170 503 q 67 526 93 503 q 41 589 41 550 q 67 651 41 628 q 134 675 93 675 q 226 669 170 675 q 350 664 282 664 q 473 669 416 664 q 566 675 529 675 q 631 651 606 675 q 657 589 657 628 z "},"×":{"ha":570,"x_min":37,"x_max":529,"o":"m 503 808 q 528 746 529 782 q 501 685 526 710 q 454 642 481 664 q 410 603 427 619 q 404 594 404 597 q 410 583 403 590 q 455 544 433 559 q 500 504 476 528 q 527 439 528 476 q 498 375 526 403 q 436 348 472 349 q 372 375 400 347 q 335 417 353 395 q 294 463 318 439 q 283 470 288 469 q 272 464 279 471 q 233 422 254 446 q 191 375 212 399 q 131 348 167 351 q 66 374 96 345 q 45 408 50 390 q 43 443 40 427 q 54 475 46 460 q 72 500 62 490 q 112 535 86 514 q 158 576 138 555 q 157 599 170 587 q 141 613 151 604 q 118 633 131 623 q 93 654 106 643 q 71 675 81 665 q 42 745 37 710 q 69 806 46 781 q 131 834 94 832 q 199 806 168 836 q 247 753 227 778 q 275 720 267 729 q 286 710 281 713 q 300 718 292 708 q 319 739 309 726 q 339 764 329 751 q 360 788 350 777 q 375 804 370 799 q 437 835 403 832 q 503 808 472 838 z "},"ł":{"ha":869,"x_min":41,"x_max":828,"o":"m 416 750 q 428 741 416 741 q 464 753 443 741 q 511 766 485 766 q 570 744 545 766 q 596 685 596 722 q 586 644 596 660 q 561 618 575 628 q 529 604 546 608 q 500 596 513 599 q 435 580 454 586 q 416 558 416 574 l 416 429 q 418 385 416 403 q 426 356 419 367 q 448 341 433 346 q 490 336 463 336 l 578 336 q 599 345 593 336 q 606 366 606 353 q 602 396 606 382 q 597 431 597 410 q 629 514 597 482 q 710 546 661 546 q 789 514 755 546 q 823 418 823 482 q 813 344 823 382 q 803 258 803 306 q 815 142 803 186 q 828 75 828 98 q 799 3 828 26 q 733 -20 770 -20 q 683 -17 708 -20 q 626 -9 657 -14 q 556 -3 595 -5 q 467 0 517 0 q 371 -3 411 0 q 298 -9 330 -5 q 241 -17 267 -14 q 193 -20 216 -20 q 41 186 41 -20 q 54 268 41 236 q 85 319 66 300 q 124 345 103 338 q 160 353 144 353 q 182 349 172 353 q 207 345 192 345 q 224 358 220 345 q 229 393 229 371 l 229 478 q 220 492 229 492 q 182 478 203 492 q 134 465 161 465 q 77 488 102 465 q 52 546 52 510 q 73 602 52 575 q 139 636 94 629 q 188 645 171 642 q 215 653 205 648 q 227 662 225 657 q 229 673 229 667 l 229 811 q 221 849 229 839 q 199 859 212 859 q 174 857 186 859 q 149 856 163 856 q 90 879 115 856 q 64 942 64 901 q 89 1004 64 979 q 154 1029 114 1029 q 223 1021 182 1029 q 326 1013 264 1013 q 375 1015 350 1013 q 423 1021 400 1018 q 464 1026 446 1023 q 492 1029 482 1029 q 557 1004 532 1029 q 582 942 582 979 q 556 879 582 901 q 497 856 530 856 q 470 857 482 856 q 447 859 457 859 q 422 844 428 859 q 416 810 416 829 l 416 750 z "},"!":{"ha":428,"x_min":41,"x_max":386,"o":"m 386 828 q 381 720 386 779 q 367 602 376 661 q 343 485 358 542 q 310 384 329 428 q 267 313 292 339 q 214 286 243 286 q 160 313 184 286 q 117 384 136 339 q 84 485 98 428 q 60 602 69 542 q 46 720 52 661 q 41 828 41 779 q 55 918 41 880 q 94 981 69 956 q 149 1018 118 1006 q 214 1029 180 1029 q 279 1018 248 1029 q 334 981 310 1006 q 372 918 358 956 q 386 828 386 880 m 317 82 q 288 9 317 39 q 214 -20 258 -20 q 142 9 171 -20 q 113 82 113 39 q 142 154 113 125 q 214 183 171 183 q 288 154 258 183 q 317 82 317 125 z "},"\"":{"ha":505,"x_min":41,"x_max":464,"o":"m 229 945 q 215 872 229 909 q 201 798 201 835 q 199 767 201 783 q 190 738 197 751 q 169 714 182 724 q 135 705 155 705 q 101 714 114 705 q 81 738 89 724 q 72 767 74 751 q 69 798 69 783 q 55 872 69 835 q 41 945 41 909 q 68 1007 41 985 q 135 1029 96 1029 q 202 1007 175 1029 q 229 945 229 985 m 464 945 q 450 872 464 909 q 436 798 436 835 q 434 767 436 783 q 424 738 432 751 q 403 714 416 724 q 370 705 390 705 q 336 714 349 705 q 316 738 323 724 q 307 767 309 751 q 304 798 304 783 q 291 872 304 835 q 277 945 277 909 q 303 1007 277 985 q 370 1029 330 1029 q 437 1007 410 1029 q 464 945 464 985 z "},"#":{"ha":1272,"x_min":41,"x_max":1231,"o":"m 1231 703 q 1206 644 1231 669 q 1136 618 1181 618 q 1099 620 1122 618 q 1051 625 1076 623 q 1003 629 1026 627 q 962 631 979 631 q 948 627 951 631 q 940 612 945 624 q 928 578 937 604 q 906 519 918 551 q 883 454 895 486 q 863 401 871 422 q 878 382 856 382 q 910 383 892 382 q 947 387 929 385 q 981 390 965 389 q 1006 392 997 392 q 1065 374 1038 392 q 1092 318 1092 355 q 1066 260 1092 285 q 996 235 1040 235 q 963 236 983 235 q 918 239 942 237 q 869 241 893 240 q 829 243 846 243 q 808 239 814 243 q 798 225 802 236 q 785 182 789 203 q 777 141 781 161 q 768 99 772 121 q 755 53 764 78 q 715 -1 743 17 q 664 -20 688 -20 q 615 -7 635 -20 q 584 24 595 5 q 571 66 572 43 q 578 113 570 90 q 603 167 586 136 q 632 227 619 197 q 616 243 639 243 l 443 243 q 418 227 424 243 q 397 135 401 175 q 378 50 392 96 q 339 -3 367 14 q 283 -20 311 -20 q 218 7 243 -20 q 193 71 193 33 q 200 113 193 93 q 216 152 207 134 q 235 189 225 171 q 253 227 245 207 q 240 243 260 243 q 176 239 208 243 q 123 235 143 235 q 64 256 86 235 q 41 310 41 278 q 71 372 41 353 q 144 392 100 392 q 210 387 168 392 q 292 382 252 382 q 306 385 300 382 q 317 401 311 387 q 335 450 323 421 q 357 509 346 478 q 378 568 368 539 q 393 612 387 596 q 379 631 399 631 q 318 626 351 631 q 265 621 285 621 q 202 644 222 621 q 182 697 182 668 q 214 760 182 742 q 283 778 245 778 q 350 773 307 778 q 428 768 392 768 q 449 772 443 768 q 458 786 454 775 q 474 838 467 811 q 486 887 481 864 q 496 930 492 911 q 504 960 500 950 q 545 1015 519 1000 q 597 1029 570 1029 q 659 1008 631 1029 q 686 943 686 987 q 679 898 686 918 q 663 859 672 878 q 642 823 653 840 q 623 786 631 806 q 636 768 614 768 l 808 768 q 825 770 819 768 q 836 786 831 772 q 862 876 851 828 q 879 949 872 924 q 921 1013 893 996 q 975 1029 949 1029 q 1038 1006 1011 1029 q 1065 943 1065 983 q 1058 900 1065 920 q 1042 862 1051 880 q 1023 825 1034 843 q 1004 787 1013 807 q 1013 768 996 768 q 1045 770 1026 768 q 1083 772 1064 771 q 1118 775 1101 774 q 1145 777 1135 777 q 1206 757 1181 777 q 1231 703 1231 737 m 771 607 q 760 631 779 631 l 597 631 q 572 626 578 631 q 561 610 566 621 q 542 557 553 586 q 520 500 530 529 q 499 444 510 471 q 482 399 489 418 q 497 380 475 380 l 667 380 q 696 400 689 380 q 714 452 703 421 q 738 515 726 484 q 759 572 749 546 q 771 607 768 599 z "},"$":{"ha":839,"x_min":12,"x_max":811,"o":"m 811 311 q 785 200 811 252 q 717 110 760 149 q 620 48 675 72 q 505 21 566 25 q 487 18 490 20 q 485 4 484 16 q 488 -23 486 -8 q 490 -49 490 -37 q 469 -111 490 -89 q 415 -134 447 -134 q 360 -113 383 -134 q 336 -49 336 -93 q 340 -13 336 -29 q 345 16 345 4 q 329 31 345 26 q 222 64 272 41 q 133 113 172 86 q 65 167 93 139 q 25 218 37 195 q 17 242 21 227 q 17 280 12 257 q 36 335 21 302 q 83 411 50 368 q 154 488 125 468 q 201 506 183 509 q 230 487 220 504 q 244 454 240 471 q 274 388 254 421 q 335 338 294 355 q 350 335 345 334 q 355 350 355 336 l 355 492 q 353 510 355 504 q 336 522 350 515 q 230 581 272 551 q 162 640 187 610 q 126 701 136 669 q 115 768 115 733 q 131 841 115 806 q 175 904 147 876 q 241 951 203 932 q 325 978 279 971 q 344 983 339 981 q 346 996 349 986 q 341 1022 343 1007 q 339 1054 339 1038 q 362 1115 339 1095 q 414 1136 386 1136 q 466 1114 443 1136 q 489 1051 489 1092 q 482 999 489 1031 q 500 982 478 983 q 575 969 534 979 q 649 940 615 958 q 706 895 684 922 q 728 829 728 867 q 700 765 728 785 q 642 745 672 745 q 591 757 612 745 q 553 786 570 770 q 523 818 536 803 q 494 838 509 833 q 473 825 473 844 l 473 673 q 481 649 473 654 q 505 636 489 643 q 616 585 562 615 q 714 515 671 555 q 785 424 758 475 q 811 311 811 374 m 357 833 q 352 842 357 840 q 340 842 347 844 q 302 819 321 835 q 283 771 283 803 q 303 724 283 745 q 342 697 323 704 q 357 707 357 692 l 357 833 m 555 380 q 544 421 555 400 q 492 463 532 441 q 473 453 473 472 l 473 330 q 481 314 473 315 q 497 315 489 313 q 542 344 529 323 q 555 380 555 364 z "},"%":{"ha":1047,"x_min":41,"x_max":1006,"o":"m 481 778 q 462 676 481 722 q 412 597 443 631 q 342 545 382 564 q 261 526 302 526 q 180 545 220 526 q 110 597 140 564 q 60 676 79 631 q 41 778 41 722 q 59 876 41 831 q 106 956 77 921 q 175 1010 135 990 q 261 1029 215 1029 q 347 1010 307 1029 q 416 956 387 990 q 463 876 446 921 q 481 778 481 831 m 851 766 q 832 747 842 755 q 810 728 822 739 q 781 702 798 717 q 743 660 765 686 q 712 623 734 650 q 659 558 689 596 q 592 480 628 521 q 526 401 557 439 q 473 337 496 364 q 441 300 450 310 q 409 257 421 275 q 388 225 396 239 q 373 200 379 211 q 357 176 367 189 q 330 154 346 163 q 297 145 314 146 q 266 149 281 144 q 237 164 250 154 q 208 221 211 186 q 229 283 205 256 q 250 304 240 296 q 272 324 260 313 q 299 351 283 335 q 338 393 315 367 q 376 439 350 408 q 433 507 401 469 q 498 584 464 545 q 560 659 532 624 q 610 718 589 693 q 636 749 631 742 q 671 793 659 775 q 692 825 684 811 q 707 850 700 839 q 724 873 714 861 q 753 899 736 890 q 786 907 770 907 q 819 903 803 908 q 847 889 835 899 q 875 834 871 869 q 851 766 879 799 m 336 734 q 313 804 336 779 q 261 829 289 829 q 209 804 232 829 q 186 734 186 779 q 208 668 186 694 q 261 642 229 642 q 315 668 293 642 q 336 734 336 694 m 567 232 q 586 333 567 288 q 635 412 604 379 q 705 465 665 446 q 786 484 745 484 q 867 465 828 484 q 937 412 907 446 q 987 333 968 379 q 1006 232 1006 288 q 988 135 1006 180 q 942 54 971 89 q 872 0 913 20 q 786 -20 832 -20 q 700 0 741 -20 q 631 54 660 20 q 584 135 602 89 q 567 232 567 180 m 711 275 q 735 205 711 231 q 786 180 758 180 q 838 205 815 180 q 861 275 861 231 q 840 342 861 315 q 786 368 818 368 q 733 342 754 368 q 711 275 711 315 z "},"&":{"ha":1071,"x_min":41,"x_max":1029,"o":"m 1029 290 q 1001 224 1029 250 q 936 199 972 199 q 897 205 914 199 q 864 222 879 212 q 838 242 850 232 q 818 258 827 253 q 804 262 811 264 q 793 249 796 260 q 752 156 781 205 q 676 63 724 106 q 561 -9 629 20 q 400 -37 493 -37 q 256 -14 322 -37 q 142 51 191 9 q 68 150 94 93 q 41 272 41 207 q 64 391 41 338 q 119 485 87 444 q 185 555 151 526 q 239 599 218 583 q 236 628 257 612 q 195 660 218 642 q 153 703 172 677 q 120 762 134 729 q 107 838 107 794 q 124 916 107 879 q 174 980 142 953 q 250 1023 205 1007 q 349 1039 294 1039 q 447 1026 397 1039 q 535 986 496 1013 q 600 921 575 960 q 625 829 625 882 q 598 727 625 770 q 546 659 571 684 q 533 639 533 646 q 543 627 533 632 q 589 597 566 612 q 632 570 612 582 q 648 568 643 562 q 648 581 653 572 q 641 602 644 590 q 637 627 637 614 q 663 696 637 671 q 732 722 688 722 q 808 688 781 722 q 836 604 836 653 q 829 533 836 570 q 822 473 822 497 q 824 456 822 463 q 836 443 825 450 q 883 413 856 431 q 946 386 909 395 q 1006 354 982 378 q 1029 290 1029 330 m 439 810 q 412 867 439 844 q 351 889 386 889 q 299 869 313 889 q 285 829 285 848 q 295 801 285 815 q 319 773 304 786 q 350 748 334 760 q 380 728 367 736 q 410 730 400 717 q 429 765 419 745 q 439 810 439 786 m 599 368 q 593 395 606 385 q 550 424 575 407 q 499 456 525 440 q 452 486 473 472 q 418 509 431 500 q 395 505 404 518 q 371 466 383 492 q 359 412 359 440 q 367 375 359 395 q 389 340 374 355 q 428 315 404 325 q 485 304 452 304 q 558 325 529 304 q 599 368 587 345 z "},"'":{"ha":271,"x_min":41,"x_max":229,"o":"m 229 945 q 215 872 229 909 q 201 798 201 835 q 199 767 201 783 q 190 738 197 751 q 169 714 182 724 q 135 705 155 705 q 101 714 114 705 q 81 738 89 724 q 72 767 74 751 q 69 798 69 783 q 55 872 69 835 q 41 945 41 909 q 68 1007 41 985 q 135 1029 96 1029 q 202 1007 175 1029 q 229 945 229 985 z "},"(":{"ha":419,"x_min":41,"x_max":406,"o":"m 406 -94 q 394 -122 406 -115 q 372 -129 383 -129 q 315 -105 349 -129 q 245 -40 282 -82 q 172 59 208 1 q 106 186 135 117 q 60 333 78 256 q 41 492 41 411 q 60 661 41 579 q 107 813 78 742 q 172 943 136 884 q 244 1043 208 1002 q 314 1107 281 1084 q 370 1131 347 1131 q 393 1124 380 1131 q 406 1095 406 1118 q 378 1010 406 1061 q 318 887 351 960 q 258 716 285 814 q 231 493 231 619 q 258 280 231 374 q 318 114 285 186 q 378 -8 351 43 q 406 -94 406 -60 z "},")":{"ha":419,"x_min":14,"x_max":378,"o":"m 14 -94 q 41 -8 14 -60 q 101 114 68 43 q 162 280 135 186 q 189 493 189 374 q 162 716 189 619 q 101 887 135 814 q 41 1010 68 960 q 14 1095 14 1061 q 26 1124 14 1118 q 50 1131 39 1131 q 105 1107 72 1131 q 175 1043 139 1084 q 247 943 211 1002 q 313 813 283 884 q 360 661 342 742 q 378 492 378 579 q 339 258 378 370 q 248 60 301 146 q 139 -78 195 -26 q 47 -129 83 -129 q 25 -122 36 -129 q 14 -94 14 -115 z "},"*":{"ha":539,"x_min":41,"x_max":497,"o":"m 288 746 q 314 766 290 771 q 367 751 335 764 q 416 715 399 739 q 433 660 437 689 q 410 615 429 631 q 357 602 389 599 q 306 631 325 604 q 292 658 297 642 q 286 691 288 675 q 286 723 285 708 q 288 746 286 737 m 315 821 q 328 846 315 831 q 378 895 354 878 q 429 913 401 913 q 479 890 461 913 q 497 843 497 868 q 474 789 497 807 q 422 771 450 771 q 378 778 403 771 q 330 799 354 785 q 315 821 315 807 m 340 956 q 321 897 340 928 q 285 851 302 867 q 254 851 268 838 q 239 869 249 857 q 220 895 229 880 q 205 926 211 909 q 199 956 199 942 q 220 1010 199 991 q 269 1029 241 1029 q 319 1010 297 1029 q 340 956 340 991 m 224 821 q 208 799 224 807 q 160 778 184 785 q 117 771 136 771 q 65 789 89 771 q 41 843 41 807 q 60 890 41 868 q 110 913 78 913 q 161 895 138 913 q 211 846 184 878 q 224 821 224 831 m 252 746 q 254 723 253 737 q 253 691 254 708 q 247 658 252 675 q 233 631 241 642 q 182 602 214 604 q 129 615 150 599 q 106 660 110 631 q 122 715 102 689 q 172 751 140 739 q 225 766 204 764 q 252 746 249 771 z "},"+":{"ha":700,"x_min":41,"x_max":659,"o":"m 659 589 q 633 526 659 550 q 567 503 607 503 q 507 506 542 503 q 449 509 472 509 q 433 496 433 509 q 437 437 433 464 q 441 375 441 410 q 416 309 441 335 q 349 283 390 283 q 283 309 309 283 q 258 375 258 335 q 262 435 258 407 q 267 492 267 464 q 252 509 267 509 q 195 506 228 509 q 134 503 163 503 q 67 526 93 503 q 41 589 41 550 q 67 651 41 628 q 134 675 93 675 q 156 673 142 675 q 188 671 171 672 q 221 669 204 671 q 252 668 237 668 q 265 685 265 668 q 264 707 265 693 q 262 738 262 721 q 260 771 261 754 q 258 802 258 787 q 286 869 258 846 q 351 893 314 893 q 414 868 387 893 q 441 802 441 843 q 440 769 441 786 q 438 735 439 751 q 436 705 437 718 q 435 685 435 692 q 449 668 435 668 q 478 669 461 668 q 512 671 494 671 q 544 673 529 672 q 567 675 558 675 q 633 651 607 675 q 659 589 659 628 z "},",":{"ha":319,"x_min":41,"x_max":278,"o":"m 278 93 q 258 8 278 49 q 209 -62 239 -32 q 144 -110 179 -93 q 77 -127 109 -127 q 51 -121 61 -127 q 41 -98 41 -114 q 46 -80 41 -89 q 58 -63 52 -72 q 72 -43 65 -54 q 83 -17 79 -32 q 85 45 93 16 q 78 102 78 74 q 105 175 78 147 q 176 203 132 203 q 213 196 195 203 q 245 175 231 189 q 269 141 260 161 q 278 93 278 121 z "},"-":{"ha":549,"x_min":41,"x_max":507,"o":"m 507 589 q 481 526 507 550 q 415 503 456 503 q 382 505 397 503 q 352 509 367 507 q 317 513 336 511 q 275 514 298 514 q 231 513 250 514 q 196 509 212 511 q 166 505 180 507 q 134 503 151 503 q 67 526 93 503 q 41 589 41 550 q 67 651 41 628 q 134 675 93 675 q 166 673 151 675 q 196 670 180 672 q 231 666 212 668 q 275 664 250 664 q 317 666 298 664 q 352 670 336 668 q 382 673 367 672 q 415 675 397 675 q 481 651 456 675 q 507 589 507 628 z "},".":{"ha":288,"x_min":41,"x_max":245,"o":"m 245 82 q 216 9 245 39 q 143 -20 187 -20 q 71 9 100 -20 q 41 82 41 39 q 71 154 41 125 q 143 183 100 183 q 216 154 187 183 q 245 82 245 125 z "},"/":{"ha":664,"x_min":41,"x_max":623,"o":"m 623 1040 q 615 1001 623 1019 q 595 960 607 982 q 569 909 583 937 q 539 842 554 880 q 514 771 534 828 q 465 635 493 714 q 404 466 436 555 q 342 297 371 376 q 293 162 314 218 q 268 92 272 106 q 243 -1 250 39 q 228 -64 236 -40 q 188 -118 215 -102 q 138 -134 161 -134 q 69 -106 97 -134 q 41 -36 41 -78 q 49 6 41 -14 q 70 47 57 25 q 97 96 82 69 q 123 160 111 123 q 154 242 132 182 q 203 381 175 302 q 264 547 232 460 q 323 708 296 633 q 369 836 350 783 q 392 900 387 889 q 419 999 411 954 q 435 1065 428 1043 q 474 1119 447 1101 q 533 1136 501 1136 q 596 1110 570 1136 q 623 1040 623 1084 z "},":":{"ha":288,"x_min":41,"x_max":245,"o":"m 245 444 q 216 372 245 401 q 143 343 187 343 q 71 372 100 343 q 41 444 41 401 q 71 517 41 488 q 143 546 100 546 q 216 517 187 546 q 245 444 245 488 m 245 82 q 216 9 245 39 q 143 -20 187 -20 q 71 9 100 -20 q 41 82 41 39 q 71 154 41 125 q 143 183 100 183 q 216 154 187 183 q 245 82 245 125 z "},";":{"ha":321,"x_min":41,"x_max":279,"o":"m 279 444 q 250 372 279 401 q 176 343 221 343 q 104 372 134 343 q 75 444 75 401 q 104 517 75 488 q 176 546 134 546 q 250 517 221 546 q 279 444 279 488 m 278 93 q 258 8 278 49 q 209 -62 239 -32 q 144 -110 179 -93 q 77 -127 109 -127 q 51 -121 61 -127 q 41 -98 41 -114 q 46 -80 41 -89 q 58 -63 52 -72 q 72 -43 65 -54 q 83 -17 79 -32 q 85 45 93 16 q 78 102 78 74 q 105 175 78 147 q 176 203 132 203 q 213 196 195 203 q 245 175 231 189 q 269 141 260 161 q 278 93 278 121 z "},"=":{"ha":699,"x_min":41,"x_max":657,"o":"m 657 701 q 631 639 657 663 q 566 615 606 615 q 473 621 529 615 q 350 627 416 627 q 226 621 282 627 q 134 615 170 615 q 67 639 93 615 q 41 701 41 663 q 67 764 41 741 q 134 787 93 787 q 226 782 170 787 q 350 777 282 777 q 473 782 416 777 q 566 787 529 787 q 631 764 606 787 q 657 701 657 741 m 657 472 q 631 410 657 433 q 566 386 606 386 q 473 392 529 386 q 350 397 416 397 q 226 392 282 397 q 134 386 170 386 q 67 410 93 386 q 41 472 41 433 q 67 535 41 511 q 134 558 93 558 q 226 553 170 558 q 350 547 282 547 q 473 553 416 547 q 566 558 529 558 q 631 535 606 558 q 657 472 657 511 z "},"?":{"ha":859,"x_min":40,"x_max":817,"o":"m 817 673 q 774 482 817 559 q 671 357 732 404 q 547 290 611 310 q 439 269 484 269 q 340 345 340 269 q 363 399 340 379 q 428 428 386 419 q 533 480 493 440 q 572 578 572 521 q 561 633 572 608 q 531 676 550 659 q 489 704 513 694 q 439 714 465 714 q 374 702 399 714 q 337 672 350 689 q 319 638 323 656 q 315 610 315 621 q 319 573 315 589 q 326 546 322 558 q 333 522 329 533 q 336 497 336 510 q 326 471 336 485 q 294 457 315 457 q 240 472 268 457 q 187 510 212 486 q 138 565 161 534 q 94 628 114 596 q 58 710 69 671 q 43 781 46 749 q 44 838 40 814 q 54 872 49 861 q 105 935 72 905 q 182 989 138 965 q 283 1026 227 1013 q 404 1040 339 1040 q 556 1015 482 1040 q 688 944 631 990 q 781 829 746 897 q 817 673 817 761 m 546 82 q 517 9 546 39 q 443 -20 488 -20 q 371 9 400 -20 q 342 82 342 39 q 371 154 342 125 q 443 183 400 183 q 517 154 488 183 q 546 82 546 125 z "},"A":{"ha":1117,"x_min":41,"x_max":1075,"o":"m 806 183 q 843 147 806 147 q 879 151 863 147 q 909 154 896 154 q 970 131 945 154 q 996 66 996 107 q 971 4 996 28 q 909 -20 946 -20 q 859 -11 884 -20 q 798 -3 833 -3 q 740 -11 765 -3 q 688 -20 714 -20 q 618 4 642 -20 q 595 72 595 28 q 604 125 595 97 q 626 182 614 153 q 649 241 639 211 q 659 300 659 271 q 632 380 659 346 q 558 414 606 414 q 485 380 511 414 q 458 300 458 346 q 468 241 458 271 q 490 182 478 211 q 512 125 503 153 q 522 72 522 97 q 498 4 522 28 q 429 -20 475 -20 q 377 -11 403 -20 q 319 -3 351 -3 q 258 -11 283 -3 q 207 -20 233 -20 q 146 4 171 -20 q 121 66 121 28 q 146 131 121 107 q 207 154 172 154 q 238 151 221 154 q 273 147 254 147 q 311 183 311 147 q 291 224 311 205 q 241 263 271 243 q 176 309 211 283 q 112 370 142 335 q 62 455 82 406 q 41 572 41 504 q 82 745 41 661 q 192 895 122 829 q 357 1001 262 961 q 558 1040 452 1040 q 760 1001 665 1040 q 924 895 854 961 q 1035 745 994 829 q 1075 572 1075 661 q 1055 455 1075 504 q 1005 370 1035 406 q 940 309 975 335 q 876 263 905 283 q 826 224 846 243 q 806 183 806 205 m 742 599 q 731 696 742 646 q 696 788 720 746 q 640 856 673 829 q 558 882 606 882 q 477 856 511 882 q 420 788 443 829 q 386 696 397 746 q 375 599 375 646 q 384 533 375 551 q 404 514 393 514 q 427 525 414 514 q 458 550 440 536 q 500 575 476 564 q 558 586 525 586 q 616 575 591 586 q 658 550 640 564 q 689 525 676 536 q 713 514 703 514 q 733 533 724 514 q 742 599 742 551 z "},"a":{"ha":1117,"x_min":41,"x_max":1075,"o":"m 806 183 q 843 147 806 147 q 879 151 863 147 q 909 154 896 154 q 970 131 945 154 q 996 66 996 107 q 971 4 996 28 q 909 -20 946 -20 q 859 -11 884 -20 q 798 -3 833 -3 q 740 -11 765 -3 q 688 -20 714 -20 q 618 4 642 -20 q 595 72 595 28 q 604 125 595 97 q 626 182 614 153 q 649 241 639 211 q 659 300 659 271 q 632 380 659 346 q 558 414 606 414 q 485 380 511 414 q 458 300 458 346 q 468 241 458 271 q 490 182 478 211 q 512 125 503 153 q 522 72 522 97 q 498 4 522 28 q 429 -20 475 -20 q 377 -11 403 -20 q 319 -3 351 -3 q 258 -11 283 -3 q 207 -20 233 -20 q 146 4 171 -20 q 121 66 121 28 q 146 131 121 107 q 207 154 172 154 q 238 151 221 154 q 273 147 254 147 q 311 183 311 147 q 291 224 311 205 q 241 263 271 243 q 176 309 211 283 q 112 370 142 335 q 62 455 82 406 q 41 572 41 504 q 82 745 41 661 q 192 895 122 829 q 357 1001 262 961 q 558 1040 452 1040 q 760 1001 665 1040 q 924 895 854 961 q 1035 745 994 829 q 1075 572 1075 661 q 1055 455 1075 504 q 1005 370 1035 406 q 940 309 975 335 q 876 263 905 283 q 826 224 846 243 q 806 183 806 205 m 742 599 q 731 696 742 646 q 696 788 720 746 q 640 856 673 829 q 558 882 606 882 q 477 856 511 882 q 420 788 443 829 q 386 696 397 746 q 375 599 375 646 q 384 533 375 551 q 404 514 393 514 q 427 525 414 514 q 458 550 440 536 q 500 575 476 564 q 558 586 525 586 q 616 575 591 586 q 658 550 640 564 q 689 525 676 536 q 713 514 703 514 q 733 533 724 514 q 742 599 742 551 z "},"B":{"ha":1042,"x_min":36,"x_max":1000,"o":"m 1000 323 q 969 182 1000 248 q 877 68 937 117 q 729 -8 817 20 q 529 -36 642 -36 q 387 -26 454 -36 q 262 -1 319 -17 q 159 34 204 16 q 83 68 114 52 q 42 125 49 87 q 64 232 36 163 q 123 326 94 307 q 184 329 153 345 q 206 330 200 322 q 212 363 212 338 l 212 770 q 205 806 212 790 q 179 822 197 822 q 158 819 168 822 q 132 817 149 817 q 70 838 93 817 q 47 896 47 860 q 72 958 47 936 q 131 991 97 981 q 274 1026 186 1011 q 465 1040 363 1040 q 612 1026 546 1040 q 727 985 679 1013 q 802 919 775 958 q 828 827 828 879 q 808 742 828 778 q 760 682 787 705 q 765 646 733 659 q 827 614 787 637 q 905 551 867 590 q 972 456 943 513 q 1000 323 1000 399 m 632 790 q 620 832 632 815 q 591 861 608 850 q 553 877 574 872 q 518 882 533 882 q 425 847 452 882 q 397 757 397 812 l 397 730 q 406 716 397 720 q 428 713 415 713 l 486 713 q 539 716 513 713 q 586 728 566 720 q 620 751 607 736 q 632 790 632 766 m 734 404 q 706 477 734 447 q 635 525 677 507 q 543 551 593 543 q 449 558 493 558 q 409 553 421 558 q 397 528 397 547 l 397 453 q 405 395 397 424 q 433 343 412 367 q 486 305 453 319 q 571 290 519 290 q 691 323 648 290 q 734 404 734 355 z "},"b":{"ha":1042,"x_min":36,"x_max":1000,"o":"m 1000 323 q 969 182 1000 248 q 877 68 937 117 q 729 -8 817 20 q 529 -36 642 -36 q 387 -26 454 -36 q 262 -1 319 -17 q 159 34 204 16 q 83 68 114 52 q 42 125 49 87 q 64 232 36 163 q 123 326 94 307 q 184 329 153 345 q 206 330 200 322 q 212 363 212 338 l 212 770 q 205 806 212 790 q 179 822 197 822 q 158 819 168 822 q 132 817 149 817 q 70 838 93 817 q 47 896 47 860 q 72 958 47 936 q 131 991 97 981 q 274 1026 186 1011 q 465 1040 363 1040 q 612 1026 546 1040 q 727 985 679 1013 q 802 919 775 958 q 828 827 828 879 q 808 742 828 778 q 760 682 787 705 q 765 646 733 659 q 827 614 787 637 q 905 551 867 590 q 972 456 943 513 q 1000 323 1000 399 m 632 790 q 620 832 632 815 q 591 861 608 850 q 553 877 574 872 q 518 882 533 882 q 425 847 452 882 q 397 757 397 812 l 397 730 q 406 716 397 720 q 428 713 415 713 l 486 713 q 539 716 513 713 q 586 728 566 720 q 620 751 607 736 q 632 790 632 766 m 734 404 q 706 477 734 447 q 635 525 677 507 q 543 551 593 543 q 449 558 493 558 q 409 553 421 558 q 397 528 397 547 l 397 453 q 405 395 397 424 q 433 343 412 367 q 486 305 453 319 q 571 290 519 290 q 691 323 648 290 q 734 404 734 355 z "},"C":{"ha":1038,"x_min":41,"x_max":1028,"o":"m 1010 123 q 947 67 985 96 q 858 16 909 39 q 744 -21 807 -7 q 603 -36 681 -36 q 384 3 486 -36 q 205 114 282 43 q 85 283 129 184 q 41 498 41 382 q 90 725 41 625 q 216 895 139 825 q 388 1003 293 965 q 578 1040 484 1040 q 702 1025 639 1040 q 818 979 765 1010 q 904 902 871 949 q 937 793 937 856 q 899 685 937 724 q 804 647 860 647 q 718 677 755 647 q 681 761 681 708 q 691 807 681 793 q 701 838 701 821 q 692 857 701 848 q 665 870 682 865 q 627 878 648 875 q 583 880 606 880 q 468 858 524 880 q 369 794 412 835 q 301 696 326 753 q 277 574 277 640 q 303 463 277 511 q 369 380 329 414 q 457 330 410 347 q 547 313 505 313 q 660 338 611 313 q 749 406 708 363 q 799 428 770 428 q 827 419 812 428 q 851 387 842 411 q 915 286 875 328 q 997 215 956 244 q 1024 172 1021 200 q 1010 123 1028 143 z "},"c":{"ha":1038,"x_min":41,"x_max":1028,"o":"m 1010 123 q 947 67 985 96 q 858 16 909 39 q 744 -21 807 -7 q 603 -36 681 -36 q 384 3 486 -36 q 205 114 282 43 q 85 283 129 184 q 41 498 41 382 q 90 725 41 625 q 216 895 139 825 q 388 1003 293 965 q 578 1040 484 1040 q 702 1025 639 1040 q 818 979 765 1010 q 904 902 871 949 q 937 793 937 856 q 899 685 937 724 q 804 647 860 647 q 718 677 755 647 q 681 761 681 708 q 691 807 681 793 q 701 838 701 821 q 692 857 701 848 q 665 870 682 865 q 627 878 648 875 q 583 880 606 880 q 468 858 524 880 q 369 794 412 835 q 301 696 326 753 q 277 574 277 640 q 303 463 277 511 q 369 380 329 414 q 457 330 410 347 q 547 313 505 313 q 660 338 611 313 q 749 406 708 363 q 799 428 770 428 q 827 419 812 428 q 851 387 842 411 q 915 286 875 328 q 997 215 956 244 q 1024 172 1021 200 q 1010 123 1028 143 z "},"D":{"ha":1137,"x_min":37,"x_max":1096,"o":"m 1096 496 q 1041 255 1096 355 q 901 90 986 154 q 711 -5 815 25 q 509 -36 607 -36 q 369 -27 436 -36 q 245 -2 302 -18 q 142 34 187 14 q 69 77 97 54 q 42 129 46 96 q 64 232 37 163 q 123 326 94 307 q 184 329 153 345 q 206 330 200 322 q 212 363 212 338 l 212 770 q 203 810 212 798 q 179 822 193 822 q 158 819 168 822 q 132 817 149 817 q 70 838 93 817 q 47 896 47 860 q 72 958 47 936 q 131 991 97 981 q 195 1010 158 1002 q 274 1025 232 1018 q 360 1036 315 1032 q 450 1040 406 1040 q 718 999 599 1040 q 922 885 838 958 q 1051 713 1006 812 q 1096 496 1096 614 m 828 562 q 800 692 828 633 q 727 792 771 750 q 627 858 682 835 q 519 880 572 880 q 457 870 481 880 q 421 840 433 860 q 404 793 408 821 q 400 729 400 765 l 400 473 q 409 410 400 439 q 438 359 418 380 q 491 326 458 338 q 572 314 524 314 q 665 330 619 314 q 747 377 711 346 q 806 455 783 408 q 828 562 828 501 z "},"d":{"ha":1137,"x_min":37,"x_max":1096,"o":"m 1096 496 q 1041 255 1096 355 q 901 90 986 154 q 711 -5 815 25 q 509 -36 607 -36 q 369 -27 436 -36 q 245 -2 302 -18 q 142 34 187 14 q 69 77 97 54 q 42 129 46 96 q 64 232 37 163 q 123 326 94 307 q 184 329 153 345 q 206 330 200 322 q 212 363 212 338 l 212 770 q 203 810 212 798 q 179 822 193 822 q 158 819 168 822 q 132 817 149 817 q 70 838 93 817 q 47 896 47 860 q 72 958 47 936 q 131 991 97 981 q 195 1010 158 1002 q 274 1025 232 1018 q 360 1036 315 1032 q 450 1040 406 1040 q 718 999 599 1040 q 922 885 838 958 q 1051 713 1006 812 q 1096 496 1096 614 m 828 562 q 800 692 828 633 q 727 792 771 750 q 627 858 682 835 q 519 880 572 880 q 457 870 481 880 q 421 840 433 860 q 404 793 408 821 q 400 729 400 765 l 400 473 q 409 410 400 439 q 438 359 418 380 q 491 326 458 338 q 572 314 524 314 q 665 330 619 314 q 747 377 711 346 q 806 455 783 408 q 828 562 828 501 z "},"E":{"ha":982,"x_min":41,"x_max":940,"o":"m 229 811 q 221 849 229 839 q 199 859 212 859 q 174 857 186 859 q 149 856 163 856 q 90 879 115 856 q 64 942 64 901 q 89 1004 64 979 q 154 1029 114 1029 q 204 1026 171 1029 q 283 1020 237 1023 q 384 1014 329 1017 q 497 1011 439 1011 q 615 1014 568 1011 q 696 1020 663 1017 q 753 1026 729 1023 q 800 1029 777 1029 q 865 1008 840 1029 q 890 947 890 987 q 885 906 890 928 q 880 856 880 884 q 886 809 880 828 q 892 766 892 790 q 862 696 892 722 q 794 669 832 669 q 722 694 751 669 q 692 762 692 718 q 696 791 692 774 q 700 823 700 808 q 694 844 700 836 q 671 852 688 852 l 490 852 q 454 850 468 852 q 432 842 440 848 q 420 820 424 835 q 416 777 416 804 l 416 755 q 419 709 416 726 q 429 683 422 692 q 449 671 436 673 q 481 668 461 668 q 537 672 509 668 q 593 676 566 676 q 622 671 607 676 q 650 655 637 665 q 671 628 663 644 q 679 590 679 611 q 671 552 679 568 q 650 525 663 536 q 622 508 637 514 q 593 503 607 503 q 540 506 568 503 q 488 510 511 510 q 435 491 453 510 q 416 429 416 472 q 418 385 416 403 q 426 356 419 367 q 448 341 433 346 q 490 336 463 336 l 690 336 q 712 345 705 336 q 718 366 718 353 q 714 396 718 382 q 710 431 710 410 q 742 514 710 482 q 822 546 774 546 q 902 514 868 546 q 936 418 936 482 q 926 344 936 382 q 916 258 916 306 q 928 142 916 186 q 940 75 940 98 q 911 3 940 26 q 846 -20 882 -20 q 794 -17 821 -20 q 734 -9 768 -14 q 655 -3 700 -5 q 550 0 611 0 q 421 -3 476 0 q 322 -9 366 -5 q 248 -17 279 -14 q 193 -20 216 -20 q 41 186 41 -20 q 54 268 41 236 q 85 319 66 300 q 124 345 103 338 q 160 353 144 353 q 182 349 172 353 q 207 345 192 345 q 224 358 220 345 q 229 393 229 371 l 229 811 z "},"e":{"ha":982,"x_min":41,"x_max":940,"o":"m 229 811 q 221 849 229 839 q 199 859 212 859 q 174 857 186 859 q 149 856 163 856 q 90 879 115 856 q 64 942 64 901 q 89 1004 64 979 q 154 1029 114 1029 q 204 1026 171 1029 q 283 1020 237 1023 q 384 1014 329 1017 q 497 1011 439 1011 q 615 1014 568 1011 q 696 1020 663 1017 q 753 1026 729 1023 q 800 1029 777 1029 q 865 1008 840 1029 q 890 947 890 987 q 885 906 890 928 q 880 856 880 884 q 886 809 880 828 q 892 766 892 790 q 862 696 892 722 q 794 669 832 669 q 722 694 751 669 q 692 762 692 718 q 696 791 692 774 q 700 823 700 808 q 694 844 700 836 q 671 852 688 852 l 490 852 q 454 850 468 852 q 432 842 440 848 q 420 820 424 835 q 416 777 416 804 l 416 755 q 419 709 416 726 q 429 683 422 692 q 449 671 436 673 q 481 668 461 668 q 537 672 509 668 q 593 676 566 676 q 622 671 607 676 q 650 655 637 665 q 671 628 663 644 q 679 590 679 611 q 671 552 679 568 q 650 525 663 536 q 622 508 637 514 q 593 503 607 503 q 540 506 568 503 q 488 510 511 510 q 435 491 453 510 q 416 429 416 472 q 418 385 416 403 q 426 356 419 367 q 448 341 433 346 q 490 336 463 336 l 690 336 q 712 345 705 336 q 718 366 718 353 q 714 396 718 382 q 710 431 710 410 q 742 514 710 482 q 822 546 774 546 q 902 514 868 546 q 936 418 936 482 q 926 344 936 382 q 916 258 916 306 q 928 142 916 186 q 940 75 940 98 q 911 3 940 26 q 846 -20 882 -20 q 794 -17 821 -20 q 734 -9 768 -14 q 655 -3 700 -5 q 550 0 611 0 q 421 -3 476 0 q 322 -9 366 -5 q 248 -17 279 -14 q 193 -20 216 -20 q 41 186 41 -20 q 54 268 41 236 q 85 319 66 300 q 124 345 103 338 q 160 353 144 353 q 182 349 172 353 q 207 345 192 345 q 224 358 220 345 q 229 393 229 371 l 229 811 z "},"F":{"ha":900,"x_min":41,"x_max":872,"o":"m 416 393 q 421 358 416 371 q 439 345 427 345 q 463 349 452 345 q 486 353 475 353 q 522 345 501 353 q 561 319 543 338 q 592 268 579 300 q 604 186 604 236 q 453 -20 604 -20 q 386 -11 416 -20 q 319 -1 355 -1 q 259 -11 289 -1 q 193 -20 229 -20 q 41 186 41 -20 q 54 268 41 236 q 85 319 66 300 q 124 345 103 338 q 160 353 144 353 q 182 349 172 353 q 207 345 192 345 q 224 358 220 345 q 229 393 229 371 l 229 811 q 221 849 229 839 q 199 859 212 859 q 174 857 186 859 q 149 856 163 856 q 90 879 115 856 q 64 942 64 901 q 89 1004 64 979 q 154 1029 114 1029 q 204 1026 171 1029 q 283 1020 237 1023 q 384 1014 329 1017 q 497 1011 439 1011 q 609 1014 566 1011 q 684 1020 653 1017 q 735 1026 714 1023 q 781 1029 757 1029 q 846 1008 821 1029 q 871 947 871 987 q 866 906 871 928 q 861 856 861 884 q 867 809 861 828 q 872 766 872 790 q 842 696 872 722 q 775 669 812 669 q 702 694 732 669 q 672 762 672 718 q 676 791 672 774 q 681 823 681 808 q 674 844 681 836 q 652 852 668 852 l 490 852 q 454 850 468 852 q 432 842 440 848 q 420 820 424 835 q 416 777 416 804 l 416 755 q 428 683 416 699 q 479 668 440 668 q 522 672 497 668 q 574 676 547 676 q 602 671 586 676 q 631 655 618 667 q 653 628 644 644 q 663 589 663 612 q 634 524 663 549 q 572 500 606 500 q 522 505 545 500 q 479 510 500 510 q 430 491 443 510 q 416 429 416 472 l 416 393 z "},"f":{"ha":900,"x_min":41,"x_max":872,"o":"m 416 393 q 421 358 416 371 q 439 345 427 345 q 463 349 452 345 q 486 353 475 353 q 522 345 501 353 q 561 319 543 338 q 592 268 579 300 q 604 186 604 236 q 453 -20 604 -20 q 386 -11 416 -20 q 319 -1 355 -1 q 259 -11 289 -1 q 193 -20 229 -20 q 41 186 41 -20 q 54 268 41 236 q 85 319 66 300 q 124 345 103 338 q 160 353 144 353 q 182 349 172 353 q 207 345 192 345 q 224 358 220 345 q 229 393 229 371 l 229 811 q 221 849 229 839 q 199 859 212 859 q 174 857 186 859 q 149 856 163 856 q 90 879 115 856 q 64 942 64 901 q 89 1004 64 979 q 154 1029 114 1029 q 204 1026 171 1029 q 283 1020 237 1023 q 384 1014 329 1017 q 497 1011 439 1011 q 609 1014 566 1011 q 684 1020 653 1017 q 735 1026 714 1023 q 781 1029 757 1029 q 846 1008 821 1029 q 871 947 871 987 q 866 906 871 928 q 861 856 861 884 q 867 809 861 828 q 872 766 872 790 q 842 696 872 722 q 775 669 812 669 q 702 694 732 669 q 672 762 672 718 q 676 791 672 774 q 681 823 681 808 q 674 844 681 836 q 652 852 668 852 l 490 852 q 454 850 468 852 q 432 842 440 848 q 420 820 424 835 q 416 777 416 804 l 416 755 q 428 683 416 699 q 479 668 440 668 q 522 672 497 668 q 574 676 547 676 q 602 671 586 676 q 631 655 618 667 q 653 628 644 644 q 663 589 663 612 q 634 524 663 549 q 572 500 606 500 q 522 505 545 500 q 479 510 500 510 q 430 491 443 510 q 416 429 416 472 l 416 393 z "},"G":{"ha":1131,"x_min":41,"x_max":1103,"o":"m 547 313 q 620 320 589 313 q 673 339 652 328 q 708 361 694 350 q 726 380 721 372 q 735 407 736 392 q 715 421 734 421 q 692 418 701 421 q 667 415 684 415 q 608 438 633 415 q 582 501 582 461 q 607 564 582 539 q 672 589 632 589 q 741 581 700 589 q 843 572 782 572 q 942 581 896 572 q 1013 589 989 589 q 1078 564 1053 589 q 1103 501 1103 539 q 1077 438 1103 461 q 1018 415 1051 415 q 992 416 1003 415 q 971 418 982 418 q 945 407 956 418 q 935 361 935 396 q 948 278 935 311 q 999 211 962 244 q 1023 162 1025 187 q 999 114 1022 136 q 928 58 968 85 q 838 10 888 31 q 728 -23 787 -11 q 603 -36 669 -36 q 384 3 486 -36 q 205 114 282 43 q 85 283 129 184 q 41 498 41 382 q 90 725 41 625 q 216 895 139 825 q 388 1003 293 965 q 578 1040 484 1040 q 702 1025 639 1040 q 818 979 765 1010 q 904 902 871 949 q 937 793 937 856 q 899 685 937 724 q 804 647 860 647 q 718 677 755 647 q 681 761 681 708 q 691 807 681 793 q 701 838 701 821 q 692 857 701 848 q 665 870 682 865 q 627 878 648 875 q 583 880 606 880 q 468 858 524 880 q 369 794 412 835 q 301 696 326 753 q 277 574 277 640 q 303 463 277 511 q 369 380 329 414 q 457 330 410 347 q 547 313 505 313 z "},"g":{"ha":1131,"x_min":41,"x_max":1103,"o":"m 547 313 q 620 320 589 313 q 673 339 652 328 q 708 361 694 350 q 726 380 721 372 q 735 407 736 392 q 715 421 734 421 q 692 418 701 421 q 667 415 684 415 q 608 438 633 415 q 582 501 582 461 q 607 564 582 539 q 672 589 632 589 q 741 581 700 589 q 843 572 782 572 q 942 581 896 572 q 1013 589 989 589 q 1078 564 1053 589 q 1103 501 1103 539 q 1077 438 1103 461 q 1018 415 1051 415 q 992 416 1003 415 q 971 418 982 418 q 945 407 956 418 q 935 361 935 396 q 948 278 935 311 q 999 211 962 244 q 1023 162 1025 187 q 999 114 1022 136 q 928 58 968 85 q 838 10 888 31 q 728 -23 787 -11 q 603 -36 669 -36 q 384 3 486 -36 q 205 114 282 43 q 85 283 129 184 q 41 498 41 382 q 90 725 41 625 q 216 895 139 825 q 388 1003 293 965 q 578 1040 484 1040 q 702 1025 639 1040 q 818 979 765 1010 q 904 902 871 949 q 937 793 937 856 q 899 685 937 724 q 804 647 860 647 q 718 677 755 647 q 681 761 681 708 q 691 807 681 793 q 701 838 701 821 q 692 857 701 848 q 665 870 682 865 q 627 878 648 875 q 583 880 606 880 q 468 858 524 880 q 369 794 412 835 q 301 696 326 753 q 277 574 277 640 q 303 463 277 511 q 369 380 329 414 q 457 330 410 347 q 547 313 505 313 z "},"H":{"ha":1196,"x_min":41,"x_max":1154,"o":"m 989 200 q 995 166 989 180 q 1019 151 1000 151 q 1042 153 1029 151 q 1069 154 1054 154 q 1128 131 1103 154 q 1154 68 1154 109 q 1129 5 1154 31 q 1064 -20 1104 -20 q 1036 -17 1054 -20 q 995 -11 1018 -14 q 947 -5 972 -8 q 899 -3 922 -3 q 795 -11 836 -3 q 726 -20 754 -20 q 661 5 686 -20 q 636 68 636 31 q 662 131 636 109 q 721 154 688 154 q 746 153 734 154 q 771 151 758 151 q 793 161 785 151 q 802 199 802 171 q 788 267 802 233 q 747 328 774 301 q 682 371 720 354 q 597 387 644 387 q 512 371 550 387 q 448 327 473 354 q 409 266 422 300 q 395 197 395 232 q 400 165 395 179 q 425 151 406 151 q 447 153 435 151 q 475 154 460 154 q 534 131 509 154 q 559 68 559 109 q 535 5 559 31 q 469 -20 510 -20 q 442 -17 460 -20 q 401 -11 424 -14 q 353 -5 378 -8 q 304 -3 328 -3 q 201 -11 241 -3 q 132 -20 160 -20 q 66 5 92 -20 q 41 68 41 31 q 67 131 41 109 q 126 154 93 154 q 152 153 140 154 q 176 151 164 151 q 199 161 191 151 q 207 199 207 171 l 207 811 q 199 849 207 839 q 176 859 191 859 q 152 857 164 859 q 126 856 140 856 q 67 879 93 856 q 41 942 41 901 q 66 1004 41 979 q 132 1029 92 1029 q 201 1021 160 1029 q 304 1013 241 1013 q 353 1015 328 1013 q 401 1021 378 1018 q 442 1026 424 1023 q 469 1029 460 1029 q 535 1004 510 1029 q 559 942 559 979 q 534 879 559 901 q 475 856 509 856 q 447 857 460 856 q 425 859 435 859 q 400 844 406 859 q 395 810 395 829 l 395 654 q 403 634 395 639 q 421 648 411 629 q 447 694 431 669 q 485 740 463 718 q 535 777 507 762 q 597 791 564 791 q 656 779 629 791 q 706 746 684 766 q 746 699 728 725 q 778 647 764 673 q 793 633 785 632 q 802 650 802 635 l 802 811 q 793 849 802 839 q 771 859 785 859 q 746 857 758 859 q 721 856 734 856 q 662 879 688 856 q 636 942 636 901 q 661 1004 636 979 q 726 1029 686 1029 q 795 1021 754 1029 q 899 1013 836 1013 q 947 1015 922 1013 q 995 1021 972 1018 q 1036 1026 1018 1023 q 1064 1029 1054 1029 q 1129 1004 1104 1029 q 1154 942 1154 979 q 1128 879 1154 901 q 1069 856 1103 856 q 1042 857 1054 856 q 1019 859 1029 859 q 995 844 1000 859 q 989 810 989 829 l 989 200 z "},"h":{"ha":1196,"x_min":41,"x_max":1154,"o":"m 989 200 q 995 166 989 180 q 1019 151 1000 151 q 1042 153 1029 151 q 1069 154 1054 154 q 1128 131 1103 154 q 1154 68 1154 109 q 1129 5 1154 31 q 1064 -20 1104 -20 q 1036 -17 1054 -20 q 995 -11 1018 -14 q 947 -5 972 -8 q 899 -3 922 -3 q 795 -11 836 -3 q 726 -20 754 -20 q 661 5 686 -20 q 636 68 636 31 q 662 131 636 109 q 721 154 688 154 q 746 153 734 154 q 771 151 758 151 q 793 161 785 151 q 802 199 802 171 q 788 267 802 233 q 747 328 774 301 q 682 371 720 354 q 597 387 644 387 q 512 371 550 387 q 448 327 473 354 q 409 266 422 300 q 395 197 395 232 q 400 165 395 179 q 425 151 406 151 q 447 153 435 151 q 475 154 460 154 q 534 131 509 154 q 559 68 559 109 q 535 5 559 31 q 469 -20 510 -20 q 442 -17 460 -20 q 401 -11 424 -14 q 353 -5 378 -8 q 304 -3 328 -3 q 201 -11 241 -3 q 132 -20 160 -20 q 66 5 92 -20 q 41 68 41 31 q 67 131 41 109 q 126 154 93 154 q 152 153 140 154 q 176 151 164 151 q 199 161 191 151 q 207 199 207 171 l 207 811 q 199 849 207 839 q 176 859 191 859 q 152 857 164 859 q 126 856 140 856 q 67 879 93 856 q 41 942 41 901 q 66 1004 41 979 q 132 1029 92 1029 q 201 1021 160 1029 q 304 1013 241 1013 q 353 1015 328 1013 q 401 1021 378 1018 q 442 1026 424 1023 q 469 1029 460 1029 q 535 1004 510 1029 q 559 942 559 979 q 534 879 559 901 q 475 856 509 856 q 447 857 460 856 q 425 859 435 859 q 400 844 406 859 q 395 810 395 829 l 395 654 q 403 634 395 639 q 421 648 411 629 q 447 694 431 669 q 485 740 463 718 q 535 777 507 762 q 597 791 564 791 q 656 779 629 791 q 706 746 684 766 q 746 699 728 725 q 778 647 764 673 q 793 633 785 632 q 802 650 802 635 l 802 811 q 793 849 802 839 q 771 859 785 859 q 746 857 758 859 q 721 856 734 856 q 662 879 688 856 q 636 942 636 901 q 661 1004 636 979 q 726 1029 686 1029 q 795 1021 754 1029 q 899 1013 836 1013 q 947 1015 922 1013 q 995 1021 972 1018 q 1036 1026 1018 1023 q 1064 1029 1054 1029 q 1129 1004 1104 1029 q 1154 942 1154 979 q 1128 879 1154 901 q 1069 856 1103 856 q 1042 857 1054 856 q 1019 859 1029 859 q 995 844 1000 859 q 989 810 989 829 l 989 200 z "},"I":{"ha":646,"x_min":41,"x_max":604,"o":"m 604 186 q 453 -20 604 -20 q 385 -10 416 -20 q 323 0 353 0 q 261 -10 293 0 q 193 -20 229 -20 q 41 186 41 -20 q 54 268 41 236 q 85 319 66 300 q 124 345 103 338 q 160 353 144 353 q 182 349 172 353 q 207 345 192 345 q 224 358 220 345 q 229 393 229 371 l 229 811 q 221 849 229 839 q 199 859 212 859 q 174 857 186 859 q 149 856 163 856 q 90 879 115 856 q 64 942 64 901 q 89 1004 64 979 q 154 1029 114 1029 q 223 1021 182 1029 q 326 1013 264 1013 q 375 1015 350 1013 q 423 1021 400 1018 q 464 1026 446 1023 q 492 1029 482 1029 q 557 1004 532 1029 q 582 942 582 979 q 556 879 582 901 q 497 856 530 856 q 470 857 482 856 q 447 859 457 859 q 422 844 428 859 q 416 810 416 829 l 416 393 q 421 358 416 371 q 439 345 427 345 q 463 349 452 345 q 486 353 475 353 q 522 345 501 353 q 561 319 543 338 q 592 268 579 300 q 604 186 604 236 z "},"i":{"ha":646,"x_min":41,"x_max":604,"o":"m 604 186 q 453 -20 604 -20 q 385 -10 416 -20 q 323 0 353 0 q 261 -10 293 0 q 193 -20 229 -20 q 41 186 41 -20 q 54 268 41 236 q 85 319 66 300 q 124 345 103 338 q 160 353 144 353 q 182 349 172 353 q 207 345 192 345 q 224 358 220 345 q 229 393 229 371 l 229 811 q 221 849 229 839 q 199 859 212 859 q 174 857 186 859 q 149 856 163 856 q 90 879 115 856 q 64 942 64 901 q 89 1004 64 979 q 154 1029 114 1029 q 223 1021 182 1029 q 326 1013 264 1013 q 375 1015 350 1013 q 423 1021 400 1018 q 464 1026 446 1023 q 492 1029 482 1029 q 557 1004 532 1029 q 582 942 582 979 q 556 879 582 901 q 497 856 530 856 q 470 857 482 856 q 447 859 457 859 q 422 844 428 859 q 416 810 416 829 l 416 393 q 421 358 416 371 q 439 345 427 345 q 463 349 452 345 q 486 353 475 353 q 522 345 501 353 q 561 319 543 338 q 592 268 579 300 q 604 186 604 236 z "},"J":{"ha":783,"x_min":41,"x_max":742,"o":"m 576 557 q 581 454 576 498 q 592 372 586 410 q 602 301 597 335 q 607 232 607 268 q 588 124 607 174 q 533 38 568 74 q 446 -17 497 3 q 329 -37 395 -37 q 210 -15 264 -37 q 119 44 157 7 q 62 133 82 82 q 41 241 41 183 q 53 325 41 286 q 83 393 64 364 q 128 440 103 422 q 179 457 153 457 q 216 439 207 457 q 225 397 225 421 q 247 339 225 368 q 315 310 268 310 q 366 331 343 310 q 389 403 389 353 l 389 811 q 380 849 389 839 q 358 859 372 859 q 334 857 346 859 q 309 856 322 856 q 250 879 275 856 q 224 942 224 901 q 249 1004 224 979 q 314 1029 273 1029 q 383 1021 342 1029 q 486 1013 424 1013 q 535 1015 510 1013 q 583 1021 559 1018 q 624 1026 606 1023 q 652 1029 642 1029 q 717 1004 692 1029 q 742 942 742 979 q 716 879 742 901 q 657 856 690 856 q 629 857 642 856 q 607 859 616 859 q 582 844 587 859 q 576 810 576 829 l 576 557 z "},"j":{"ha":783,"x_min":41,"x_max":742,"o":"m 576 557 q 581 454 576 498 q 592 372 586 410 q 602 301 597 335 q 607 232 607 268 q 588 124 607 174 q 533 38 568 74 q 446 -17 497 3 q 329 -37 395 -37 q 210 -15 264 -37 q 119 44 157 7 q 62 133 82 82 q 41 241 41 183 q 53 325 41 286 q 83 393 64 364 q 128 440 103 422 q 179 457 153 457 q 216 439 207 457 q 225 397 225 421 q 247 339 225 368 q 315 310 268 310 q 366 331 343 310 q 389 403 389 353 l 389 811 q 380 849 389 839 q 358 859 372 859 q 334 857 346 859 q 309 856 322 856 q 250 879 275 856 q 224 942 224 901 q 249 1004 224 979 q 314 1029 273 1029 q 383 1021 342 1029 q 486 1013 424 1013 q 535 1015 510 1013 q 583 1021 559 1018 q 624 1026 606 1023 q 652 1029 642 1029 q 717 1004 692 1029 q 742 942 742 979 q 716 879 742 901 q 657 856 690 856 q 629 857 642 856 q 607 859 616 859 q 582 844 587 859 q 576 810 576 829 l 576 557 z "},"K":{"ha":1161,"x_min":41,"x_max":1120,"o":"m 395 553 q 403 535 395 538 q 425 549 411 533 q 474 601 437 562 q 554 684 511 639 q 638 773 597 729 q 701 839 679 817 q 710 850 708 846 q 711 857 711 854 q 696 868 711 868 q 649 888 672 868 q 627 945 627 908 q 654 1006 627 983 q 717 1029 681 1029 q 779 1021 749 1029 q 861 1013 810 1013 q 938 1021 901 1013 q 1003 1029 975 1029 q 1068 1004 1043 1029 q 1093 942 1093 979 q 1067 879 1093 901 q 1008 856 1042 856 q 983 857 994 856 q 964 859 971 859 q 940 853 949 859 q 917 835 930 847 q 854 769 895 811 q 772 683 814 726 q 695 601 730 639 q 644 549 660 564 q 633 526 629 533 q 664 510 637 519 q 783 443 736 484 q 867 350 831 403 q 905 311 886 322 q 946 300 924 300 q 988 314 974 300 q 1014 345 1003 328 q 1035 376 1025 363 q 1064 390 1046 390 q 1082 385 1072 390 q 1100 366 1092 379 q 1114 330 1108 353 q 1120 273 1120 307 q 1103 173 1120 225 q 1053 78 1086 121 q 971 8 1019 36 q 860 -20 922 -20 q 738 13 790 -20 q 647 95 686 45 q 583 207 608 144 q 542 330 557 269 q 506 394 529 379 q 461 408 484 408 q 411 382 428 408 q 395 313 395 357 l 395 200 q 400 166 395 180 q 425 151 406 151 q 447 153 435 151 q 475 154 460 154 q 534 131 509 154 q 559 68 559 109 q 535 5 559 31 q 469 -20 510 -20 q 442 -17 460 -20 q 401 -11 424 -14 q 353 -5 378 -8 q 304 -3 328 -3 q 201 -11 241 -3 q 132 -20 160 -20 q 66 5 92 -20 q 41 68 41 31 q 67 131 41 109 q 126 154 93 154 q 152 153 140 154 q 176 151 164 151 q 199 161 191 151 q 207 199 207 171 l 207 811 q 199 849 207 839 q 176 859 191 859 q 152 857 164 859 q 126 856 140 856 q 67 879 93 856 q 41 942 41 901 q 66 1004 41 979 q 132 1029 92 1029 q 201 1021 160 1029 q 304 1013 241 1013 q 353 1015 328 1013 q 401 1021 378 1018 q 442 1026 424 1023 q 469 1029 460 1029 q 535 1004 510 1029 q 559 942 559 979 q 534 879 559 901 q 475 856 509 856 q 447 857 460 856 q 425 859 435 859 q 400 844 406 859 q 395 810 395 829 l 395 553 z "},"k":{"ha":1161,"x_min":41,"x_max":1120,"o":"m 395 553 q 403 535 395 538 q 425 549 411 533 q 474 601 437 562 q 554 684 511 639 q 638 773 597 729 q 701 839 679 817 q 710 850 708 846 q 711 857 711 854 q 696 868 711 868 q 649 888 672 868 q 627 945 627 908 q 654 1006 627 983 q 717 1029 681 1029 q 779 1021 749 1029 q 861 1013 810 1013 q 938 1021 901 1013 q 1003 1029 975 1029 q 1068 1004 1043 1029 q 1093 942 1093 979 q 1067 879 1093 901 q 1008 856 1042 856 q 983 857 994 856 q 964 859 971 859 q 940 853 949 859 q 917 835 930 847 q 854 769 895 811 q 772 683 814 726 q 695 601 730 639 q 644 549 660 564 q 633 526 629 533 q 664 510 637 519 q 783 443 736 484 q 867 350 831 403 q 905 311 886 322 q 946 300 924 300 q 988 314 974 300 q 1014 345 1003 328 q 1035 376 1025 363 q 1064 390 1046 390 q 1082 385 1072 390 q 1100 366 1092 379 q 1114 330 1108 353 q 1120 273 1120 307 q 1103 173 1120 225 q 1053 78 1086 121 q 971 8 1019 36 q 860 -20 922 -20 q 738 13 790 -20 q 647 95 686 45 q 583 207 608 144 q 542 330 557 269 q 506 394 529 379 q 461 408 484 408 q 411 382 428 408 q 395 313 395 357 l 395 200 q 400 166 395 180 q 425 151 406 151 q 447 153 435 151 q 475 154 460 154 q 534 131 509 154 q 559 68 559 109 q 535 5 559 31 q 469 -20 510 -20 q 442 -17 460 -20 q 401 -11 424 -14 q 353 -5 378 -8 q 304 -3 328 -3 q 201 -11 241 -3 q 132 -20 160 -20 q 66 5 92 -20 q 41 68 41 31 q 67 131 41 109 q 126 154 93 154 q 152 153 140 154 q 176 151 164 151 q 199 161 191 151 q 207 199 207 171 l 207 811 q 199 849 207 839 q 176 859 191 859 q 152 857 164 859 q 126 856 140 856 q 67 879 93 856 q 41 942 41 901 q 66 1004 41 979 q 132 1029 92 1029 q 201 1021 160 1029 q 304 1013 241 1013 q 353 1015 328 1013 q 401 1021 378 1018 q 442 1026 424 1023 q 469 1029 460 1029 q 535 1004 510 1029 q 559 942 559 979 q 534 879 559 901 q 475 856 509 856 q 447 857 460 856 q 425 859 435 859 q 400 844 406 859 q 395 810 395 829 l 395 553 z "},"L":{"ha":869,"x_min":41,"x_max":828,"o":"m 416 429 q 418 385 416 403 q 426 356 419 367 q 448 341 433 346 q 490 336 463 336 l 578 336 q 599 345 593 336 q 606 366 606 353 q 602 396 606 382 q 597 431 597 410 q 629 514 597 482 q 710 546 661 546 q 789 514 755 546 q 823 418 823 482 q 813 344 823 382 q 803 258 803 306 q 815 142 803 186 q 828 75 828 98 q 799 3 828 26 q 733 -20 770 -20 q 683 -17 708 -20 q 626 -9 657 -14 q 556 -3 595 -5 q 467 0 517 0 q 371 -3 411 0 q 298 -9 330 -5 q 241 -17 267 -14 q 193 -20 216 -20 q 41 186 41 -20 q 54 268 41 236 q 85 319 66 300 q 124 345 103 338 q 160 353 144 353 q 182 349 172 353 q 207 345 192 345 q 224 358 220 345 q 229 393 229 371 l 229 811 q 221 849 229 839 q 199 859 212 859 q 174 857 186 859 q 149 856 163 856 q 90 879 115 856 q 64 942 64 901 q 89 1004 64 979 q 154 1029 114 1029 q 223 1021 182 1029 q 326 1013 264 1013 q 375 1015 350 1013 q 423 1021 400 1018 q 464 1026 446 1023 q 492 1029 482 1029 q 557 1004 532 1029 q 582 942 582 979 q 556 879 582 901 q 497 856 530 856 q 470 857 482 856 q 447 859 457 859 q 422 844 428 859 q 416 810 416 829 l 416 429 z "},"l":{"ha":869,"x_min":41,"x_max":828,"o":"m 416 429 q 418 385 416 403 q 426 356 419 367 q 448 341 433 346 q 490 336 463 336 l 578 336 q 599 345 593 336 q 606 366 606 353 q 602 396 606 382 q 597 431 597 410 q 629 514 597 482 q 710 546 661 546 q 789 514 755 546 q 823 418 823 482 q 813 344 823 382 q 803 258 803 306 q 815 142 803 186 q 828 75 828 98 q 799 3 828 26 q 733 -20 770 -20 q 683 -17 708 -20 q 626 -9 657 -14 q 556 -3 595 -5 q 467 0 517 0 q 371 -3 411 0 q 298 -9 330 -5 q 241 -17 267 -14 q 193 -20 216 -20 q 41 186 41 -20 q 54 268 41 236 q 85 319 66 300 q 124 345 103 338 q 160 353 144 353 q 182 349 172 353 q 207 345 192 345 q 224 358 220 345 q 229 393 229 371 l 229 811 q 221 849 229 839 q 199 859 212 859 q 174 857 186 859 q 149 856 163 856 q 90 879 115 856 q 64 942 64 901 q 89 1004 64 979 q 154 1029 114 1029 q 223 1021 182 1029 q 326 1013 264 1013 q 375 1015 350 1013 q 423 1021 400 1018 q 464 1026 446 1023 q 492 1029 482 1029 q 557 1004 532 1029 q 582 942 582 979 q 556 879 582 901 q 497 856 530 856 q 470 857 482 856 q 447 859 457 859 q 422 844 428 859 q 416 810 416 829 l 416 429 z "},"M":{"ha":1270,"x_min":41,"x_max":1227,"o":"m 1207 66 q 1182 3 1207 26 q 1121 -20 1157 -20 q 1042 -11 1084 -20 q 954 -3 1000 -3 q 877 -11 918 -3 q 798 -20 836 -20 q 757 -13 779 -20 q 716 8 734 -7 q 685 47 697 22 q 672 109 672 72 q 689 188 672 150 q 731 262 705 227 q 786 335 757 298 q 841 413 815 372 q 883 498 867 453 q 900 596 900 543 q 887 682 900 640 q 858 758 875 724 q 822 817 840 793 q 791 851 804 842 q 746 864 766 872 q 725 831 725 856 l 725 612 q 702 544 725 574 q 635 514 679 514 q 567 544 590 514 q 545 612 545 574 l 545 831 q 524 864 545 856 q 478 851 503 872 q 447 817 465 842 q 412 758 429 793 q 382 682 395 724 q 370 596 370 640 q 386 497 370 542 q 429 413 403 453 q 484 335 454 372 q 538 262 513 298 q 581 189 564 227 q 597 109 597 151 q 585 47 597 72 q 553 8 572 22 q 513 -13 534 -7 q 472 -20 492 -20 q 392 -11 433 -20 q 315 -3 351 -3 q 227 -11 269 -3 q 149 -20 184 -20 q 87 3 113 -20 q 62 66 62 26 q 88 131 62 107 q 149 154 114 154 q 176 152 163 154 q 201 150 189 150 q 224 164 220 150 q 208 189 229 178 q 151 227 180 204 q 98 279 122 249 q 58 345 74 309 q 41 428 41 382 q 70 562 41 500 q 136 673 98 624 q 212 760 174 722 q 271 821 250 798 q 283 853 288 840 q 262 867 279 867 q 233 863 252 867 q 199 859 214 859 q 169 863 184 859 q 141 877 154 867 q 121 902 129 886 q 113 942 113 918 q 138 1004 113 979 q 203 1029 163 1029 q 270 1021 227 1029 q 358 1013 313 1013 q 433 1021 403 1013 q 492 1029 463 1029 q 563 1010 533 1029 q 619 958 593 990 q 635 950 627 950 q 650 958 643 950 q 706 1010 676 990 q 778 1029 736 1029 q 837 1021 807 1029 q 911 1013 867 1013 q 1000 1021 957 1013 q 1067 1029 1043 1029 q 1132 1004 1107 1029 q 1157 942 1157 979 q 1148 902 1157 918 q 1128 877 1140 886 q 1100 863 1116 867 q 1071 859 1084 859 q 1037 863 1055 859 q 1007 867 1018 867 q 986 853 990 867 q 999 821 982 840 q 1058 760 1019 798 q 1133 673 1096 722 q 1199 562 1171 624 q 1227 428 1227 500 q 1212 345 1227 382 q 1172 279 1196 309 q 1118 227 1147 249 q 1061 189 1089 204 q 1045 164 1040 178 q 1068 150 1050 150 q 1094 152 1080 150 q 1121 154 1107 154 q 1181 131 1156 154 q 1207 66 1207 107 z "},"m":{"ha":1270,"x_min":41,"x_max":1227,"o":"m 1207 66 q 1182 3 1207 26 q 1121 -20 1157 -20 q 1042 -11 1084 -20 q 954 -3 1000 -3 q 877 -11 918 -3 q 798 -20 836 -20 q 757 -13 779 -20 q 716 8 734 -7 q 685 47 697 22 q 672 109 672 72 q 689 188 672 150 q 731 262 705 227 q 786 335 757 298 q 841 413 815 372 q 883 498 867 453 q 900 596 900 543 q 887 682 900 640 q 858 758 875 724 q 822 817 840 793 q 791 851 804 842 q 746 864 766 872 q 725 831 725 856 l 725 612 q 702 544 725 574 q 635 514 679 514 q 567 544 590 514 q 545 612 545 574 l 545 831 q 524 864 545 856 q 478 851 503 872 q 447 817 465 842 q 412 758 429 793 q 382 682 395 724 q 370 596 370 640 q 386 497 370 542 q 429 413 403 453 q 484 335 454 372 q 538 262 513 298 q 581 189 564 227 q 597 109 597 151 q 585 47 597 72 q 553 8 572 22 q 513 -13 534 -7 q 472 -20 492 -20 q 392 -11 433 -20 q 315 -3 351 -3 q 227 -11 269 -3 q 149 -20 184 -20 q 87 3 113 -20 q 62 66 62 26 q 88 131 62 107 q 149 154 114 154 q 176 152 163 154 q 201 150 189 150 q 224 164 220 150 q 208 189 229 178 q 151 227 180 204 q 98 279 122 249 q 58 345 74 309 q 41 428 41 382 q 70 562 41 500 q 136 673 98 624 q 212 760 174 722 q 271 821 250 798 q 283 853 288 840 q 262 867 279 867 q 233 863 252 867 q 199 859 214 859 q 169 863 184 859 q 141 877 154 867 q 121 902 129 886 q 113 942 113 918 q 138 1004 113 979 q 203 1029 163 1029 q 270 1021 227 1029 q 358 1013 313 1013 q 433 1021 403 1013 q 492 1029 463 1029 q 563 1010 533 1029 q 619 958 593 990 q 635 950 627 950 q 650 958 643 950 q 706 1010 676 990 q 778 1029 736 1029 q 837 1021 807 1029 q 911 1013 867 1013 q 1000 1021 957 1013 q 1067 1029 1043 1029 q 1132 1004 1107 1029 q 1157 942 1157 979 q 1148 902 1157 918 q 1128 877 1140 886 q 1100 863 1116 867 q 1071 859 1084 859 q 1037 863 1055 859 q 1007 867 1018 867 q 986 853 990 867 q 999 821 982 840 q 1058 760 1019 798 q 1133 673 1096 722 q 1199 562 1171 624 q 1227 428 1227 500 q 1212 345 1227 382 q 1172 279 1196 309 q 1118 227 1147 249 q 1061 189 1089 204 q 1045 164 1040 178 q 1068 150 1050 150 q 1094 152 1080 150 q 1121 154 1107 154 q 1181 131 1156 154 q 1207 66 1207 107 z "},"N":{"ha":1196,"x_min":41,"x_max":1154,"o":"m 207 804 q 197 847 207 835 q 171 860 187 860 q 144 858 155 860 q 118 856 134 856 q 65 876 86 856 q 45 928 45 896 q 59 970 45 951 q 99 1002 74 989 q 158 1022 123 1015 q 229 1029 192 1029 q 303 1022 260 1029 q 396 997 346 1015 q 500 945 446 978 q 607 861 555 913 q 687 769 656 812 q 738 690 718 725 q 768 627 758 654 q 783 585 778 600 q 794 570 787 570 q 802 586 802 570 l 802 945 q 822 1005 802 981 q 880 1029 842 1029 q 923 1024 901 1029 q 978 1018 945 1018 q 1024 1024 1006 1018 q 1064 1029 1042 1029 q 1129 1004 1104 1029 q 1154 942 1154 979 q 1128 879 1154 901 q 1069 856 1103 856 q 1042 857 1054 856 q 1019 859 1029 859 q 995 844 1000 859 q 989 810 989 829 l 989 200 q 995 166 989 180 q 1019 151 1000 151 q 1042 153 1029 151 q 1069 154 1054 154 q 1128 131 1103 154 q 1154 68 1154 109 q 1129 5 1154 31 q 1064 -20 1104 -20 q 1036 -17 1054 -20 q 995 -11 1018 -14 q 947 -5 972 -8 q 899 -3 922 -3 q 795 -11 836 -3 q 726 -20 754 -20 q 661 5 686 -20 q 636 68 636 31 q 662 131 636 109 q 721 154 688 154 q 746 153 734 154 q 771 151 758 151 q 794 161 785 151 q 803 199 803 171 l 803 225 q 776 312 803 269 q 704 390 749 355 q 603 445 660 424 q 485 467 546 467 q 415 442 436 467 q 395 374 395 418 l 395 200 q 400 166 395 180 q 425 151 406 151 q 447 153 435 151 q 475 154 460 154 q 534 131 509 154 q 559 68 559 109 q 535 5 559 31 q 469 -20 510 -20 q 442 -17 460 -20 q 401 -11 424 -14 q 353 -5 378 -8 q 304 -3 328 -3 q 201 -11 241 -3 q 132 -20 160 -20 q 66 5 92 -20 q 41 68 41 31 q 67 131 41 109 q 126 154 93 154 q 152 153 140 154 q 176 151 164 151 q 199 161 191 151 q 207 199 207 171 l 207 804 z "},"n":{"ha":1196,"x_min":41,"x_max":1154,"o":"m 207 804 q 197 847 207 835 q 171 860 187 860 q 144 858 155 860 q 118 856 134 856 q 65 876 86 856 q 45 928 45 896 q 59 970 45 951 q 99 1002 74 989 q 158 1022 123 1015 q 229 1029 192 1029 q 303 1022 260 1029 q 396 997 346 1015 q 500 945 446 978 q 607 861 555 913 q 687 769 656 812 q 738 690 718 725 q 768 627 758 654 q 783 585 778 600 q 794 570 787 570 q 802 586 802 570 l 802 945 q 822 1005 802 981 q 880 1029 842 1029 q 923 1024 901 1029 q 978 1018 945 1018 q 1024 1024 1006 1018 q 1064 1029 1042 1029 q 1129 1004 1104 1029 q 1154 942 1154 979 q 1128 879 1154 901 q 1069 856 1103 856 q 1042 857 1054 856 q 1019 859 1029 859 q 995 844 1000 859 q 989 810 989 829 l 989 200 q 995 166 989 180 q 1019 151 1000 151 q 1042 153 1029 151 q 1069 154 1054 154 q 1128 131 1103 154 q 1154 68 1154 109 q 1129 5 1154 31 q 1064 -20 1104 -20 q 1036 -17 1054 -20 q 995 -11 1018 -14 q 947 -5 972 -8 q 899 -3 922 -3 q 795 -11 836 -3 q 726 -20 754 -20 q 661 5 686 -20 q 636 68 636 31 q 662 131 636 109 q 721 154 688 154 q 746 153 734 154 q 771 151 758 151 q 794 161 785 151 q 803 199 803 171 l 803 225 q 776 312 803 269 q 704 390 749 355 q 603 445 660 424 q 485 467 546 467 q 415 442 436 467 q 395 374 395 418 l 395 200 q 400 166 395 180 q 425 151 406 151 q 447 153 435 151 q 475 154 460 154 q 534 131 509 154 q 559 68 559 109 q 535 5 559 31 q 469 -20 510 -20 q 442 -17 460 -20 q 401 -11 424 -14 q 353 -5 378 -8 q 304 -3 328 -3 q 201 -11 241 -3 q 132 -20 160 -20 q 66 5 92 -20 q 41 68 41 31 q 67 131 41 109 q 126 154 93 154 q 152 153 140 154 q 176 151 164 151 q 199 161 191 151 q 207 199 207 171 l 207 804 z "},"O":{"ha":1161,"x_min":41,"x_max":1120,"o":"m 1120 498 q 1079 294 1120 390 q 967 124 1039 197 q 795 7 895 50 q 579 -36 696 -36 q 368 6 467 -36 q 197 122 269 49 q 83 292 125 195 q 41 500 41 390 q 88 720 41 621 q 211 890 135 819 q 384 1001 286 961 q 582 1040 481 1040 q 780 1001 684 1040 q 952 890 876 961 q 1074 719 1028 819 q 1120 498 1120 619 m 847 396 q 828 493 847 444 q 773 581 808 542 q 688 644 737 619 q 579 668 639 668 q 472 644 521 668 q 388 581 424 619 q 333 493 353 542 q 314 396 314 444 q 335 286 314 336 q 394 198 357 235 q 478 140 431 161 q 579 119 526 119 q 682 140 633 119 q 767 198 730 161 q 826 286 804 235 q 847 396 847 336 z "},"o":{"ha":1161,"x_min":41,"x_max":1120,"o":"m 1120 498 q 1079 294 1120 390 q 967 124 1039 197 q 795 7 895 50 q 579 -36 696 -36 q 368 6 467 -36 q 197 122 269 49 q 83 292 125 195 q 41 500 41 390 q 88 720 41 621 q 211 890 135 819 q 384 1001 286 961 q 582 1040 481 1040 q 780 1001 684 1040 q 952 890 876 961 q 1074 719 1028 819 q 1120 498 1120 619 m 847 396 q 828 493 847 444 q 773 581 808 542 q 688 644 737 619 q 579 668 639 668 q 472 644 521 668 q 388 581 424 619 q 333 493 353 542 q 314 396 314 444 q 335 286 314 336 q 394 198 357 235 q 478 140 431 161 q 579 119 526 119 q 682 140 633 119 q 767 198 730 161 q 826 286 804 235 q 847 396 847 336 z "},"P":{"ha":1025,"x_min":36,"x_max":983,"o":"m 529 1040 q 700 1018 618 1040 q 845 952 782 996 q 946 843 908 908 q 983 690 983 778 q 944 532 983 600 q 834 421 905 464 q 662 360 762 378 q 439 350 561 342 q 406 339 411 353 q 400 304 400 325 l 400 200 q 406 166 400 180 q 431 151 411 151 q 453 153 440 151 q 481 154 465 154 q 540 131 514 154 q 566 68 566 109 q 541 5 566 31 q 475 -20 515 -20 q 447 -17 465 -20 q 406 -11 429 -14 q 358 -5 383 -8 q 310 -3 334 -3 q 207 -11 248 -3 q 138 -20 165 -20 q 72 5 97 -20 q 47 68 47 31 q 73 131 47 109 q 132 154 98 154 q 158 153 146 154 q 182 151 170 151 q 204 161 196 151 q 212 199 212 171 l 212 642 q 206 674 212 667 q 184 675 200 682 q 123 679 153 660 q 64 772 94 697 q 42 879 36 842 q 83 936 49 917 q 159 971 114 953 q 262 1005 204 989 q 387 1030 319 1021 q 529 1040 454 1040 m 734 615 q 721 655 734 637 q 685 687 708 673 q 633 707 663 700 q 571 714 603 714 q 443 683 492 714 q 395 610 395 652 q 440 535 395 562 q 559 509 485 509 q 686 538 637 509 q 734 615 734 567 z "},"p":{"ha":1025,"x_min":36,"x_max":983,"o":"m 529 1040 q 700 1018 618 1040 q 845 952 782 996 q 946 843 908 908 q 983 690 983 778 q 944 532 983 600 q 834 421 905 464 q 662 360 762 378 q 439 350 561 342 q 406 339 411 353 q 400 304 400 325 l 400 200 q 406 166 400 180 q 431 151 411 151 q 453 153 440 151 q 481 154 465 154 q 540 131 514 154 q 566 68 566 109 q 541 5 566 31 q 475 -20 515 -20 q 447 -17 465 -20 q 406 -11 429 -14 q 358 -5 383 -8 q 310 -3 334 -3 q 207 -11 248 -3 q 138 -20 165 -20 q 72 5 97 -20 q 47 68 47 31 q 73 131 47 109 q 132 154 98 154 q 158 153 146 154 q 182 151 170 151 q 204 161 196 151 q 212 199 212 171 l 212 642 q 206 674 212 667 q 184 675 200 682 q 123 679 153 660 q 64 772 94 697 q 42 879 36 842 q 83 936 49 917 q 159 971 114 953 q 262 1005 204 989 q 387 1030 319 1021 q 529 1040 454 1040 m 734 615 q 721 655 734 637 q 685 687 708 673 q 633 707 663 700 q 571 714 603 714 q 443 683 492 714 q 395 610 395 652 q 440 535 395 562 q 559 509 485 509 q 686 538 637 509 q 734 615 734 567 z "},"Q":{"ha":1178,"x_min":41,"x_max":1136,"o":"m 1136 505 q 1099 307 1136 393 q 1008 156 1063 220 q 887 53 953 93 q 762 -7 821 12 q 743 -31 743 -14 q 765 -75 743 -52 q 828 -98 787 -98 q 874 -83 859 -98 q 902 -49 890 -68 q 924 -15 913 -31 q 958 1 936 1 q 990 -9 974 1 q 1022 -40 1007 -20 q 1046 -90 1036 -60 q 1055 -161 1055 -121 q 1034 -277 1055 -225 q 976 -367 1013 -329 q 888 -424 939 -404 q 779 -444 838 -444 q 697 -430 736 -444 q 629 -391 659 -416 q 583 -329 600 -366 q 566 -249 566 -293 q 572 -200 566 -221 q 585 -162 578 -179 q 598 -129 591 -144 q 604 -94 604 -113 q 584 -38 604 -60 q 528 -16 564 -16 q 470 -38 489 -16 q 450 -94 450 -60 q 456 -130 450 -114 q 470 -161 463 -146 q 484 -193 478 -176 q 490 -229 490 -210 q 460 -299 490 -277 q 395 -321 431 -321 q 333 -306 363 -321 q 279 -267 302 -292 q 242 -211 256 -243 q 228 -144 228 -179 q 240 -87 228 -111 q 268 -44 252 -62 q 301 -15 285 -26 q 325 5 317 -3 q 331 21 332 12 q 319 35 330 29 q 232 94 281 54 q 141 193 183 134 q 70 329 98 252 q 41 501 41 406 q 86 716 41 618 q 207 887 131 815 q 381 1000 282 960 q 589 1040 481 1040 q 796 1001 697 1040 q 970 889 895 961 q 1091 720 1046 818 q 1136 505 1136 623 m 861 395 q 841 500 861 450 q 785 588 821 550 q 699 649 749 627 q 587 671 648 671 q 476 647 526 671 q 391 585 427 624 q 336 496 355 546 q 317 395 317 446 q 337 291 317 340 q 395 205 358 241 q 480 146 432 168 q 583 123 529 123 q 688 143 637 123 q 777 199 739 163 q 838 285 815 235 q 861 395 861 335 z "},"q":{"ha":1178,"x_min":41,"x_max":1136,"o":"m 1136 505 q 1099 307 1136 393 q 1008 156 1063 220 q 887 53 953 93 q 762 -7 821 12 q 743 -31 743 -14 q 765 -75 743 -52 q 828 -98 787 -98 q 874 -83 859 -98 q 902 -49 890 -68 q 924 -15 913 -31 q 958 1 936 1 q 990 -9 974 1 q 1022 -40 1007 -20 q 1046 -90 1036 -60 q 1055 -161 1055 -121 q 1034 -277 1055 -225 q 976 -367 1013 -329 q 888 -424 939 -404 q 779 -444 838 -444 q 697 -430 736 -444 q 629 -391 659 -416 q 583 -329 600 -366 q 566 -249 566 -293 q 572 -200 566 -221 q 585 -162 578 -179 q 598 -129 591 -144 q 604 -94 604 -113 q 584 -38 604 -60 q 528 -16 564 -16 q 470 -38 489 -16 q 450 -94 450 -60 q 456 -130 450 -114 q 470 -161 463 -146 q 484 -193 478 -176 q 490 -229 490 -210 q 460 -299 490 -277 q 395 -321 431 -321 q 333 -306 363 -321 q 279 -267 302 -292 q 242 -211 256 -243 q 228 -144 228 -179 q 240 -87 228 -111 q 268 -44 252 -62 q 301 -15 285 -26 q 325 5 317 -3 q 331 21 332 12 q 319 35 330 29 q 232 94 281 54 q 141 193 183 134 q 70 329 98 252 q 41 501 41 406 q 86 716 41 618 q 207 887 131 815 q 381 1000 282 960 q 589 1040 481 1040 q 796 1001 697 1040 q 970 889 895 961 q 1091 720 1046 818 q 1136 505 1136 623 m 861 395 q 841 500 861 450 q 785 588 821 550 q 699 649 749 627 q 587 671 648 671 q 476 647 526 671 q 391 585 427 624 q 336 496 355 546 q 317 395 317 446 q 337 291 317 340 q 395 205 358 241 q 480 146 432 168 q 583 123 529 123 q 688 143 637 123 q 777 199 739 163 q 838 285 815 235 q 861 395 861 335 z "},"R":{"ha":1090,"x_min":36,"x_max":1048,"o":"m 737 611 q 723 653 737 633 q 685 686 708 672 q 633 708 663 700 q 574 717 604 717 q 445 686 493 717 q 396 610 396 656 q 410 567 396 586 q 447 535 424 549 q 499 515 469 522 q 561 509 529 509 q 689 538 642 509 q 737 611 737 567 m 214 642 q 184 675 214 689 q 123 679 153 660 q 64 772 94 697 q 42 879 36 842 q 83 936 49 917 q 159 971 114 953 q 262 1005 204 989 q 387 1030 319 1021 q 529 1040 454 1040 q 716 1014 631 1040 q 863 942 802 987 q 960 833 925 896 q 994 697 994 771 q 973 580 994 633 q 915 486 951 526 q 828 418 878 446 q 722 376 779 390 q 715 345 697 371 q 760 311 730 323 q 817 298 789 298 q 866 314 850 298 q 892 349 882 330 q 912 384 903 368 q 940 399 921 399 q 978 386 958 399 q 1013 349 997 372 q 1038 294 1028 326 q 1048 221 1048 261 q 1031 119 1048 164 q 985 43 1014 74 q 920 -4 957 12 q 846 -20 884 -20 q 753 -1 793 -20 q 683 50 713 18 q 632 126 653 82 q 596 220 611 170 q 538 347 568 311 q 467 383 509 383 q 419 362 436 383 q 401 306 401 342 l 401 200 q 407 166 401 180 q 432 151 412 151 q 454 153 441 151 q 482 154 467 154 q 541 131 515 154 q 567 68 567 109 q 542 5 567 31 q 476 -20 517 -20 q 449 -17 467 -20 q 408 -11 431 -14 q 360 -5 385 -8 q 311 -3 335 -3 q 208 -11 249 -3 q 139 -20 167 -20 q 74 5 98 -20 q 49 68 49 31 q 74 131 49 109 q 134 154 100 154 q 159 153 147 154 q 183 151 171 151 q 205 161 197 151 q 214 199 214 171 l 214 642 z "},"r":{"ha":1090,"x_min":36,"x_max":1048,"o":"m 737 611 q 723 653 737 633 q 685 686 708 672 q 633 708 663 700 q 574 717 604 717 q 445 686 493 717 q 396 610 396 656 q 410 567 396 586 q 447 535 424 549 q 499 515 469 522 q 561 509 529 509 q 689 538 642 509 q 737 611 737 567 m 214 642 q 184 675 214 689 q 123 679 153 660 q 64 772 94 697 q 42 879 36 842 q 83 936 49 917 q 159 971 114 953 q 262 1005 204 989 q 387 1030 319 1021 q 529 1040 454 1040 q 716 1014 631 1040 q 863 942 802 987 q 960 833 925 896 q 994 697 994 771 q 973 580 994 633 q 915 486 951 526 q 828 418 878 446 q 722 376 779 390 q 715 345 697 371 q 760 311 730 323 q 817 298 789 298 q 866 314 850 298 q 892 349 882 330 q 912 384 903 368 q 940 399 921 399 q 978 386 958 399 q 1013 349 997 372 q 1038 294 1028 326 q 1048 221 1048 261 q 1031 119 1048 164 q 985 43 1014 74 q 920 -4 957 12 q 846 -20 884 -20 q 753 -1 793 -20 q 683 50 713 18 q 632 126 653 82 q 596 220 611 170 q 538 347 568 311 q 467 383 509 383 q 419 362 436 383 q 401 306 401 342 l 401 200 q 407 166 401 180 q 432 151 412 151 q 454 153 441 151 q 482 154 467 154 q 541 131 515 154 q 567 68 567 109 q 542 5 567 31 q 476 -20 517 -20 q 449 -17 467 -20 q 408 -11 431 -14 q 360 -5 385 -8 q 311 -3 335 -3 q 208 -11 249 -3 q 139 -20 167 -20 q 74 5 98 -20 q 49 68 49 31 q 74 131 49 109 q 134 154 100 154 q 159 153 147 154 q 183 151 171 151 q 205 161 197 151 q 214 199 214 171 l 214 642 z "},"S":{"ha":867,"x_min":12,"x_max":839,"o":"m 839 269 q 811 144 839 200 q 734 47 783 87 q 616 -15 685 7 q 464 -36 547 -36 q 333 -21 397 -36 q 213 20 269 -7 q 110 86 157 47 q 29 172 62 125 q 16 206 20 186 q 18 253 12 227 q 40 313 24 279 q 89 387 57 347 q 170 476 139 453 q 225 500 201 500 q 258 482 249 500 q 273 440 267 464 q 292 396 279 422 q 327 346 304 370 q 385 306 350 322 q 469 289 419 289 q 530 304 505 289 q 555 349 555 319 q 549 376 555 363 q 528 403 543 389 q 486 435 513 418 q 418 472 460 452 q 291 549 343 511 q 205 626 239 586 q 158 708 172 665 q 143 798 143 750 q 165 902 143 857 q 227 978 187 947 q 319 1024 267 1008 q 433 1040 372 1040 q 549 1025 490 1040 q 655 981 608 1010 q 732 909 703 951 q 762 811 762 867 q 751 752 762 778 q 720 708 739 726 q 678 679 701 689 q 631 669 654 669 q 543 699 581 669 q 505 778 505 729 q 512 815 505 802 q 518 844 518 828 q 497 875 518 864 q 436 886 476 886 q 357 865 389 886 q 325 800 325 844 q 341 749 325 774 q 389 703 358 725 q 460 659 419 681 q 551 612 501 636 q 664 550 611 583 q 755 476 717 517 q 817 384 794 435 q 839 269 839 334 z "},"s":{"ha":867,"x_min":12,"x_max":839,"o":"m 839 269 q 811 144 839 200 q 734 47 783 87 q 616 -15 685 7 q 464 -36 547 -36 q 333 -21 397 -36 q 213 20 269 -7 q 110 86 157 47 q 29 172 62 125 q 16 206 20 186 q 18 253 12 227 q 40 313 24 279 q 89 387 57 347 q 170 476 139 453 q 225 500 201 500 q 258 482 249 500 q 273 440 267 464 q 292 396 279 422 q 327 346 304 370 q 385 306 350 322 q 469 289 419 289 q 530 304 505 289 q 555 349 555 319 q 549 376 555 363 q 528 403 543 389 q 486 435 513 418 q 418 472 460 452 q 291 549 343 511 q 205 626 239 586 q 158 708 172 665 q 143 798 143 750 q 165 902 143 857 q 227 978 187 947 q 319 1024 267 1008 q 433 1040 372 1040 q 549 1025 490 1040 q 655 981 608 1010 q 732 909 703 951 q 762 811 762 867 q 751 752 762 778 q 720 708 739 726 q 678 679 701 689 q 631 669 654 669 q 543 699 581 669 q 505 778 505 729 q 512 815 505 802 q 518 844 518 828 q 497 875 518 864 q 436 886 476 886 q 357 865 389 886 q 325 800 325 844 q 341 749 325 774 q 389 703 358 725 q 460 659 419 681 q 551 612 501 636 q 664 550 611 583 q 755 476 717 517 q 817 384 794 435 q 839 269 839 334 z "},"T":{"ha":907,"x_min":41,"x_max":865,"o":"m 453 1011 q 590 1014 536 1011 q 679 1021 644 1017 q 733 1028 713 1025 q 768 1031 753 1031 q 835 1008 810 1031 q 860 947 860 986 q 856 913 860 933 q 848 869 852 893 q 841 819 844 846 q 838 768 838 793 q 851 646 838 701 q 865 562 865 591 q 838 490 865 522 q 760 457 811 457 q 685 487 710 457 q 660 555 660 517 q 663 589 660 574 q 667 624 667 604 q 652 662 667 646 q 607 679 637 679 q 564 660 581 679 q 547 612 547 640 l 547 200 q 553 166 547 180 q 578 151 558 151 q 600 153 587 151 q 628 154 612 154 q 687 131 661 154 q 713 68 713 109 q 688 5 713 31 q 623 -20 663 -20 q 594 -17 612 -20 q 553 -11 576 -14 q 506 -5 530 -8 q 457 -3 481 -3 q 354 -11 395 -3 q 285 -20 313 -20 q 219 5 244 -20 q 195 68 195 31 q 220 131 195 109 q 279 154 245 154 q 305 153 293 154 q 329 151 317 151 q 351 161 343 151 q 359 199 359 171 l 359 612 q 343 660 359 640 q 300 679 326 679 q 255 662 269 679 q 240 624 240 646 q 244 589 240 604 q 248 555 248 574 q 222 487 248 517 q 147 457 197 457 q 68 490 96 457 q 41 562 41 522 q 55 646 41 591 q 69 768 69 701 q 66 819 69 793 q 58 869 62 846 q 51 913 54 893 q 47 947 47 933 q 72 1008 47 986 q 139 1031 97 1031 q 174 1028 154 1031 q 228 1021 193 1025 q 316 1014 262 1017 q 453 1011 370 1011 z "},"t":{"ha":907,"x_min":41,"x_max":865,"o":"m 453 1011 q 590 1014 536 1011 q 679 1021 644 1017 q 733 1028 713 1025 q 768 1031 753 1031 q 835 1008 810 1031 q 860 947 860 986 q 856 913 860 933 q 848 869 852 893 q 841 819 844 846 q 838 768 838 793 q 851 646 838 701 q 865 562 865 591 q 838 490 865 522 q 760 457 811 457 q 685 487 710 457 q 660 555 660 517 q 663 589 660 574 q 667 624 667 604 q 652 662 667 646 q 607 679 637 679 q 564 660 581 679 q 547 612 547 640 l 547 200 q 553 166 547 180 q 578 151 558 151 q 600 153 587 151 q 628 154 612 154 q 687 131 661 154 q 713 68 713 109 q 688 5 713 31 q 623 -20 663 -20 q 594 -17 612 -20 q 553 -11 576 -14 q 506 -5 530 -8 q 457 -3 481 -3 q 354 -11 395 -3 q 285 -20 313 -20 q 219 5 244 -20 q 195 68 195 31 q 220 131 195 109 q 279 154 245 154 q 305 153 293 154 q 329 151 317 151 q 351 161 343 151 q 359 199 359 171 l 359 612 q 343 660 359 640 q 300 679 326 679 q 255 662 269 679 q 240 624 240 646 q 244 589 240 604 q 248 555 248 574 q 222 487 248 517 q 147 457 197 457 q 68 490 96 457 q 41 562 41 522 q 55 646 41 591 q 69 768 69 701 q 66 819 69 793 q 58 869 62 846 q 51 913 54 893 q 47 947 47 933 q 72 1008 47 986 q 139 1031 97 1031 q 174 1028 154 1031 q 228 1021 193 1025 q 316 1014 262 1017 q 453 1011 370 1011 z "},"U":{"ha":1161,"x_min":41,"x_max":1120,"o":"m 954 200 q 960 166 954 180 q 985 151 965 151 q 1007 153 994 151 q 1035 154 1019 154 q 1094 131 1068 154 q 1120 68 1120 109 q 1095 5 1120 31 q 1029 -20 1069 -20 q 983 -11 1002 -20 q 932 -3 964 -3 q 879 -11 900 -3 q 831 -20 857 -20 q 775 3 796 -20 q 754 56 754 25 q 765 129 754 96 q 775 192 775 161 q 765 212 775 208 q 743 199 754 215 q 684 122 720 161 q 601 52 648 83 q 494 1 554 21 q 364 -20 435 -20 q 229 6 289 -20 q 128 77 170 32 q 64 182 86 122 q 41 310 41 241 q 71 465 41 392 q 141 603 100 538 q 225 726 182 668 q 294 835 268 783 q 278 867 311 867 q 237 861 256 867 q 196 856 218 856 q 137 879 163 856 q 111 942 111 901 q 136 1004 111 979 q 201 1029 161 1029 q 249 1020 218 1029 q 321 1011 279 1011 q 389 1020 357 1011 q 441 1029 421 1029 q 502 1010 476 1029 q 528 949 528 990 q 504 871 528 917 q 450 770 479 825 q 397 652 421 714 q 372 525 372 590 q 390 422 372 464 q 436 355 408 380 q 500 320 464 330 q 571 310 536 310 q 716 376 667 310 q 766 549 766 441 l 766 811 q 758 849 766 839 q 736 859 750 859 q 712 857 724 859 q 686 856 700 856 q 627 879 653 856 q 602 942 602 901 q 627 1004 602 979 q 692 1029 652 1029 q 761 1021 720 1029 q 864 1013 802 1013 q 912 1015 888 1013 q 960 1021 937 1018 q 1001 1026 983 1023 q 1029 1029 1019 1029 q 1095 1004 1069 1029 q 1120 942 1120 979 q 1094 879 1120 901 q 1035 856 1068 856 q 1007 857 1019 856 q 985 859 994 859 q 960 844 965 859 q 954 810 954 829 l 954 200 z "},"u":{"ha":1161,"x_min":41,"x_max":1120,"o":"m 954 200 q 960 166 954 180 q 985 151 965 151 q 1007 153 994 151 q 1035 154 1019 154 q 1094 131 1068 154 q 1120 68 1120 109 q 1095 5 1120 31 q 1029 -20 1069 -20 q 983 -11 1002 -20 q 932 -3 964 -3 q 879 -11 900 -3 q 831 -20 857 -20 q 775 3 796 -20 q 754 56 754 25 q 765 129 754 96 q 775 192 775 161 q 765 212 775 208 q 743 199 754 215 q 684 122 720 161 q 601 52 648 83 q 494 1 554 21 q 364 -20 435 -20 q 229 6 289 -20 q 128 77 170 32 q 64 182 86 122 q 41 310 41 241 q 71 465 41 392 q 141 603 100 538 q 225 726 182 668 q 294 835 268 783 q 278 867 311 867 q 237 861 256 867 q 196 856 218 856 q 137 879 163 856 q 111 942 111 901 q 136 1004 111 979 q 201 1029 161 1029 q 249 1020 218 1029 q 321 1011 279 1011 q 389 1020 357 1011 q 441 1029 421 1029 q 502 1010 476 1029 q 528 949 528 990 q 504 871 528 917 q 450 770 479 825 q 397 652 421 714 q 372 525 372 590 q 390 422 372 464 q 436 355 408 380 q 500 320 464 330 q 571 310 536 310 q 716 376 667 310 q 766 549 766 441 l 766 811 q 758 849 766 839 q 736 859 750 859 q 712 857 724 859 q 686 856 700 856 q 627 879 653 856 q 602 942 602 901 q 627 1004 602 979 q 692 1029 652 1029 q 761 1021 720 1029 q 864 1013 802 1013 q 912 1015 888 1013 q 960 1021 937 1018 q 1001 1026 983 1023 q 1029 1029 1019 1029 q 1095 1004 1069 1029 q 1120 942 1120 979 q 1094 879 1120 901 q 1035 856 1068 856 q 1007 857 1019 856 q 985 859 994 859 q 960 844 965 859 q 954 810 954 829 l 954 200 z "},"V":{"ha":1190,"x_min":14,"x_max":1149,"o":"m 1149 777 q 1113 553 1149 668 q 1021 334 1076 439 q 899 142 965 229 q 774 1 833 56 q 702 -32 742 -28 q 618 -7 661 -36 q 460 143 532 52 q 334 343 389 235 q 243 568 279 452 q 192 791 207 684 q 172 847 184 835 q 143 859 160 859 q 119 857 129 859 q 98 856 110 856 q 39 879 65 856 q 14 942 14 901 q 39 1004 14 979 q 104 1029 64 1029 q 192 1021 136 1029 q 346 1013 248 1013 q 531 1021 458 1013 q 632 1029 603 1029 q 697 1004 672 1029 q 722 942 722 979 q 696 879 722 901 q 637 856 671 856 q 611 857 627 856 q 583 859 595 859 q 557 819 557 859 q 564 772 557 807 q 584 691 571 737 q 614 592 596 644 q 655 490 632 539 q 707 401 679 440 q 765 345 734 363 q 790 339 778 338 q 817 359 803 340 q 865 440 840 393 q 910 538 889 488 q 944 637 930 589 q 957 724 957 686 q 948 771 957 760 q 917 781 939 782 q 882 785 903 781 q 842 802 861 789 q 808 839 822 815 q 794 901 794 863 q 836 994 794 958 q 945 1029 878 1029 q 1019 1014 982 1029 q 1084 967 1055 999 q 1131 888 1112 936 q 1149 777 1149 840 z "},"v":{"ha":1190,"x_min":14,"x_max":1149,"o":"m 1149 777 q 1113 553 1149 668 q 1021 334 1076 439 q 899 142 965 229 q 774 1 833 56 q 702 -32 742 -28 q 618 -7 661 -36 q 460 143 532 52 q 334 343 389 235 q 243 568 279 452 q 192 791 207 684 q 172 847 184 835 q 143 859 160 859 q 119 857 129 859 q 98 856 110 856 q 39 879 65 856 q 14 942 14 901 q 39 1004 14 979 q 104 1029 64 1029 q 192 1021 136 1029 q 346 1013 248 1013 q 531 1021 458 1013 q 632 1029 603 1029 q 697 1004 672 1029 q 722 942 722 979 q 696 879 722 901 q 637 856 671 856 q 611 857 627 856 q 583 859 595 859 q 557 819 557 859 q 564 772 557 807 q 584 691 571 737 q 614 592 596 644 q 655 490 632 539 q 707 401 679 440 q 765 345 734 363 q 790 339 778 338 q 817 359 803 340 q 865 440 840 393 q 910 538 889 488 q 944 637 930 589 q 957 724 957 686 q 948 771 957 760 q 917 781 939 782 q 882 785 903 781 q 842 802 861 789 q 808 839 822 815 q 794 901 794 863 q 836 994 794 958 q 945 1029 878 1029 q 1019 1014 982 1029 q 1084 967 1055 999 q 1131 888 1112 936 q 1149 777 1149 840 z "},"W":{"ha":1805,"x_min":14,"x_max":1764,"o":"m 1234 -7 q 1157 56 1193 21 q 1090 126 1121 90 q 1037 195 1060 161 q 1000 252 1014 228 q 985 264 990 267 q 972 250 979 262 q 883 119 935 186 q 774 1 831 52 q 702 -32 742 -28 q 618 -7 661 -36 q 460 143 532 52 q 334 343 389 235 q 243 568 279 452 q 192 791 207 684 q 172 847 184 835 q 143 859 160 859 q 119 857 129 859 q 98 856 110 856 q 39 879 65 856 q 14 942 14 901 q 39 1004 14 979 q 104 1029 64 1029 q 192 1021 136 1029 q 346 1013 248 1013 q 531 1021 458 1013 q 632 1029 603 1029 q 697 1004 672 1029 q 722 942 722 979 q 696 879 722 901 q 637 856 671 856 q 611 857 627 856 q 583 859 595 859 q 557 819 557 859 q 564 772 557 807 q 584 691 571 737 q 614 592 596 644 q 655 490 632 539 q 707 401 679 440 q 765 345 734 363 q 790 338 778 338 q 814 354 803 339 q 830 380 821 366 q 849 411 839 395 q 867 443 859 428 q 880 471 875 458 q 878 510 888 486 q 851 590 865 542 q 825 692 838 637 q 805 806 812 747 q 798 918 798 865 q 828 998 798 966 q 903 1029 859 1029 q 976 1021 936 1029 q 1074 1013 1015 1013 q 1171 1021 1124 1013 q 1247 1029 1218 1029 q 1312 1004 1287 1029 q 1337 942 1337 979 q 1312 879 1337 901 q 1253 856 1286 856 q 1226 857 1242 856 q 1198 859 1210 859 q 1173 819 1173 859 q 1179 772 1173 807 q 1199 691 1186 737 q 1229 592 1211 644 q 1271 490 1247 539 q 1322 401 1295 440 q 1381 345 1350 363 q 1406 339 1393 338 q 1432 359 1418 340 q 1480 440 1455 393 q 1525 538 1504 488 q 1559 637 1546 589 q 1572 724 1572 686 q 1563 771 1572 760 q 1532 781 1554 782 q 1497 785 1518 781 q 1457 802 1476 789 q 1424 839 1438 815 q 1410 901 1410 863 q 1452 994 1410 958 q 1560 1029 1493 1029 q 1634 1014 1597 1029 q 1699 967 1671 999 q 1746 888 1728 936 q 1764 777 1764 840 q 1728 553 1764 668 q 1636 334 1691 439 q 1515 142 1581 229 q 1389 1 1449 56 q 1317 -32 1357 -28 q 1234 -7 1276 -36 z "},"w":{"ha":1805,"x_min":14,"x_max":1764,"o":"m 1234 -7 q 1157 56 1193 21 q 1090 126 1121 90 q 1037 195 1060 161 q 1000 252 1014 228 q 985 264 990 267 q 972 250 979 262 q 883 119 935 186 q 774 1 831 52 q 702 -32 742 -28 q 618 -7 661 -36 q 460 143 532 52 q 334 343 389 235 q 243 568 279 452 q 192 791 207 684 q 172 847 184 835 q 143 859 160 859 q 119 857 129 859 q 98 856 110 856 q 39 879 65 856 q 14 942 14 901 q 39 1004 14 979 q 104 1029 64 1029 q 192 1021 136 1029 q 346 1013 248 1013 q 531 1021 458 1013 q 632 1029 603 1029 q 697 1004 672 1029 q 722 942 722 979 q 696 879 722 901 q 637 856 671 856 q 611 857 627 856 q 583 859 595 859 q 557 819 557 859 q 564 772 557 807 q 584 691 571 737 q 614 592 596 644 q 655 490 632 539 q 707 401 679 440 q 765 345 734 363 q 790 338 778 338 q 814 354 803 339 q 830 380 821 366 q 849 411 839 395 q 867 443 859 428 q 880 471 875 458 q 878 510 888 486 q 851 590 865 542 q 825 692 838 637 q 805 806 812 747 q 798 918 798 865 q 828 998 798 966 q 903 1029 859 1029 q 976 1021 936 1029 q 1074 1013 1015 1013 q 1171 1021 1124 1013 q 1247 1029 1218 1029 q 1312 1004 1287 1029 q 1337 942 1337 979 q 1312 879 1337 901 q 1253 856 1286 856 q 1226 857 1242 856 q 1198 859 1210 859 q 1173 819 1173 859 q 1179 772 1173 807 q 1199 691 1186 737 q 1229 592 1211 644 q 1271 490 1247 539 q 1322 401 1295 440 q 1381 345 1350 363 q 1406 339 1393 338 q 1432 359 1418 340 q 1480 440 1455 393 q 1525 538 1504 488 q 1559 637 1546 589 q 1572 724 1572 686 q 1563 771 1572 760 q 1532 781 1554 782 q 1497 785 1518 781 q 1457 802 1476 789 q 1424 839 1438 815 q 1410 901 1410 863 q 1452 994 1410 958 q 1560 1029 1493 1029 q 1634 1014 1597 1029 q 1699 967 1671 999 q 1746 888 1728 936 q 1764 777 1764 840 q 1728 553 1764 668 q 1636 334 1691 439 q 1515 142 1581 229 q 1389 1 1449 56 q 1317 -32 1357 -28 q 1234 -7 1276 -36 z "},"X":{"ha":1225,"x_min":14,"x_max":1211,"o":"m 612 488 q 515 447 554 488 q 476 345 476 406 q 492 279 476 311 q 526 215 507 248 q 560 151 545 183 q 575 87 575 119 q 547 9 575 39 q 471 -20 519 -20 q 430 -17 453 -20 q 382 -11 407 -14 q 331 -5 357 -8 q 281 -3 304 -3 q 179 -11 222 -3 q 104 -20 136 -20 q 39 5 64 -20 q 14 68 14 31 q 39 131 14 109 q 98 154 65 154 q 121 153 110 154 q 143 151 132 151 q 168 162 163 151 q 163 186 172 172 q 140 233 147 205 q 132 283 132 260 q 154 376 132 334 q 208 451 176 418 q 276 506 240 484 q 340 542 313 529 q 355 557 355 549 q 345 572 355 566 q 257 665 282 610 q 232 808 232 721 q 224 845 232 831 q 199 859 216 859 q 174 857 187 859 q 149 856 160 856 q 90 879 115 856 q 64 942 64 901 q 89 1004 64 979 q 154 1029 114 1029 q 221 1021 182 1029 q 314 1013 261 1013 q 417 1021 370 1013 q 485 1029 465 1029 q 550 1004 525 1029 q 575 942 575 979 q 549 879 575 901 q 490 856 524 856 q 463 857 475 856 q 440 859 450 859 q 416 823 416 859 q 428 760 416 794 q 465 695 440 725 q 526 646 489 665 q 612 627 562 627 q 699 646 663 627 q 760 695 736 665 q 797 760 785 725 q 808 823 808 794 q 785 859 808 859 q 763 857 775 859 q 734 856 750 856 q 675 879 701 856 q 650 942 650 901 q 675 1004 650 979 q 741 1029 700 1029 q 808 1021 760 1029 q 911 1013 856 1013 q 1003 1021 964 1013 q 1071 1029 1043 1029 q 1136 1004 1111 1029 q 1161 942 1161 979 q 1135 879 1161 901 q 1076 856 1109 856 q 1052 857 1065 856 q 1026 859 1038 859 q 1001 845 1008 859 q 993 808 993 831 q 968 665 993 721 q 880 572 943 610 q 869 557 869 566 q 885 542 869 549 q 949 506 913 529 q 1017 451 985 484 q 1071 376 1048 418 q 1093 283 1093 334 q 1085 233 1093 260 q 1063 186 1078 205 q 1058 162 1053 172 q 1082 151 1063 151 q 1104 153 1093 151 q 1126 154 1116 154 q 1185 131 1160 154 q 1211 68 1211 109 q 1186 5 1211 31 q 1121 -20 1161 -20 q 1046 -11 1089 -20 q 945 -3 1003 -3 q 895 -5 921 -3 q 843 -11 868 -8 q 795 -17 818 -14 q 754 -20 772 -20 q 677 9 705 -20 q 650 87 650 39 q 665 151 650 119 q 700 215 681 183 q 733 279 718 248 q 749 345 749 311 q 710 447 749 406 q 612 488 671 488 z "},"x":{"ha":1225,"x_min":14,"x_max":1211,"o":"m 612 488 q 515 447 554 488 q 476 345 476 406 q 492 279 476 311 q 526 215 507 248 q 560 151 545 183 q 575 87 575 119 q 547 9 575 39 q 471 -20 519 -20 q 430 -17 453 -20 q 382 -11 407 -14 q 331 -5 357 -8 q 281 -3 304 -3 q 179 -11 222 -3 q 104 -20 136 -20 q 39 5 64 -20 q 14 68 14 31 q 39 131 14 109 q 98 154 65 154 q 121 153 110 154 q 143 151 132 151 q 168 162 163 151 q 163 186 172 172 q 140 233 147 205 q 132 283 132 260 q 154 376 132 334 q 208 451 176 418 q 276 506 240 484 q 340 542 313 529 q 355 557 355 549 q 345 572 355 566 q 257 665 282 610 q 232 808 232 721 q 224 845 232 831 q 199 859 216 859 q 174 857 187 859 q 149 856 160 856 q 90 879 115 856 q 64 942 64 901 q 89 1004 64 979 q 154 1029 114 1029 q 221 1021 182 1029 q 314 1013 261 1013 q 417 1021 370 1013 q 485 1029 465 1029 q 550 1004 525 1029 q 575 942 575 979 q 549 879 575 901 q 490 856 524 856 q 463 857 475 856 q 440 859 450 859 q 416 823 416 859 q 428 760 416 794 q 465 695 440 725 q 526 646 489 665 q 612 627 562 627 q 699 646 663 627 q 760 695 736 665 q 797 760 785 725 q 808 823 808 794 q 785 859 808 859 q 763 857 775 859 q 734 856 750 856 q 675 879 701 856 q 650 942 650 901 q 675 1004 650 979 q 741 1029 700 1029 q 808 1021 760 1029 q 911 1013 856 1013 q 1003 1021 964 1013 q 1071 1029 1043 1029 q 1136 1004 1111 1029 q 1161 942 1161 979 q 1135 879 1161 901 q 1076 856 1109 856 q 1052 857 1065 856 q 1026 859 1038 859 q 1001 845 1008 859 q 993 808 993 831 q 968 665 993 721 q 880 572 943 610 q 869 557 869 566 q 885 542 869 549 q 949 506 913 529 q 1017 451 985 484 q 1071 376 1048 418 q 1093 283 1093 334 q 1085 233 1093 260 q 1063 186 1078 205 q 1058 162 1053 172 q 1082 151 1063 151 q 1104 153 1093 151 q 1126 154 1116 154 q 1185 131 1160 154 q 1211 68 1211 109 q 1186 5 1211 31 q 1121 -20 1161 -20 q 1046 -11 1089 -20 q 945 -3 1003 -3 q 895 -5 921 -3 q 843 -11 868 -8 q 795 -17 818 -14 q 754 -20 772 -20 q 677 9 705 -20 q 650 87 650 39 q 665 151 650 119 q 700 215 681 183 q 733 279 718 248 q 749 345 749 311 q 710 447 749 406 q 612 488 671 488 z "},"Y":{"ha":1078,"x_min":28,"x_max":1050,"o":"m 632 200 q 637 166 632 180 q 663 151 643 151 q 685 153 672 151 q 713 154 697 154 q 772 131 746 154 q 798 68 798 109 q 772 5 798 31 q 707 -20 747 -20 q 679 -17 697 -20 q 638 -11 661 -14 q 590 -5 615 -8 q 542 -3 566 -3 q 439 -11 479 -3 q 371 -20 399 -20 q 306 5 330 -20 q 281 68 281 31 q 306 131 281 109 q 366 154 332 154 q 391 153 379 154 q 415 151 403 151 q 437 161 429 151 q 446 199 446 171 l 446 237 q 444 260 446 249 q 437 279 443 271 q 418 293 431 288 q 382 298 406 298 q 283 318 334 298 q 193 376 233 338 q 128 473 153 415 q 103 610 103 532 q 113 686 103 650 q 135 750 122 722 q 162 798 149 778 q 183 827 175 818 q 190 850 196 842 q 172 859 184 859 q 160 858 168 859 q 142 857 151 857 q 124 857 132 857 q 113 856 117 856 q 54 879 79 856 q 28 942 28 901 q 53 1004 28 979 q 118 1029 78 1029 q 178 1021 142 1029 q 268 1013 215 1013 q 352 1021 313 1013 q 410 1029 392 1029 q 475 1004 450 1029 q 500 942 500 979 q 474 879 500 901 q 415 856 449 856 q 388 857 400 856 q 368 859 375 859 q 340 843 349 859 q 332 803 332 827 q 342 739 332 771 q 377 681 353 707 q 441 640 401 656 q 539 624 481 624 q 637 640 597 624 q 701 681 676 656 q 735 739 725 707 q 746 803 746 771 q 738 843 746 827 q 710 859 729 859 q 690 857 703 859 q 663 856 677 856 q 604 879 629 856 q 578 942 578 901 q 603 1004 578 979 q 668 1029 628 1029 q 726 1021 686 1029 q 810 1013 765 1013 q 899 1021 863 1013 q 960 1029 936 1029 q 1025 1004 1000 1029 q 1050 942 1050 979 q 1024 879 1050 901 q 965 856 999 856 q 954 857 961 856 q 936 857 946 857 q 918 858 926 857 q 905 859 909 859 q 887 850 893 859 q 895 827 882 842 q 916 798 903 818 q 942 750 929 778 q 965 686 956 722 q 975 610 975 650 q 950 473 975 532 q 885 376 925 415 q 794 318 844 338 q 696 298 745 298 q 660 293 672 298 q 641 279 647 288 q 633 260 635 271 q 632 237 632 249 l 632 200 z "},"y":{"ha":1078,"x_min":28,"x_max":1050,"o":"m 632 200 q 637 166 632 180 q 663 151 643 151 q 685 153 672 151 q 713 154 697 154 q 772 131 746 154 q 798 68 798 109 q 772 5 798 31 q 707 -20 747 -20 q 679 -17 697 -20 q 638 -11 661 -14 q 590 -5 615 -8 q 542 -3 566 -3 q 439 -11 479 -3 q 371 -20 399 -20 q 306 5 330 -20 q 281 68 281 31 q 306 131 281 109 q 366 154 332 154 q 391 153 379 154 q 415 151 403 151 q 437 161 429 151 q 446 199 446 171 l 446 237 q 444 260 446 249 q 437 279 443 271 q 418 293 431 288 q 382 298 406 298 q 283 318 334 298 q 193 376 233 338 q 128 473 153 415 q 103 610 103 532 q 113 686 103 650 q 135 750 122 722 q 162 798 149 778 q 183 827 175 818 q 190 850 196 842 q 172 859 184 859 q 160 858 168 859 q 142 857 151 857 q 124 857 132 857 q 113 856 117 856 q 54 879 79 856 q 28 942 28 901 q 53 1004 28 979 q 118 1029 78 1029 q 178 1021 142 1029 q 268 1013 215 1013 q 352 1021 313 1013 q 410 1029 392 1029 q 475 1004 450 1029 q 500 942 500 979 q 474 879 500 901 q 415 856 449 856 q 388 857 400 856 q 368 859 375 859 q 340 843 349 859 q 332 803 332 827 q 342 739 332 771 q 377 681 353 707 q 441 640 401 656 q 539 624 481 624 q 637 640 597 624 q 701 681 676 656 q 735 739 725 707 q 746 803 746 771 q 738 843 746 827 q 710 859 729 859 q 690 857 703 859 q 663 856 677 856 q 604 879 629 856 q 578 942 578 901 q 603 1004 578 979 q 668 1029 628 1029 q 726 1021 686 1029 q 810 1013 765 1013 q 899 1021 863 1013 q 960 1029 936 1029 q 1025 1004 1000 1029 q 1050 942 1050 979 q 1024 879 1050 901 q 965 856 999 856 q 954 857 961 856 q 936 857 946 857 q 918 858 926 857 q 905 859 909 859 q 887 850 893 859 q 895 827 882 842 q 916 798 903 818 q 942 750 929 778 q 965 686 956 722 q 975 610 975 650 q 950 473 975 532 q 885 376 925 415 q 794 318 844 338 q 696 298 745 298 q 660 293 672 298 q 641 279 647 288 q 633 260 635 271 q 632 237 632 249 l 632 200 z "},"Z":{"ha":925,"x_min":41,"x_max":884,"o":"m 884 248 q 878 202 884 225 q 872 151 872 179 q 873 124 872 135 q 877 103 875 113 q 880 85 879 94 q 882 60 882 75 q 856 1 882 22 q 793 -20 829 -20 q 735 -17 777 -20 q 643 -10 694 -14 q 535 -4 591 -7 q 429 -1 479 -1 q 310 -9 358 -1 q 224 -36 261 -17 q 173 -57 196 -52 q 127 -45 150 -62 q 101 -15 117 -36 q 73 35 86 5 q 51 105 60 65 q 41 193 41 146 q 86 358 41 279 q 205 509 131 437 q 377 644 279 581 q 582 761 475 707 q 635 797 625 783 q 646 827 646 811 q 641 844 646 835 q 616 852 636 852 l 321 852 q 289 827 289 852 q 294 797 289 811 q 298 762 298 782 q 271 695 298 722 q 197 668 244 668 q 122 699 149 668 q 96 766 96 729 q 103 806 96 786 q 110 857 110 825 q 105 904 110 880 q 100 947 100 928 q 123 1006 100 983 q 186 1029 147 1029 q 229 1026 205 1029 q 285 1021 252 1023 q 363 1015 318 1018 q 469 1013 408 1013 q 644 1021 579 1013 q 745 1029 708 1029 q 804 1008 779 1029 q 829 950 829 986 q 827 922 829 940 q 825 889 825 904 q 832 851 825 865 q 839 811 839 838 q 818 745 839 772 q 777 703 796 718 q 648 592 708 647 q 544 484 589 538 q 474 374 500 429 q 449 258 449 318 q 457 202 449 222 q 479 172 465 182 q 510 159 493 161 q 545 157 526 157 l 664 157 q 683 164 675 157 q 692 187 692 172 q 688 217 692 204 q 684 252 684 231 q 711 316 684 288 q 785 345 739 345 q 854 318 825 345 q 884 248 884 292 z "},"z":{"ha":925,"x_min":41,"x_max":884,"o":"m 884 248 q 878 202 884 225 q 872 151 872 179 q 873 124 872 135 q 877 103 875 113 q 880 85 879 94 q 882 60 882 75 q 856 1 882 22 q 793 -20 829 -20 q 735 -17 777 -20 q 643 -10 694 -14 q 535 -4 591 -7 q 429 -1 479 -1 q 310 -9 358 -1 q 224 -36 261 -17 q 173 -57 196 -52 q 127 -45 150 -62 q 101 -15 117 -36 q 73 35 86 5 q 51 105 60 65 q 41 193 41 146 q 86 358 41 279 q 205 509 131 437 q 377 644 279 581 q 582 761 475 707 q 635 797 625 783 q 646 827 646 811 q 641 844 646 835 q 616 852 636 852 l 321 852 q 289 827 289 852 q 294 797 289 811 q 298 762 298 782 q 271 695 298 722 q 197 668 244 668 q 122 699 149 668 q 96 766 96 729 q 103 806 96 786 q 110 857 110 825 q 105 904 110 880 q 100 947 100 928 q 123 1006 100 983 q 186 1029 147 1029 q 229 1026 205 1029 q 285 1021 252 1023 q 363 1015 318 1018 q 469 1013 408 1013 q 644 1021 579 1013 q 745 1029 708 1029 q 804 1008 779 1029 q 829 950 829 986 q 827 922 829 940 q 825 889 825 904 q 832 851 825 865 q 839 811 839 838 q 818 745 839 772 q 777 703 796 718 q 648 592 708 647 q 544 484 589 538 q 474 374 500 429 q 449 258 449 318 q 457 202 449 222 q 479 172 465 182 q 510 159 493 161 q 545 157 526 157 l 664 157 q 683 164 675 157 q 692 187 692 172 q 688 217 692 204 q 684 252 684 231 q 711 316 684 288 q 785 345 739 345 q 854 318 825 345 q 884 248 884 292 z "},"[":{"ha":486,"x_min":41,"x_max":472,"o":"m 472 -134 q 444 -196 472 -178 q 379 -215 415 -215 q 321 -206 351 -215 q 260 -197 290 -197 q 200 -205 225 -197 q 144 -214 175 -214 q 107 -208 126 -214 q 74 -191 89 -203 q 51 -160 60 -179 q 41 -113 41 -140 q 48 13 41 -57 q 61 159 54 82 q 74 320 68 236 q 81 489 81 404 q 76 688 81 595 q 64 860 71 781 q 53 1004 58 939 q 47 1118 47 1069 q 57 1166 47 1147 q 82 1197 66 1185 q 115 1213 97 1208 q 149 1217 132 1217 q 201 1208 176 1217 q 265 1200 227 1200 q 325 1209 300 1200 q 379 1218 350 1218 q 440 1201 411 1218 q 469 1140 469 1185 q 441 1076 469 1097 q 374 1055 414 1055 q 326 1063 350 1055 q 278 1071 302 1071 q 235 1060 253 1071 q 216 1018 216 1050 q 225 920 216 974 q 244 801 233 865 q 262 662 254 737 q 271 497 271 586 q 262 331 271 408 q 242 188 253 253 q 223 73 232 123 q 214 -12 214 22 q 233 -58 214 -47 q 267 -69 252 -69 q 325 -61 294 -69 q 385 -53 355 -53 q 444 -72 416 -53 q 472 -134 472 -90 z "},"\\":{"ha":664,"x_min":41,"x_max":623,"o":"m 41 1040 q 68 1110 41 1084 q 131 1136 94 1136 q 190 1119 163 1136 q 229 1065 216 1101 q 244 999 236 1043 q 272 900 253 954 q 295 836 277 889 q 341 708 314 783 q 400 547 368 633 q 460 381 432 460 q 510 242 489 302 q 541 160 532 182 q 567 96 553 123 q 594 47 582 69 q 615 6 607 25 q 623 -36 623 -14 q 595 -106 623 -78 q 526 -134 567 -134 q 476 -118 503 -134 q 436 -64 449 -102 q 421 -1 428 -40 q 396 92 414 39 q 380 137 393 102 q 349 224 367 172 q 308 338 330 275 q 261 467 285 401 q 215 594 237 532 q 173 709 192 657 q 141 797 154 761 q 125 842 129 832 q 96 909 111 880 q 69 960 81 937 q 49 1001 57 982 q 41 1040 41 1019 z "},"]":{"ha":486,"x_min":14,"x_max":444,"o":"m 14 -134 q 41 -72 14 -90 q 102 -53 69 -53 q 161 -61 131 -53 q 220 -69 192 -69 q 253 -58 235 -69 q 272 -12 272 -47 q 263 73 272 22 q 244 188 254 123 q 224 331 233 253 q 215 497 215 408 q 223 662 215 586 q 242 801 232 737 q 261 920 253 865 q 269 1018 269 974 q 251 1060 269 1050 q 208 1071 233 1071 q 160 1063 183 1071 q 113 1055 136 1055 q 44 1076 72 1055 q 17 1140 17 1097 q 46 1201 17 1185 q 107 1218 75 1218 q 161 1209 136 1218 q 221 1200 186 1200 q 285 1208 260 1200 q 338 1217 310 1217 q 371 1213 354 1217 q 404 1197 389 1208 q 429 1166 419 1185 q 439 1118 439 1147 q 434 1004 439 1069 q 423 860 429 939 q 411 688 416 781 q 406 489 406 595 q 412 320 406 404 q 425 159 418 236 q 438 13 432 82 q 444 -113 444 -57 q 435 -160 444 -140 q 412 -191 427 -179 q 379 -208 397 -203 q 342 -214 361 -214 q 286 -205 311 -214 q 227 -197 261 -197 q 165 -206 196 -197 q 107 -215 135 -215 q 42 -196 71 -215 q 14 -134 14 -178 z "},"^":{"ha":496,"x_min":41,"x_max":453,"o":"m 453 847 q 429 795 453 811 q 378 779 406 779 q 326 794 350 779 q 285 843 302 808 q 266 866 277 860 q 248 872 256 872 q 229 866 237 872 q 210 843 220 860 q 168 794 192 808 q 117 779 144 779 q 65 795 89 779 q 41 847 41 811 q 48 876 41 864 q 64 896 54 888 q 83 910 74 904 q 102 918 93 916 q 134 936 121 925 q 158 971 147 947 q 193 1014 172 999 q 248 1029 214 1029 q 301 1014 281 1029 q 336 971 322 999 q 360 936 347 947 q 393 918 374 925 q 411 910 401 916 q 431 896 421 904 q 447 876 440 888 q 453 847 453 864 z "},"_":{"ha":1105,"x_min":41,"x_max":1064,"o":"m 1064 -134 q 1058 -148 1064 -142 q 1042 -154 1051 -154 l 64 -154 q 48 -148 54 -154 q 41 -134 41 -142 q 48 -119 41 -125 q 64 -113 54 -113 l 1042 -113 q 1058 -119 1051 -113 q 1064 -134 1064 -125 z "},"`":{"ha":307,"x_min":41,"x_max":265,"o":"m 265 1089 q 256 1067 265 1076 q 228 1057 248 1057 q 178 1067 210 1057 q 116 1097 146 1076 q 64 1149 86 1117 q 41 1226 41 1181 q 73 1299 41 1275 q 138 1322 104 1322 q 167 1318 151 1322 q 196 1303 183 1314 q 219 1275 210 1293 q 228 1231 228 1257 q 226 1204 228 1217 q 224 1185 224 1192 q 230 1154 224 1166 q 244 1132 236 1141 q 259 1113 253 1122 q 265 1089 265 1103 z "},"|":{"ha":275,"x_min":41,"x_max":233,"o":"m 233 -25 q 208 -97 233 -65 q 138 -129 182 -129 q 67 -97 93 -129 q 41 -25 41 -65 q 49 63 41 9 q 57 176 57 117 l 57 825 q 49 940 57 886 q 41 1028 41 993 q 67 1100 41 1068 q 138 1132 93 1132 q 208 1100 182 1132 q 233 1028 233 1068 q 226 940 233 993 q 218 825 218 886 l 218 176 q 226 63 218 117 q 233 -25 233 9 z "},"~":{"ha":453,"x_min":41,"x_max":411,"o":"m 411 603 q 400 548 411 575 q 370 499 389 521 q 326 465 351 478 q 271 452 300 452 q 230 460 248 452 q 199 478 212 468 q 174 496 186 488 q 150 504 163 504 q 131 498 140 504 q 114 486 122 493 q 96 474 106 479 q 74 468 86 468 q 53 476 65 468 q 41 505 41 485 q 55 570 41 542 q 89 619 68 599 q 136 650 110 639 q 187 661 161 661 q 228 653 211 661 q 260 637 245 646 q 287 620 275 628 q 311 612 298 612 q 330 618 322 612 q 345 630 338 624 q 360 641 353 636 q 379 646 368 646 q 411 603 411 646 z "},"Ä":{"ha":1117,"x_min":41,"x_max":1075,"o":"m 806 183 q 843 147 806 147 q 879 151 863 147 q 909 154 896 154 q 970 131 945 154 q 996 66 996 107 q 971 4 996 28 q 909 -20 946 -20 q 859 -11 884 -20 q 798 -3 833 -3 q 740 -11 765 -3 q 688 -20 714 -20 q 618 4 642 -20 q 595 72 595 28 q 604 125 595 97 q 626 182 614 153 q 649 241 639 211 q 659 300 659 271 q 632 380 659 346 q 558 414 606 414 q 485 380 511 414 q 458 300 458 346 q 468 241 458 271 q 490 182 478 211 q 512 125 503 153 q 522 72 522 97 q 498 4 522 28 q 429 -20 475 -20 q 377 -11 403 -20 q 319 -3 351 -3 q 258 -11 283 -3 q 207 -20 233 -20 q 146 4 171 -20 q 121 66 121 28 q 146 131 121 107 q 207 154 172 154 q 238 151 221 154 q 273 147 254 147 q 311 183 311 147 q 291 224 311 205 q 241 263 271 243 q 176 309 211 283 q 112 370 142 335 q 62 455 82 406 q 41 572 41 504 q 82 745 41 661 q 192 895 122 829 q 357 1001 262 961 q 558 1040 452 1040 q 760 1001 665 1040 q 924 895 854 961 q 1035 745 994 829 q 1075 572 1075 661 q 1055 455 1075 504 q 1005 370 1035 406 q 940 309 975 335 q 876 263 905 283 q 826 224 846 243 q 806 183 806 205 m 742 599 q 731 696 742 646 q 696 788 720 746 q 640 856 673 829 q 558 882 606 882 q 477 856 511 882 q 420 788 443 829 q 386 696 397 746 q 375 599 375 646 q 384 533 375 551 q 404 514 393 514 q 427 525 414 514 q 458 550 440 536 q 500 575 476 564 q 558 586 525 586 q 616 575 591 586 q 658 550 640 564 q 689 525 676 536 q 713 514 703 514 q 733 533 724 514 q 742 599 742 551 m 521 1173 q 492 1100 521 1129 q 418 1071 463 1071 q 346 1100 375 1071 q 317 1173 317 1129 q 346 1244 317 1215 q 418 1274 375 1274 q 492 1244 463 1274 q 521 1173 521 1215 m 800 1173 q 771 1100 800 1129 q 697 1071 742 1071 q 625 1100 654 1071 q 596 1173 596 1129 q 625 1244 596 1215 q 697 1274 654 1274 q 771 1244 742 1274 q 800 1173 800 1215 z "},"ä":{"ha":1117,"x_min":41,"x_max":1075,"o":"m 806 183 q 843 147 806 147 q 879 151 863 147 q 909 154 896 154 q 970 131 945 154 q 996 66 996 107 q 971 4 996 28 q 909 -20 946 -20 q 859 -11 884 -20 q 798 -3 833 -3 q 740 -11 765 -3 q 688 -20 714 -20 q 618 4 642 -20 q 595 72 595 28 q 604 125 595 97 q 626 182 614 153 q 649 241 639 211 q 659 300 659 271 q 632 380 659 346 q 558 414 606 414 q 485 380 511 414 q 458 300 458 346 q 468 241 458 271 q 490 182 478 211 q 512 125 503 153 q 522 72 522 97 q 498 4 522 28 q 429 -20 475 -20 q 377 -11 403 -20 q 319 -3 351 -3 q 258 -11 283 -3 q 207 -20 233 -20 q 146 4 171 -20 q 121 66 121 28 q 146 131 121 107 q 207 154 172 154 q 238 151 221 154 q 273 147 254 147 q 311 183 311 147 q 291 224 311 205 q 241 263 271 243 q 176 309 211 283 q 112 370 142 335 q 62 455 82 406 q 41 572 41 504 q 82 745 41 661 q 192 895 122 829 q 357 1001 262 961 q 558 1040 452 1040 q 760 1001 665 1040 q 924 895 854 961 q 1035 745 994 829 q 1075 572 1075 661 q 1055 455 1075 504 q 1005 370 1035 406 q 940 309 975 335 q 876 263 905 283 q 826 224 846 243 q 806 183 806 205 m 742 599 q 731 696 742 646 q 696 788 720 746 q 640 856 673 829 q 558 882 606 882 q 477 856 511 882 q 420 788 443 829 q 386 696 397 746 q 375 599 375 646 q 384 533 375 551 q 404 514 393 514 q 427 525 414 514 q 458 550 440 536 q 500 575 476 564 q 558 586 525 586 q 616 575 591 586 q 658 550 640 564 q 689 525 676 536 q 713 514 703 514 q 733 533 724 514 q 742 599 742 551 m 521 1173 q 492 1100 521 1129 q 418 1071 463 1071 q 346 1100 375 1071 q 317 1173 317 1129 q 346 1244 317 1215 q 418 1274 375 1274 q 492 1244 463 1274 q 521 1173 521 1215 m 800 1173 q 771 1100 800 1129 q 697 1071 742 1071 q 625 1100 654 1071 q 596 1173 596 1129 q 625 1244 596 1215 q 697 1274 654 1274 q 771 1244 742 1274 q 800 1173 800 1215 z "},"Å":{"ha":1117,"x_min":41,"x_max":1075,"o":"m 806 183 q 843 147 806 147 q 879 151 863 147 q 909 154 896 154 q 970 131 945 154 q 996 66 996 107 q 971 4 996 28 q 909 -20 946 -20 q 859 -11 884 -20 q 798 -3 833 -3 q 740 -11 765 -3 q 688 -20 714 -20 q 618 4 642 -20 q 595 72 595 28 q 604 125 595 97 q 626 182 614 153 q 649 241 639 211 q 659 300 659 271 q 632 380 659 346 q 558 414 606 414 q 485 380 511 414 q 458 300 458 346 q 468 241 458 271 q 490 182 478 211 q 512 125 503 153 q 522 72 522 97 q 498 4 522 28 q 429 -20 475 -20 q 377 -11 403 -20 q 319 -3 351 -3 q 258 -11 283 -3 q 207 -20 233 -20 q 146 4 171 -20 q 121 66 121 28 q 146 131 121 107 q 207 154 172 154 q 238 151 221 154 q 273 147 254 147 q 311 183 311 147 q 291 224 311 205 q 241 263 271 243 q 176 309 211 283 q 112 370 142 335 q 62 455 82 406 q 41 572 41 504 q 82 745 41 661 q 192 895 122 829 q 357 1001 262 961 q 558 1040 452 1040 q 760 1001 665 1040 q 924 895 854 961 q 1035 745 994 829 q 1075 572 1075 661 q 1055 455 1075 504 q 1005 370 1035 406 q 940 309 975 335 q 876 263 905 283 q 826 224 846 243 q 806 183 806 205 m 742 599 q 731 696 742 646 q 696 788 720 746 q 640 856 673 829 q 558 882 606 882 q 477 856 511 882 q 420 788 443 829 q 386 696 397 746 q 375 599 375 646 q 384 533 375 551 q 404 514 393 514 q 427 525 414 514 q 458 550 440 536 q 500 575 476 564 q 558 586 525 586 q 616 575 591 586 q 658 550 640 564 q 689 525 676 536 q 713 514 703 514 q 733 533 724 514 q 742 599 742 551 m 701 1193 q 659 1105 701 1139 q 558 1071 616 1071 q 457 1105 500 1071 q 415 1193 415 1139 q 426 1240 415 1218 q 458 1279 437 1263 q 504 1304 478 1295 q 558 1314 529 1314 q 613 1304 587 1314 q 659 1279 639 1295 q 690 1240 679 1263 q 701 1193 701 1218 m 604 1242 q 591 1269 604 1257 q 558 1280 578 1280 q 526 1269 539 1280 q 513 1242 513 1257 q 526 1213 513 1223 q 558 1202 539 1202 q 591 1213 578 1202 q 604 1242 604 1223 z "},"å":{"ha":1117,"x_min":41,"x_max":1075,"o":"m 806 183 q 843 147 806 147 q 879 151 863 147 q 909 154 896 154 q 970 131 945 154 q 996 66 996 107 q 971 4 996 28 q 909 -20 946 -20 q 859 -11 884 -20 q 798 -3 833 -3 q 740 -11 765 -3 q 688 -20 714 -20 q 618 4 642 -20 q 595 72 595 28 q 604 125 595 97 q 626 182 614 153 q 649 241 639 211 q 659 300 659 271 q 632 380 659 346 q 558 414 606 414 q 485 380 511 414 q 458 300 458 346 q 468 241 458 271 q 490 182 478 211 q 512 125 503 153 q 522 72 522 97 q 498 4 522 28 q 429 -20 475 -20 q 377 -11 403 -20 q 319 -3 351 -3 q 258 -11 283 -3 q 207 -20 233 -20 q 146 4 171 -20 q 121 66 121 28 q 146 131 121 107 q 207 154 172 154 q 238 151 221 154 q 273 147 254 147 q 311 183 311 147 q 291 224 311 205 q 241 263 271 243 q 176 309 211 283 q 112 370 142 335 q 62 455 82 406 q 41 572 41 504 q 82 745 41 661 q 192 895 122 829 q 357 1001 262 961 q 558 1040 452 1040 q 760 1001 665 1040 q 924 895 854 961 q 1035 745 994 829 q 1075 572 1075 661 q 1055 455 1075 504 q 1005 370 1035 406 q 940 309 975 335 q 876 263 905 283 q 826 224 846 243 q 806 183 806 205 m 742 599 q 731 696 742 646 q 696 788 720 746 q 640 856 673 829 q 558 882 606 882 q 477 856 511 882 q 420 788 443 829 q 386 696 397 746 q 375 599 375 646 q 384 533 375 551 q 404 514 393 514 q 427 525 414 514 q 458 550 440 536 q 500 575 476 564 q 558 586 525 586 q 616 575 591 586 q 658 550 640 564 q 689 525 676 536 q 713 514 703 514 q 733 533 724 514 q 742 599 742 551 m 701 1193 q 659 1105 701 1139 q 558 1071 616 1071 q 457 1105 500 1071 q 415 1193 415 1139 q 426 1240 415 1218 q 458 1279 437 1263 q 504 1304 478 1295 q 558 1314 529 1314 q 613 1304 587 1314 q 659 1279 639 1295 q 690 1240 679 1263 q 701 1193 701 1218 m 604 1242 q 591 1269 604 1257 q 558 1280 578 1280 q 526 1269 539 1280 q 513 1242 513 1257 q 526 1213 513 1223 q 558 1202 539 1202 q 591 1213 578 1202 q 604 1242 604 1223 z "},"Ç":{"ha":1038,"x_min":41,"x_max":1028,"o":"m 728 -171 q 690 -257 728 -224 q 595 -290 653 -290 q 531 -277 559 -290 q 483 -242 503 -264 q 451 -193 463 -221 q 440 -135 440 -164 q 448 -108 440 -117 q 467 -100 456 -100 q 488 -105 479 -100 q 505 -115 496 -110 q 526 -124 514 -119 q 554 -129 538 -129 q 598 -116 576 -129 q 621 -75 621 -103 q 614 -48 621 -61 q 599 -36 608 -36 q 384 3 485 -36 q 207 114 282 43 q 86 282 131 184 q 41 498 41 380 q 90 725 41 625 q 216 895 139 825 q 388 1003 293 965 q 578 1040 484 1040 q 702 1025 639 1040 q 818 979 765 1010 q 904 902 871 949 q 937 793 937 856 q 899 685 937 724 q 804 647 860 647 q 718 677 755 647 q 681 761 681 708 q 691 807 681 793 q 701 838 701 821 q 692 857 701 848 q 665 870 682 865 q 627 878 648 875 q 583 880 606 880 q 468 858 524 880 q 369 794 412 835 q 301 696 326 753 q 277 574 277 640 q 303 463 277 511 q 369 380 329 414 q 457 330 410 347 q 547 313 505 313 q 660 338 611 313 q 749 406 708 363 q 799 428 770 428 q 827 419 812 428 q 851 387 842 411 q 915 286 875 328 q 997 215 956 244 q 1024 172 1021 200 q 1010 123 1028 143 q 956 74 987 98 q 883 28 924 49 q 793 -9 843 7 q 684 -33 743 -25 q 665 -39 668 -36 q 661 -45 661 -41 q 672 -67 661 -54 q 694 -95 682 -79 q 717 -129 707 -110 q 728 -171 728 -149 z "},"ç":{"ha":1038,"x_min":41,"x_max":1028,"o":"m 728 -171 q 690 -257 728 -224 q 595 -290 653 -290 q 531 -277 559 -290 q 483 -242 503 -264 q 451 -193 463 -221 q 440 -135 440 -164 q 448 -108 440 -117 q 467 -100 456 -100 q 488 -105 479 -100 q 505 -115 496 -110 q 526 -124 514 -119 q 554 -129 538 -129 q 598 -116 576 -129 q 621 -75 621 -103 q 614 -48 621 -61 q 599 -36 608 -36 q 384 3 485 -36 q 207 114 282 43 q 86 282 131 184 q 41 498 41 380 q 90 725 41 625 q 216 895 139 825 q 388 1003 293 965 q 578 1040 484 1040 q 702 1025 639 1040 q 818 979 765 1010 q 904 902 871 949 q 937 793 937 856 q 899 685 937 724 q 804 647 860 647 q 718 677 755 647 q 681 761 681 708 q 691 807 681 793 q 701 838 701 821 q 692 857 701 848 q 665 870 682 865 q 627 878 648 875 q 583 880 606 880 q 468 858 524 880 q 369 794 412 835 q 301 696 326 753 q 277 574 277 640 q 303 463 277 511 q 369 380 329 414 q 457 330 410 347 q 547 313 505 313 q 660 338 611 313 q 749 406 708 363 q 799 428 770 428 q 827 419 812 428 q 851 387 842 411 q 915 286 875 328 q 997 215 956 244 q 1024 172 1021 200 q 1010 123 1028 143 q 956 74 987 98 q 883 28 924 49 q 793 -9 843 7 q 684 -33 743 -25 q 665 -39 668 -36 q 661 -45 661 -41 q 672 -67 661 -54 q 694 -95 682 -79 q 717 -129 707 -110 q 728 -171 728 -149 z "},"É":{"ha":982,"x_min":41,"x_max":940,"o":"m 229 811 q 221 849 229 839 q 199 859 212 859 q 174 857 186 859 q 149 856 163 856 q 90 879 115 856 q 64 942 64 901 q 89 1004 64 979 q 154 1029 114 1029 q 204 1026 171 1029 q 283 1020 237 1023 q 384 1014 329 1017 q 497 1011 439 1011 q 615 1014 568 1011 q 696 1020 663 1017 q 753 1026 729 1023 q 800 1029 777 1029 q 865 1008 840 1029 q 890 947 890 987 q 885 906 890 928 q 880 856 880 884 q 886 809 880 828 q 892 766 892 790 q 862 696 892 722 q 794 669 832 669 q 722 694 751 669 q 692 762 692 718 q 696 791 692 774 q 700 823 700 808 q 694 844 700 836 q 671 852 688 852 l 490 852 q 454 850 468 852 q 432 842 440 848 q 420 820 424 835 q 416 777 416 804 l 416 755 q 419 709 416 726 q 429 683 422 692 q 449 671 436 673 q 481 668 461 668 q 537 672 509 668 q 593 676 566 676 q 622 671 607 676 q 650 655 637 665 q 671 628 663 644 q 679 590 679 611 q 671 552 679 568 q 650 525 663 536 q 622 508 637 514 q 593 503 607 503 q 540 506 568 503 q 488 510 511 510 q 435 491 453 510 q 416 429 416 472 q 418 385 416 403 q 426 356 419 367 q 448 341 433 346 q 490 336 463 336 l 690 336 q 712 345 705 336 q 718 366 718 353 q 714 396 718 382 q 710 431 710 410 q 742 514 710 482 q 822 546 774 546 q 902 514 868 546 q 936 418 936 482 q 926 344 936 382 q 916 258 916 306 q 928 142 916 186 q 940 75 940 98 q 911 3 940 26 q 846 -20 882 -20 q 794 -17 821 -20 q 734 -9 768 -14 q 655 -3 700 -5 q 550 0 611 0 q 421 -3 476 0 q 322 -9 366 -5 q 248 -17 279 -14 q 193 -20 216 -20 q 41 186 41 -20 q 54 268 41 236 q 85 319 66 300 q 124 345 103 338 q 160 353 144 353 q 182 349 172 353 q 207 345 192 345 q 224 358 220 345 q 229 393 229 371 l 229 811 m 603 1226 q 581 1149 603 1181 q 528 1097 558 1117 q 467 1067 498 1076 q 416 1057 436 1057 q 388 1067 397 1057 q 379 1089 379 1076 q 386 1113 379 1103 q 400 1132 392 1122 q 415 1154 408 1141 q 421 1185 421 1166 q 419 1204 421 1192 q 416 1231 416 1217 q 426 1275 416 1257 q 449 1303 435 1293 q 478 1318 463 1314 q 507 1322 493 1322 q 572 1299 541 1322 q 603 1226 603 1275 z "},"é":{"ha":982,"x_min":41,"x_max":940,"o":"m 229 811 q 221 849 229 839 q 199 859 212 859 q 174 857 186 859 q 149 856 163 856 q 90 879 115 856 q 64 942 64 901 q 89 1004 64 979 q 154 1029 114 1029 q 204 1026 171 1029 q 283 1020 237 1023 q 384 1014 329 1017 q 497 1011 439 1011 q 615 1014 568 1011 q 696 1020 663 1017 q 753 1026 729 1023 q 800 1029 777 1029 q 865 1008 840 1029 q 890 947 890 987 q 885 906 890 928 q 880 856 880 884 q 886 809 880 828 q 892 766 892 790 q 862 696 892 722 q 794 669 832 669 q 722 694 751 669 q 692 762 692 718 q 696 791 692 774 q 700 823 700 808 q 694 844 700 836 q 671 852 688 852 l 490 852 q 454 850 468 852 q 432 842 440 848 q 420 820 424 835 q 416 777 416 804 l 416 755 q 419 709 416 726 q 429 683 422 692 q 449 671 436 673 q 481 668 461 668 q 537 672 509 668 q 593 676 566 676 q 622 671 607 676 q 650 655 637 665 q 671 628 663 644 q 679 590 679 611 q 671 552 679 568 q 650 525 663 536 q 622 508 637 514 q 593 503 607 503 q 540 506 568 503 q 488 510 511 510 q 435 491 453 510 q 416 429 416 472 q 418 385 416 403 q 426 356 419 367 q 448 341 433 346 q 490 336 463 336 l 690 336 q 712 345 705 336 q 718 366 718 353 q 714 396 718 382 q 710 431 710 410 q 742 514 710 482 q 822 546 774 546 q 902 514 868 546 q 936 418 936 482 q 926 344 936 382 q 916 258 916 306 q 928 142 916 186 q 940 75 940 98 q 911 3 940 26 q 846 -20 882 -20 q 794 -17 821 -20 q 734 -9 768 -14 q 655 -3 700 -5 q 550 0 611 0 q 421 -3 476 0 q 322 -9 366 -5 q 248 -17 279 -14 q 193 -20 216 -20 q 41 186 41 -20 q 54 268 41 236 q 85 319 66 300 q 124 345 103 338 q 160 353 144 353 q 182 349 172 353 q 207 345 192 345 q 224 358 220 345 q 229 393 229 371 l 229 811 m 603 1226 q 581 1149 603 1181 q 528 1097 558 1117 q 467 1067 498 1076 q 416 1057 436 1057 q 388 1067 397 1057 q 379 1089 379 1076 q 386 1113 379 1103 q 400 1132 392 1122 q 415 1154 408 1141 q 421 1185 421 1166 q 419 1204 421 1192 q 416 1231 416 1217 q 426 1275 416 1257 q 449 1303 435 1293 q 478 1318 463 1314 q 507 1322 493 1322 q 572 1299 541 1322 q 603 1226 603 1275 z "},"ñ":{"ha":1203,"x_min":41,"x_max":1154,"o":"m 207 804 q 197 847 207 835 q 171 860 187 860 q 144 858 155 860 q 118 856 134 856 q 65 876 86 856 q 45 928 45 896 q 59 970 45 951 q 99 1002 74 989 q 158 1022 123 1015 q 229 1029 192 1029 q 303 1022 260 1029 q 396 997 346 1015 q 500 945 446 978 q 607 861 555 913 q 687 769 656 812 q 738 690 718 725 q 768 627 758 654 q 783 585 778 600 q 794 570 787 570 q 802 586 802 570 l 802 945 q 822 1005 802 981 q 880 1029 842 1029 q 923 1024 901 1029 q 978 1018 945 1018 q 1024 1024 1006 1018 q 1064 1029 1042 1029 q 1129 1004 1104 1029 q 1154 942 1154 979 q 1128 879 1154 901 q 1069 856 1103 856 q 1042 857 1054 856 q 1019 859 1029 859 q 995 844 1000 859 q 989 810 989 829 l 989 200 q 995 166 989 180 q 1019 151 1000 151 q 1042 153 1029 151 q 1069 154 1054 154 q 1128 131 1103 154 q 1154 68 1154 109 q 1129 5 1154 31 q 1064 -20 1104 -20 q 1036 -17 1054 -20 q 995 -11 1018 -14 q 947 -5 972 -8 q 899 -3 922 -3 q 795 -11 836 -3 q 726 -20 754 -20 q 661 5 686 -20 q 636 68 636 31 q 662 131 636 109 q 721 154 688 154 q 746 153 734 154 q 771 151 758 151 q 794 161 785 151 q 803 199 803 171 l 803 225 q 776 312 803 269 q 704 390 749 355 q 603 445 660 424 q 485 467 546 467 q 415 442 436 467 q 395 374 395 418 l 395 200 q 400 166 395 180 q 425 151 406 151 q 447 153 435 151 q 475 154 460 154 q 534 131 509 154 q 559 68 559 109 q 535 5 559 31 q 469 -20 510 -20 q 442 -17 460 -20 q 401 -11 424 -14 q 353 -5 378 -8 q 304 -3 328 -3 q 201 -11 241 -3 q 132 -20 160 -20 q 66 5 92 -20 q 41 68 41 31 q 67 131 41 109 q 126 154 93 154 q 152 153 140 154 q 176 151 164 151 q 199 161 191 151 q 207 199 207 171 l 207 804 m 786 1218 q 775 1163 786 1190 q 745 1115 764 1136 q 701 1080 726 1093 q 646 1067 675 1067 q 605 1075 623 1067 q 574 1093 587 1083 q 549 1111 561 1103 q 525 1120 538 1120 q 506 1114 515 1120 q 489 1101 497 1108 q 471 1089 481 1095 q 449 1083 461 1083 q 428 1092 440 1083 q 416 1121 416 1100 q 430 1185 416 1157 q 464 1234 443 1214 q 511 1265 485 1254 q 562 1276 536 1276 q 603 1269 586 1276 q 635 1252 621 1261 q 662 1235 650 1243 q 686 1227 673 1227 q 705 1233 697 1227 q 720 1245 713 1239 q 735 1256 728 1251 q 754 1261 743 1261 q 786 1218 786 1261 z "},"Ñ":{"ha":1196,"x_min":41,"x_max":1154,"o":"m 207 804 q 197 847 207 835 q 171 860 187 860 q 144 858 155 860 q 118 856 134 856 q 65 876 86 856 q 45 928 45 896 q 59 970 45 951 q 99 1002 74 989 q 158 1022 123 1015 q 229 1029 192 1029 q 303 1022 260 1029 q 396 997 346 1015 q 500 945 446 978 q 607 861 555 913 q 687 769 656 812 q 738 690 718 725 q 768 627 758 654 q 783 585 778 600 q 794 570 787 570 q 802 586 802 570 l 802 945 q 822 1005 802 981 q 880 1029 842 1029 q 923 1024 901 1029 q 978 1018 945 1018 q 1024 1024 1006 1018 q 1064 1029 1042 1029 q 1129 1004 1104 1029 q 1154 942 1154 979 q 1128 879 1154 901 q 1069 856 1103 856 q 1042 857 1054 856 q 1019 859 1029 859 q 995 844 1000 859 q 989 810 989 829 l 989 200 q 995 166 989 180 q 1019 151 1000 151 q 1042 153 1029 151 q 1069 154 1054 154 q 1128 131 1103 154 q 1154 68 1154 109 q 1129 5 1154 31 q 1064 -20 1104 -20 q 1036 -17 1054 -20 q 995 -11 1018 -14 q 947 -5 972 -8 q 899 -3 922 -3 q 795 -11 836 -3 q 726 -20 754 -20 q 661 5 686 -20 q 636 68 636 31 q 662 131 636 109 q 721 154 688 154 q 746 153 734 154 q 771 151 758 151 q 794 161 785 151 q 803 199 803 171 l 803 225 q 776 312 803 269 q 704 390 749 355 q 603 445 660 424 q 485 467 546 467 q 415 442 436 467 q 395 374 395 418 l 395 200 q 400 166 395 180 q 425 151 406 151 q 447 153 435 151 q 475 154 460 154 q 534 131 509 154 q 559 68 559 109 q 535 5 559 31 q 469 -20 510 -20 q 442 -17 460 -20 q 401 -11 424 -14 q 353 -5 378 -8 q 304 -3 328 -3 q 201 -11 241 -3 q 132 -20 160 -20 q 66 5 92 -20 q 41 68 41 31 q 67 131 41 109 q 126 154 93 154 q 152 153 140 154 q 176 151 164 151 q 199 161 191 151 q 207 199 207 171 l 207 804 m 786 1218 q 775 1163 786 1190 q 745 1115 764 1136 q 701 1080 726 1093 q 646 1067 675 1067 q 605 1075 623 1067 q 574 1093 587 1083 q 549 1111 561 1103 q 525 1120 538 1120 q 506 1114 515 1120 q 489 1101 497 1108 q 471 1089 481 1095 q 449 1083 461 1083 q 428 1092 440 1083 q 416 1121 416 1100 q 430 1185 416 1157 q 464 1234 443 1214 q 511 1265 485 1254 q 562 1276 536 1276 q 603 1269 586 1276 q 635 1252 621 1261 q 662 1235 650 1243 q 686 1227 673 1227 q 705 1233 697 1227 q 720 1245 713 1239 q 735 1256 728 1251 q 754 1261 743 1261 q 786 1218 786 1261 z "},"Ö":{"ha":1161,"x_min":41,"x_max":1120,"o":"m 1120 498 q 1079 294 1120 390 q 967 124 1039 197 q 795 7 895 50 q 579 -36 696 -36 q 368 6 467 -36 q 197 122 269 49 q 83 292 125 195 q 41 500 41 390 q 88 720 41 621 q 211 890 135 819 q 384 1001 286 961 q 582 1040 481 1040 q 780 1001 684 1040 q 952 890 876 961 q 1074 719 1028 819 q 1120 498 1120 619 m 847 396 q 828 493 847 444 q 773 581 808 542 q 688 644 737 619 q 579 668 639 668 q 472 644 521 668 q 388 581 424 619 q 333 493 353 542 q 314 396 314 444 q 335 286 314 336 q 394 198 357 235 q 478 140 431 161 q 579 119 526 119 q 682 140 633 119 q 767 198 730 161 q 826 286 804 235 q 847 396 847 336 m 543 1173 q 514 1100 543 1129 q 440 1071 485 1071 q 368 1100 397 1071 q 339 1173 339 1129 q 368 1244 339 1215 q 440 1274 397 1274 q 514 1244 485 1274 q 543 1173 543 1215 m 822 1173 q 793 1100 822 1129 q 720 1071 764 1071 q 647 1100 676 1071 q 618 1173 618 1129 q 647 1244 618 1215 q 720 1274 676 1274 q 793 1244 764 1274 q 822 1173 822 1215 z "},"ö":{"ha":1161,"x_min":41,"x_max":1120,"o":"m 1120 498 q 1079 294 1120 390 q 967 124 1039 197 q 795 7 895 50 q 579 -36 696 -36 q 368 6 467 -36 q 197 122 269 49 q 83 292 125 195 q 41 500 41 390 q 88 720 41 621 q 211 890 135 819 q 384 1001 286 961 q 582 1040 481 1040 q 780 1001 684 1040 q 952 890 876 961 q 1074 719 1028 819 q 1120 498 1120 619 m 847 396 q 828 493 847 444 q 773 581 808 542 q 688 644 737 619 q 579 668 639 668 q 472 644 521 668 q 388 581 424 619 q 333 493 353 542 q 314 396 314 444 q 335 286 314 336 q 394 198 357 235 q 478 140 431 161 q 579 119 526 119 q 682 140 633 119 q 767 198 730 161 q 826 286 804 235 q 847 396 847 336 m 543 1173 q 514 1100 543 1129 q 440 1071 485 1071 q 368 1100 397 1071 q 339 1173 339 1129 q 368 1244 339 1215 q 440 1274 397 1274 q 514 1244 485 1274 q 543 1173 543 1215 m 822 1173 q 793 1100 822 1129 q 720 1071 764 1071 q 647 1100 676 1071 q 618 1173 618 1129 q 647 1244 618 1215 q 720 1274 676 1274 q 793 1244 764 1274 q 822 1173 822 1215 z "},"Ü":{"ha":1161,"x_min":41,"x_max":1120,"o":"m 954 200 q 960 166 954 180 q 985 151 965 151 q 1007 153 994 151 q 1035 154 1019 154 q 1094 131 1068 154 q 1120 68 1120 109 q 1095 5 1120 31 q 1029 -20 1069 -20 q 983 -11 1002 -20 q 932 -3 964 -3 q 879 -11 900 -3 q 831 -20 857 -20 q 775 3 796 -20 q 754 56 754 25 q 765 129 754 96 q 775 192 775 161 q 765 212 775 208 q 743 199 754 215 q 684 122 720 161 q 601 52 648 83 q 494 1 554 21 q 364 -20 435 -20 q 229 6 289 -20 q 128 77 170 32 q 64 182 86 122 q 41 310 41 241 q 71 465 41 392 q 141 603 100 538 q 225 726 182 668 q 294 835 268 783 q 278 867 311 867 q 237 861 256 867 q 196 856 218 856 q 137 879 163 856 q 111 942 111 901 q 136 1004 111 979 q 201 1029 161 1029 q 249 1020 218 1029 q 321 1011 279 1011 q 389 1020 357 1011 q 441 1029 421 1029 q 502 1010 476 1029 q 528 949 528 990 q 504 871 528 917 q 450 770 479 825 q 397 652 421 714 q 372 525 372 590 q 390 422 372 464 q 436 355 408 380 q 500 320 464 330 q 571 310 536 310 q 716 376 667 310 q 766 549 766 441 l 766 811 q 758 849 766 839 q 736 859 750 859 q 712 857 724 859 q 686 856 700 856 q 627 879 653 856 q 602 942 602 901 q 627 1004 602 979 q 692 1029 652 1029 q 761 1021 720 1029 q 864 1013 802 1013 q 912 1015 888 1013 q 960 1021 937 1018 q 1001 1026 983 1023 q 1029 1029 1019 1029 q 1095 1004 1069 1029 q 1120 942 1120 979 q 1094 879 1120 901 q 1035 856 1068 856 q 1007 857 1019 856 q 985 859 994 859 q 960 844 965 859 q 954 810 954 829 l 954 200 m 545 1173 q 515 1100 545 1129 q 441 1071 486 1071 q 370 1100 399 1071 q 340 1173 340 1129 q 370 1244 340 1215 q 441 1274 399 1274 q 515 1244 486 1274 q 545 1173 545 1215 m 823 1173 q 794 1100 823 1129 q 721 1071 765 1071 q 648 1100 677 1071 q 619 1173 619 1129 q 648 1244 619 1215 q 721 1274 677 1274 q 794 1244 765 1274 q 823 1173 823 1215 z "},"ü":{"ha":1161,"x_min":41,"x_max":1120,"o":"m 954 200 q 960 166 954 180 q 985 151 965 151 q 1007 153 994 151 q 1035 154 1019 154 q 1094 131 1068 154 q 1120 68 1120 109 q 1095 5 1120 31 q 1029 -20 1069 -20 q 983 -11 1002 -20 q 932 -3 964 -3 q 879 -11 900 -3 q 831 -20 857 -20 q 775 3 796 -20 q 754 56 754 25 q 765 129 754 96 q 775 192 775 161 q 765 212 775 208 q 743 199 754 215 q 684 122 720 161 q 601 52 648 83 q 494 1 554 21 q 364 -20 435 -20 q 229 6 289 -20 q 128 77 170 32 q 64 182 86 122 q 41 310 41 241 q 71 465 41 392 q 141 603 100 538 q 225 726 182 668 q 294 835 268 783 q 278 867 311 867 q 237 861 256 867 q 196 856 218 856 q 137 879 163 856 q 111 942 111 901 q 136 1004 111 979 q 201 1029 161 1029 q 249 1020 218 1029 q 321 1011 279 1011 q 389 1020 357 1011 q 441 1029 421 1029 q 502 1010 476 1029 q 528 949 528 990 q 504 871 528 917 q 450 770 479 825 q 397 652 421 714 q 372 525 372 590 q 390 422 372 464 q 436 355 408 380 q 500 320 464 330 q 571 310 536 310 q 716 376 667 310 q 766 549 766 441 l 766 811 q 758 849 766 839 q 736 859 750 859 q 712 857 724 859 q 686 856 700 856 q 627 879 653 856 q 602 942 602 901 q 627 1004 602 979 q 692 1029 652 1029 q 761 1021 720 1029 q 864 1013 802 1013 q 912 1015 888 1013 q 960 1021 937 1018 q 1001 1026 983 1023 q 1029 1029 1019 1029 q 1095 1004 1069 1029 q 1120 942 1120 979 q 1094 879 1120 901 q 1035 856 1068 856 q 1007 857 1019 856 q 985 859 994 859 q 960 844 965 859 q 954 810 954 829 l 954 200 m 545 1173 q 515 1100 545 1129 q 441 1071 486 1071 q 370 1100 399 1071 q 340 1173 340 1129 q 370 1244 340 1215 q 441 1274 399 1274 q 515 1244 486 1274 q 545 1173 545 1215 m 823 1173 q 794 1100 823 1129 q 721 1071 765 1071 q 648 1100 677 1071 q 619 1173 619 1129 q 648 1244 619 1215 q 721 1274 677 1274 q 794 1244 765 1274 q 823 1173 823 1215 z "},"°":{"ha":479,"x_min":41,"x_max":437,"o":"m 437 806 q 423 719 437 760 q 382 647 408 677 q 319 598 355 616 q 240 581 283 581 q 160 598 197 581 q 97 647 123 616 q 56 719 71 677 q 41 806 41 760 q 56 891 41 851 q 97 962 71 932 q 160 1011 123 993 q 240 1029 197 1029 q 314 1013 278 1029 q 377 967 350 997 q 421 897 404 937 q 437 806 437 856 m 306 843 q 283 906 306 885 q 240 926 261 926 q 195 905 216 926 q 174 843 174 884 q 193 785 174 807 q 240 762 212 762 q 287 785 268 762 q 306 843 306 807 z "},"¢":{"ha":930,"x_min":41,"x_max":917,"o":"m 900 165 q 845 117 879 142 q 767 70 811 92 q 671 34 724 49 q 559 18 618 20 q 543 16 549 18 q 539 4 536 14 q 544 -22 542 -7 q 546 -53 546 -37 q 523 -112 546 -90 q 471 -134 500 -134 q 418 -113 441 -134 q 395 -53 395 -93 q 399 -13 395 -29 q 404 20 404 3 q 399 33 404 28 q 378 43 395 37 q 241 110 302 66 q 135 216 179 154 q 66 355 90 278 q 41 524 41 432 q 72 687 41 612 q 150 819 102 762 q 260 915 199 876 q 383 971 321 954 q 399 977 395 974 q 401 991 403 981 q 397 1020 400 1003 q 395 1054 395 1036 q 417 1114 395 1092 q 471 1136 439 1136 q 524 1114 500 1136 q 547 1051 547 1092 q 546 1028 547 1042 q 542 1003 545 1014 q 559 987 539 987 q 656 973 611 986 q 735 939 701 960 q 790 890 770 918 q 810 832 810 863 q 785 771 810 794 q 724 749 760 749 q 669 763 693 749 q 626 796 646 778 q 588 828 606 814 q 550 843 570 843 q 533 825 533 843 l 533 359 q 537 345 533 347 q 551 343 542 342 q 623 369 591 349 q 675 416 654 390 q 725 437 694 440 q 771 399 755 435 q 822 323 787 361 q 888 258 856 285 q 916 210 916 235 q 900 165 917 184 m 412 821 q 397 829 412 835 q 283 732 326 803 q 240 570 240 661 q 255 478 240 515 q 294 415 271 440 q 342 375 317 390 q 385 354 367 361 q 404 351 396 350 q 412 368 412 353 l 412 821 z "},"£":{"ha":958,"x_min":41,"x_max":921,"o":"m 493 1040 q 597 1024 546 1040 q 690 977 648 1007 q 758 902 732 946 q 783 804 783 859 q 771 737 783 766 q 740 687 760 708 q 696 656 721 667 q 646 646 672 646 q 602 653 624 646 q 564 676 581 661 q 537 713 547 692 q 526 764 526 734 q 537 813 526 796 q 547 847 547 831 q 532 877 547 867 q 492 888 517 888 q 420 853 443 888 q 397 774 397 819 l 397 612 q 403 601 397 606 q 422 596 408 596 q 453 596 436 596 q 488 597 471 596 q 519 600 505 599 q 541 600 533 600 q 583 583 564 600 q 603 538 603 566 q 584 492 603 510 q 542 473 566 473 q 523 475 536 473 q 490 477 509 476 q 453 479 472 478 q 418 481 433 481 q 397 465 397 481 l 397 386 q 418 328 397 346 q 475 310 439 310 q 547 323 514 310 q 604 359 579 336 q 644 413 628 382 q 664 479 660 444 q 694 517 668 510 q 749 504 721 524 q 806 452 779 482 q 856 390 833 422 q 893 328 878 358 q 914 272 908 297 q 916 218 921 244 q 897 171 911 192 q 829 92 871 129 q 733 26 787 54 q 613 -19 679 -3 q 471 -36 547 -36 q 301 -9 379 -36 q 165 61 222 17 q 74 165 107 106 q 41 293 41 225 q 56 337 41 322 q 92 353 71 353 q 120 347 109 353 q 142 335 132 342 q 164 322 153 328 q 191 317 175 317 q 207 327 204 317 q 210 347 210 336 l 210 458 q 207 473 210 468 q 193 478 204 478 q 167 476 179 478 q 144 473 155 473 q 97 492 115 473 q 79 538 79 510 q 99 584 79 568 q 143 600 119 600 q 170 598 160 600 q 193 596 180 596 q 210 610 210 596 l 210 750 q 284 963 210 886 q 493 1040 359 1040 z "},"•":{"ha":380,"x_min":41,"x_max":339,"o":"m 339 583 q 327 526 339 553 q 295 480 315 500 q 248 448 275 460 q 191 436 221 436 q 133 448 160 436 q 85 480 106 460 q 53 526 65 500 q 41 583 41 553 q 53 641 41 614 q 85 687 65 668 q 133 719 106 707 q 191 730 160 730 q 248 719 221 730 q 295 687 275 707 q 327 641 315 668 q 339 583 339 614 z "},"ß":{"ha":1557,"x_min":12,"x_max":1529,"o":"m 814 431 q 867 481 842 463 q 916 500 892 500 q 948 482 939 500 q 964 440 957 464 q 982 396 970 422 q 1017 346 994 370 q 1075 306 1040 322 q 1160 289 1109 289 q 1221 304 1196 289 q 1246 349 1246 319 q 1240 376 1246 363 q 1218 403 1234 389 q 1177 435 1203 418 q 1108 472 1150 452 q 981 549 1034 511 q 896 626 929 586 q 848 708 863 665 q 833 798 833 750 q 856 902 833 857 q 917 978 878 947 q 1010 1024 957 1008 q 1124 1040 1063 1040 q 1240 1025 1181 1040 q 1346 981 1299 1010 q 1423 909 1393 951 q 1453 811 1453 867 q 1441 752 1453 778 q 1410 708 1429 726 q 1368 679 1392 689 q 1321 669 1344 669 q 1233 699 1271 669 q 1196 778 1196 729 q 1202 815 1196 802 q 1208 844 1208 828 q 1187 875 1208 864 q 1126 886 1166 886 q 1047 865 1079 886 q 1015 800 1015 844 q 1032 749 1015 774 q 1079 703 1048 725 q 1151 659 1109 681 q 1242 612 1192 636 q 1354 550 1301 583 q 1446 476 1407 517 q 1507 384 1485 435 q 1529 269 1529 334 q 1501 144 1529 200 q 1424 47 1474 87 q 1306 -15 1375 7 q 1154 -36 1238 -36 q 1031 -23 1088 -36 q 931 9 975 -9 q 853 48 886 28 q 802 85 821 69 q 787 94 790 94 q 772 83 783 94 q 734 48 758 68 q 672 9 710 28 q 583 -23 635 -9 q 464 -36 532 -36 q 333 -21 397 -36 q 213 20 269 -7 q 110 86 157 47 q 29 172 62 125 q 16 206 20 186 q 18 253 12 227 q 40 313 24 279 q 89 387 57 347 q 170 476 139 453 q 225 500 201 500 q 258 482 249 500 q 273 440 267 464 q 292 396 279 422 q 327 346 304 370 q 385 306 350 322 q 469 289 419 289 q 530 304 505 289 q 555 349 555 319 q 549 376 555 363 q 528 403 543 389 q 486 435 513 418 q 418 472 460 452 q 291 549 343 511 q 205 626 239 586 q 158 708 172 665 q 143 798 143 750 q 165 902 143 857 q 227 978 187 947 q 319 1024 267 1008 q 433 1040 372 1040 q 549 1025 490 1040 q 655 981 608 1010 q 732 909 703 951 q 762 811 762 867 q 751 752 762 778 q 720 708 739 726 q 678 679 701 689 q 631 669 654 669 q 543 699 581 669 q 505 778 505 729 q 512 815 505 802 q 518 844 518 828 q 497 875 518 864 q 436 886 476 886 q 357 865 389 886 q 325 800 325 844 q 341 749 325 774 q 389 703 358 725 q 460 659 419 681 q 551 612 501 636 q 652 557 611 583 q 720 509 693 532 q 763 467 747 486 q 790 431 779 447 q 802 422 798 421 q 814 431 807 422 z "},"®":{"ha":1164,"x_min":41,"x_max":1122,"o":"m 1122 501 q 1074 274 1122 374 q 948 105 1026 174 q 772 0 871 36 q 574 -36 673 -36 q 388 0 482 -36 q 216 105 293 36 q 90 274 139 174 q 41 500 41 374 q 81 704 41 607 q 192 877 121 802 q 360 996 262 951 q 576 1040 458 1040 q 805 993 704 1040 q 976 870 905 946 q 1085 698 1047 794 q 1122 501 1122 602 m 949 568 q 918 716 949 650 q 834 830 886 783 q 715 904 782 878 q 578 930 648 930 q 432 901 498 930 q 317 821 366 871 q 241 705 268 771 q 214 567 214 639 q 241 428 214 494 q 316 310 268 361 q 431 227 364 258 q 579 196 498 196 q 729 224 661 196 q 845 301 796 252 q 922 419 895 350 q 949 568 949 488 m 861 436 q 825 345 861 375 q 747 314 789 314 q 684 328 711 314 q 637 364 657 342 q 604 416 618 386 q 579 476 590 446 q 539 514 567 514 q 518 505 526 514 q 510 476 510 496 l 510 439 q 514 418 510 424 q 525 412 518 412 q 535 414 529 412 q 547 415 541 415 q 578 404 562 415 q 595 368 595 392 q 579 330 595 345 q 545 315 564 315 q 506 319 525 315 q 460 323 488 323 q 406 319 431 323 q 372 314 380 314 q 331 331 345 314 q 317 367 317 347 q 333 404 317 392 q 364 416 349 416 q 380 416 372 416 q 395 415 387 415 q 411 441 411 415 l 411 663 q 392 689 411 689 q 367 697 379 689 q 351 717 355 705 q 349 753 346 730 q 368 796 353 777 q 452 860 397 833 q 582 886 507 886 q 678 870 635 886 q 752 828 721 854 q 800 768 783 802 q 817 699 817 734 q 775 582 817 628 q 673 525 733 536 q 669 513 663 522 q 698 491 681 497 q 726 485 715 485 q 757 491 746 485 q 776 504 768 497 q 790 517 783 511 q 804 524 796 524 q 821 517 811 524 q 840 500 831 511 q 855 473 848 489 q 861 436 861 457 m 677 659 q 652 694 677 679 q 597 710 627 710 q 534 694 558 710 q 510 657 510 677 q 534 623 510 637 q 591 608 558 608 q 654 623 631 608 q 677 659 677 637 z "},"©":{"ha":1164,"x_min":41,"x_max":1122,"o":"m 1122 504 q 1083 301 1122 399 q 971 128 1043 203 q 801 8 900 53 q 585 -36 703 -36 q 357 11 458 -36 q 186 134 256 58 q 79 306 117 210 q 41 503 41 403 q 90 731 41 631 q 215 899 138 831 q 390 1004 292 968 q 587 1040 488 1040 q 776 1004 681 1040 q 948 899 871 968 q 1074 731 1025 831 q 1122 504 1122 631 m 947 439 q 921 578 947 511 q 846 696 895 644 q 731 780 798 749 q 582 811 664 811 q 434 783 501 811 q 317 706 367 755 q 241 587 268 656 q 214 437 214 518 q 244 289 214 355 q 327 174 275 222 q 447 100 379 126 q 587 74 514 74 q 731 104 665 74 q 845 184 796 134 q 920 301 893 235 q 947 439 947 367 m 807 220 q 773 187 794 204 q 722 154 751 170 q 656 129 693 139 q 578 119 619 119 q 465 142 521 119 q 365 207 410 165 q 293 308 321 249 q 265 439 265 367 q 292 573 265 513 q 363 676 319 633 q 463 741 407 718 q 576 764 518 764 q 653 754 615 764 q 722 725 692 745 q 769 677 751 705 q 787 612 787 648 q 765 545 787 571 q 710 519 742 519 q 655 539 677 519 q 632 591 632 559 q 640 621 632 612 q 647 640 647 629 q 628 657 647 650 q 587 664 610 664 q 523 653 554 664 q 467 621 492 642 q 429 570 443 600 q 415 500 415 539 q 428 431 415 461 q 463 379 441 400 q 512 348 485 358 q 567 338 539 338 q 654 375 616 338 q 691 392 671 392 q 725 368 711 392 q 757 320 741 342 q 798 282 774 298 q 816 253 814 271 q 807 220 818 235 z "},"™":{"ha":1346,"x_min":41,"x_max":1304,"o":"m 949 720 q 906 738 921 720 q 892 781 892 757 l 892 896 q 880 918 892 914 q 854 913 868 921 q 836 896 847 908 q 815 865 825 884 q 797 823 804 847 q 790 771 790 799 q 811 685 790 722 q 858 614 832 647 q 904 549 884 581 q 925 481 925 517 q 901 421 925 440 q 854 401 878 401 q 806 406 831 401 q 754 411 782 411 q 696 406 722 411 q 652 401 669 401 q 611 415 628 401 q 595 454 595 428 q 619 497 595 485 q 668 509 643 509 q 689 518 686 509 q 676 536 692 528 q 649 555 664 543 q 622 583 635 567 q 601 620 610 599 q 593 668 593 642 q 606 740 593 705 q 638 805 619 775 q 678 858 657 835 q 714 895 699 880 q 722 914 725 904 q 692 924 720 924 q 647 938 664 924 q 629 979 629 953 q 649 1018 629 1007 q 686 1029 668 1029 q 729 1024 704 1029 q 782 1018 754 1018 q 835 1024 810 1018 q 879 1029 860 1029 q 911 1024 899 1029 q 932 1013 924 1019 q 949 1006 942 1006 q 965 1013 956 1006 q 986 1024 974 1019 q 1018 1029 999 1029 q 1063 1024 1038 1029 q 1116 1018 1088 1018 q 1168 1024 1143 1018 q 1211 1029 1193 1029 q 1249 1018 1229 1029 q 1268 979 1268 1007 q 1251 938 1268 953 q 1206 924 1234 924 q 1175 914 1178 924 q 1183 895 1173 904 q 1219 858 1198 880 q 1259 805 1240 835 q 1291 740 1278 775 q 1304 668 1304 705 q 1296 620 1304 642 q 1275 583 1287 599 q 1248 555 1263 567 q 1221 536 1234 543 q 1208 518 1206 528 q 1229 509 1211 509 q 1278 497 1254 509 q 1303 454 1303 485 q 1286 415 1303 428 q 1246 401 1270 401 q 1201 406 1227 401 q 1143 411 1175 411 q 1091 406 1116 411 q 1043 401 1067 401 q 996 421 1019 401 q 972 481 972 440 q 993 549 972 517 q 1040 614 1014 581 q 1086 685 1065 647 q 1107 771 1107 722 q 1100 823 1107 799 q 1083 865 1093 847 q 1061 896 1072 884 q 1043 913 1050 908 q 1018 918 1029 921 q 1006 896 1006 914 l 1006 781 q 991 738 1006 757 q 949 720 977 720 m 534 749 q 519 701 534 721 q 472 681 504 681 q 424 703 436 681 q 411 745 411 725 q 414 765 411 754 q 416 786 416 775 q 406 810 416 803 q 380 818 396 818 q 351 804 359 818 q 343 771 343 790 l 343 532 q 363 503 343 503 q 376 504 367 503 q 392 505 386 505 q 435 492 418 505 q 452 454 452 478 q 435 415 452 431 q 390 399 419 399 q 349 405 376 399 q 288 411 321 411 q 227 405 256 411 q 184 399 199 399 q 139 415 154 399 q 125 454 125 431 q 145 494 125 484 q 180 505 165 505 q 198 504 187 505 q 214 503 210 503 q 233 530 233 503 l 233 771 q 196 819 233 819 q 168 809 176 819 q 160 786 160 799 q 163 765 160 777 q 165 745 165 754 q 152 702 165 724 q 104 681 138 681 q 54 704 66 681 q 41 750 41 726 q 50 802 41 771 q 58 873 58 833 q 53 925 58 901 q 47 971 47 949 q 63 1012 47 994 q 106 1029 78 1029 q 172 1024 131 1029 q 292 1018 214 1018 q 359 1020 332 1018 q 408 1024 387 1022 q 443 1028 429 1026 q 469 1029 457 1029 q 511 1014 493 1029 q 529 971 529 999 q 524 924 529 946 q 518 873 518 901 q 526 803 518 833 q 534 749 534 772 z "},"´":{"ha":307,"x_min":41,"x_max":265,"o":"m 265 1226 q 243 1149 265 1181 q 191 1097 221 1117 q 130 1067 161 1076 q 79 1057 98 1057 q 51 1067 60 1057 q 41 1089 41 1076 q 48 1113 41 1103 q 62 1132 54 1122 q 77 1154 71 1141 q 83 1185 83 1166 q 81 1204 83 1192 q 79 1231 79 1217 q 88 1275 79 1257 q 111 1303 97 1293 q 140 1318 125 1314 q 170 1322 155 1322 q 234 1299 203 1322 q 265 1226 265 1275 z "},"¨":{"ha":567,"x_min":41,"x_max":525,"o":"m 245 1173 q 216 1100 245 1129 q 143 1071 187 1071 q 71 1100 100 1071 q 41 1173 41 1129 q 71 1244 41 1215 q 143 1274 100 1274 q 216 1244 187 1274 q 245 1173 245 1215 m 525 1173 q 496 1100 525 1129 q 422 1071 467 1071 q 350 1100 379 1071 q 321 1173 321 1129 q 350 1244 321 1215 q 422 1274 379 1274 q 496 1244 467 1274 q 525 1173 525 1215 z "},"Æ":{"ha":1492,"x_min":41,"x_max":1450,"o":"m 572 414 q 488 380 518 414 q 458 300 458 346 q 468 241 458 271 q 490 182 478 211 q 512 125 503 153 q 522 72 522 97 q 498 4 522 28 q 429 -20 475 -20 q 377 -11 403 -20 q 319 -3 351 -3 q 258 -11 283 -3 q 207 -20 233 -20 q 146 4 171 -20 q 121 66 121 28 q 146 131 121 107 q 207 154 172 154 q 238 151 221 154 q 273 147 254 147 q 311 183 311 147 q 291 224 311 205 q 241 263 271 243 q 176 309 211 283 q 112 370 142 335 q 62 455 82 406 q 41 572 41 504 q 82 745 41 661 q 192 895 122 829 q 357 1001 262 961 q 558 1040 452 1040 q 640 1036 604 1040 q 724 1026 676 1031 q 837 1016 771 1021 q 1007 1011 903 1011 q 1125 1014 1078 1011 q 1206 1020 1173 1017 q 1262 1026 1239 1023 q 1310 1029 1286 1029 q 1375 1008 1350 1029 q 1400 947 1400 987 q 1395 906 1400 928 q 1390 856 1390 884 q 1396 809 1390 828 q 1401 766 1401 790 q 1371 696 1401 722 q 1304 669 1341 669 q 1232 694 1261 669 q 1202 762 1202 718 q 1206 791 1202 774 q 1210 823 1210 808 q 1203 844 1210 836 q 1181 852 1197 852 l 1000 852 q 964 850 978 852 q 942 842 950 848 q 930 820 933 835 q 926 777 926 804 l 926 755 q 929 709 926 726 q 939 683 932 692 q 959 671 946 673 q 990 668 971 668 q 1046 672 1018 668 q 1103 676 1075 676 q 1132 671 1117 676 q 1160 655 1147 665 q 1181 628 1173 644 q 1189 590 1189 611 q 1181 552 1189 568 q 1160 525 1173 536 q 1132 508 1147 514 q 1103 503 1117 503 q 1049 506 1078 503 q 997 510 1021 510 q 944 491 962 510 q 926 429 926 472 q 928 385 926 403 q 936 356 929 367 q 958 341 943 346 q 1000 336 972 336 l 1200 336 q 1221 345 1215 336 q 1227 366 1227 353 q 1223 396 1227 382 q 1219 431 1219 410 q 1251 514 1219 482 q 1332 546 1283 546 q 1412 514 1378 546 q 1446 418 1446 482 q 1435 344 1446 382 q 1425 258 1425 306 q 1437 142 1425 186 q 1450 75 1450 98 q 1421 3 1450 26 q 1356 -20 1392 -20 q 1304 -17 1331 -20 q 1244 -10 1278 -14 q 1166 -4 1210 -7 q 1061 -1 1122 -1 q 836 -11 926 -1 q 718 -20 746 -20 q 644 2 672 -20 q 615 75 615 24 q 626 129 615 102 q 650 184 637 155 q 674 243 663 212 q 685 304 685 273 q 651 385 685 357 q 572 414 616 414 m 566 586 q 636 569 606 586 q 689 534 667 553 q 712 524 703 524 q 728 532 722 525 q 743 593 743 554 q 731 698 743 646 q 696 791 720 750 q 638 857 672 832 q 559 882 604 882 q 478 856 513 882 q 420 788 443 829 q 386 697 397 747 q 375 599 375 647 q 384 533 375 551 q 404 514 393 514 q 427 525 414 514 q 460 550 440 536 q 505 575 479 564 q 566 586 530 586 z "},"æ":{"ha":1492,"x_min":41,"x_max":1450,"o":"m 572 414 q 488 380 518 414 q 458 300 458 346 q 468 241 458 271 q 490 182 478 211 q 512 125 503 153 q 522 72 522 97 q 498 4 522 28 q 429 -20 475 -20 q 377 -11 403 -20 q 319 -3 351 -3 q 258 -11 283 -3 q 207 -20 233 -20 q 146 4 171 -20 q 121 66 121 28 q 146 131 121 107 q 207 154 172 154 q 238 151 221 154 q 273 147 254 147 q 311 183 311 147 q 291 224 311 205 q 241 263 271 243 q 176 309 211 283 q 112 370 142 335 q 62 455 82 406 q 41 572 41 504 q 82 745 41 661 q 192 895 122 829 q 357 1001 262 961 q 558 1040 452 1040 q 640 1036 604 1040 q 724 1026 676 1031 q 837 1016 771 1021 q 1007 1011 903 1011 q 1125 1014 1078 1011 q 1206 1020 1173 1017 q 1262 1026 1239 1023 q 1310 1029 1286 1029 q 1375 1008 1350 1029 q 1400 947 1400 987 q 1395 906 1400 928 q 1390 856 1390 884 q 1396 809 1390 828 q 1401 766 1401 790 q 1371 696 1401 722 q 1304 669 1341 669 q 1232 694 1261 669 q 1202 762 1202 718 q 1206 791 1202 774 q 1210 823 1210 808 q 1203 844 1210 836 q 1181 852 1197 852 l 1000 852 q 964 850 978 852 q 942 842 950 848 q 930 820 933 835 q 926 777 926 804 l 926 755 q 929 709 926 726 q 939 683 932 692 q 959 671 946 673 q 990 668 971 668 q 1046 672 1018 668 q 1103 676 1075 676 q 1132 671 1117 676 q 1160 655 1147 665 q 1181 628 1173 644 q 1189 590 1189 611 q 1181 552 1189 568 q 1160 525 1173 536 q 1132 508 1147 514 q 1103 503 1117 503 q 1049 506 1078 503 q 997 510 1021 510 q 944 491 962 510 q 926 429 926 472 q 928 385 926 403 q 936 356 929 367 q 958 341 943 346 q 1000 336 972 336 l 1200 336 q 1221 345 1215 336 q 1227 366 1227 353 q 1223 396 1227 382 q 1219 431 1219 410 q 1251 514 1219 482 q 1332 546 1283 546 q 1412 514 1378 546 q 1446 418 1446 482 q 1435 344 1446 382 q 1425 258 1425 306 q 1437 142 1425 186 q 1450 75 1450 98 q 1421 3 1450 26 q 1356 -20 1392 -20 q 1304 -17 1331 -20 q 1244 -10 1278 -14 q 1166 -4 1210 -7 q 1061 -1 1122 -1 q 836 -11 926 -1 q 718 -20 746 -20 q 644 2 672 -20 q 615 75 615 24 q 626 129 615 102 q 650 184 637 155 q 674 243 663 212 q 685 304 685 273 q 651 385 685 357 q 572 414 616 414 m 566 586 q 636 569 606 586 q 689 534 667 553 q 712 524 703 524 q 728 532 722 525 q 743 593 743 554 q 731 698 743 646 q 696 791 720 750 q 638 857 672 832 q 559 882 604 882 q 478 856 513 882 q 420 788 443 829 q 386 697 397 747 q 375 599 375 647 q 384 533 375 551 q 404 514 393 514 q 427 525 414 514 q 460 550 440 536 q 505 575 479 564 q 566 586 530 586 z "},"Ø":{"ha":1161,"x_min":41,"x_max":1120,"o":"m 1120 498 q 1079 294 1120 390 q 967 124 1039 197 q 795 7 895 50 q 579 -36 696 -36 q 492 -28 533 -36 q 422 -12 450 -21 q 411 -9 416 -11 q 401 -8 406 -7 q 392 -16 396 -9 q 386 -36 389 -22 q 346 -132 376 -98 q 268 -165 315 -165 q 232 -158 250 -165 q 199 -138 214 -151 q 176 -106 184 -125 q 167 -65 167 -87 q 180 -17 167 -37 q 209 19 193 4 q 237 46 224 35 q 250 68 250 58 q 248 76 250 72 q 237 87 245 81 q 169 153 204 113 q 106 245 134 193 q 60 361 78 297 q 41 500 41 425 q 88 720 41 621 q 211 890 135 819 q 384 1001 286 961 q 582 1040 481 1040 q 739 1016 665 1040 q 861 960 812 991 q 881 955 871 953 q 900 985 892 957 q 943 1067 916 1034 q 1018 1100 970 1100 q 1081 1074 1053 1100 q 1109 1006 1109 1048 q 1082 930 1109 962 q 1022 875 1054 897 q 1002 849 1002 860 q 1010 828 1002 839 q 1049 767 1029 802 q 1085 693 1069 733 q 1110 604 1100 653 q 1120 498 1120 555 m 663 636 q 657 656 672 650 q 626 664 646 660 q 579 668 607 668 q 472 644 521 668 q 388 581 424 619 q 333 493 353 542 q 314 395 314 444 q 329 303 314 343 q 358 241 343 264 q 371 232 366 232 q 380 237 376 232 q 409 276 387 245 q 460 348 431 307 q 524 437 490 389 q 586 526 557 485 q 636 597 615 567 q 663 636 657 628 m 847 396 q 835 474 847 436 q 808 533 823 511 q 782 538 794 554 q 754 500 775 529 q 705 431 733 471 q 646 347 677 392 q 587 263 615 302 q 539 195 559 224 q 514 155 519 165 q 518 127 501 134 q 579 119 543 119 q 682 140 633 119 q 767 198 730 161 q 826 286 804 235 q 847 396 847 336 z "},"ø":{"ha":1161,"x_min":41,"x_max":1120,"o":"m 1120 498 q 1079 294 1120 390 q 967 124 1039 197 q 795 7 895 50 q 579 -36 696 -36 q 492 -28 533 -36 q 422 -12 450 -21 q 411 -9 416 -11 q 401 -8 406 -7 q 392 -16 396 -9 q 386 -36 389 -22 q 346 -132 376 -98 q 268 -165 315 -165 q 232 -158 250 -165 q 199 -138 214 -151 q 176 -106 184 -125 q 167 -65 167 -87 q 180 -17 167 -37 q 209 19 193 4 q 237 46 224 35 q 250 68 250 58 q 248 76 250 72 q 237 87 245 81 q 169 153 204 113 q 106 245 134 193 q 60 361 78 297 q 41 500 41 425 q 88 720 41 621 q 211 890 135 819 q 384 1001 286 961 q 582 1040 481 1040 q 739 1016 665 1040 q 861 960 812 991 q 881 955 871 953 q 900 985 892 957 q 943 1067 916 1034 q 1018 1100 970 1100 q 1081 1074 1053 1100 q 1109 1006 1109 1048 q 1082 930 1109 962 q 1022 875 1054 897 q 1002 849 1002 860 q 1010 828 1002 839 q 1049 767 1029 802 q 1085 693 1069 733 q 1110 604 1100 653 q 1120 498 1120 555 m 663 636 q 657 656 672 650 q 626 664 646 660 q 579 668 607 668 q 472 644 521 668 q 388 581 424 619 q 333 493 353 542 q 314 395 314 444 q 329 303 314 343 q 358 241 343 264 q 371 232 366 232 q 380 237 376 232 q 409 276 387 245 q 460 348 431 307 q 524 437 490 389 q 586 526 557 485 q 636 597 615 567 q 663 636 657 628 m 847 396 q 835 474 847 436 q 808 533 823 511 q 782 538 794 554 q 754 500 775 529 q 705 431 733 471 q 646 347 677 392 q 587 263 615 302 q 539 195 559 224 q 514 155 519 165 q 518 127 501 134 q 579 119 543 119 q 682 140 633 119 q 767 198 730 161 q 826 286 804 235 q 847 396 847 336 z "},"¥":{"ha":1105,"x_min":41,"x_max":1064,"o":"m 909 829 q 941 792 925 812 q 971 747 957 771 q 993 694 985 722 q 1002 633 1002 665 q 979 539 1002 578 q 915 477 956 500 q 822 448 875 454 q 708 452 770 441 q 673 450 686 456 q 654 435 660 444 q 647 415 648 427 q 646 392 646 403 l 646 374 q 663 359 646 359 q 733 360 690 359 q 817 362 775 361 q 892 363 859 363 q 936 364 926 364 q 981 350 960 364 q 1002 304 1002 335 q 981 256 1002 272 q 936 240 960 240 q 894 241 926 240 q 820 243 861 241 q 735 245 778 244 q 664 245 692 245 q 646 228 646 245 l 646 200 q 651 166 646 180 q 676 151 657 151 q 699 153 686 151 q 726 154 711 154 q 785 131 760 154 q 811 68 811 109 q 786 5 811 31 q 721 -20 761 -20 q 693 -17 711 -20 q 652 -11 675 -14 q 604 -5 629 -8 q 555 -3 579 -3 q 453 -11 493 -3 q 385 -20 412 -20 q 319 5 345 -20 q 294 68 294 31 q 320 131 294 109 q 379 154 346 154 q 405 153 393 154 q 429 151 416 151 q 451 161 443 151 q 460 199 460 171 l 460 228 q 441 245 460 245 q 369 245 412 245 q 284 243 326 244 q 210 241 243 241 q 170 240 178 240 q 125 256 146 240 q 104 304 104 272 q 125 350 104 335 q 170 364 146 364 q 211 363 178 364 q 287 362 244 363 q 372 360 329 361 q 443 359 415 359 q 460 374 460 359 l 460 392 q 458 415 460 403 q 451 435 457 427 q 433 450 446 444 q 397 452 421 456 q 284 448 338 441 q 190 477 231 454 q 127 539 150 500 q 104 633 104 578 q 133 743 104 694 q 196 829 161 791 q 204 850 207 842 q 186 859 201 859 q 174 858 182 859 q 156 856 165 857 q 140 853 147 854 q 127 852 132 852 q 68 876 94 852 q 41 942 41 899 q 69 1005 41 981 q 134 1029 97 1029 q 193 1020 157 1029 q 282 1011 229 1011 q 366 1020 326 1011 q 424 1029 406 1029 q 487 1006 460 1029 q 514 943 514 983 q 506 902 514 918 q 485 874 497 885 q 457 860 472 864 q 428 856 441 856 q 406 857 416 856 q 383 859 395 859 q 356 843 364 859 q 347 803 347 827 q 359 714 347 760 q 396 631 371 668 q 460 571 421 595 q 555 547 500 547 q 650 572 611 547 q 712 634 689 596 q 747 717 736 672 q 758 804 758 762 q 748 845 758 832 q 722 859 737 859 q 699 857 711 859 q 677 856 686 856 q 618 877 644 856 q 591 943 591 899 q 617 1004 591 979 q 679 1029 643 1029 q 737 1020 699 1029 q 828 1011 775 1011 q 916 1020 878 1011 q 972 1029 954 1029 q 1038 1002 1013 1029 q 1064 942 1064 975 q 1038 876 1064 900 q 978 852 1013 852 q 951 856 971 852 q 920 859 930 859 q 901 850 903 859 q 909 829 899 842 z "},"ª":{"ha":1015,"x_min":41,"x_max":974,"o":"m 974 606 q 944 452 974 519 q 868 335 914 385 q 769 254 822 286 q 668 205 715 221 q 656 197 659 203 q 660 178 653 191 q 708 129 675 150 q 782 107 742 107 q 815 111 800 107 q 844 120 831 115 q 869 129 857 125 q 895 134 882 134 q 942 115 926 134 q 958 65 958 97 q 935 -58 958 -4 q 873 -148 911 -111 q 791 -204 836 -184 q 701 -224 746 -224 q 632 -213 667 -224 q 570 -181 597 -203 q 527 -128 543 -160 q 510 -53 510 -96 q 515 -11 510 -32 q 528 31 521 9 q 540 72 534 52 q 546 111 546 92 q 524 166 546 147 q 472 186 503 186 q 419 162 437 186 q 400 111 400 138 q 406 70 400 89 q 417 35 411 52 q 429 1 424 18 q 435 -33 435 -16 q 412 -89 435 -72 q 363 -106 389 -106 q 296 -90 326 -106 q 246 -50 267 -74 q 214 3 225 -25 q 203 58 203 32 q 228 134 203 104 q 281 187 253 164 q 294 214 294 199 q 277 237 293 229 q 209 281 249 252 q 131 357 168 311 q 68 465 94 403 q 41 606 41 526 q 80 780 41 700 q 183 918 118 860 q 332 1008 248 975 q 509 1040 416 1040 q 671 1012 589 1040 q 822 928 754 983 q 931 791 889 872 q 974 606 974 710 m 714 505 q 697 582 714 547 q 653 642 681 616 q 588 682 625 668 q 509 696 550 696 q 431 682 468 696 q 365 643 393 668 q 319 583 336 618 q 301 509 301 549 q 319 432 301 467 q 367 373 338 397 q 433 335 396 349 q 509 322 471 322 q 581 335 545 322 q 647 371 618 347 q 695 429 676 395 q 714 505 714 463 z "},"º":{"ha":1015,"x_min":41,"x_max":974,"o":"m 974 606 q 944 452 974 519 q 868 335 914 385 q 769 254 822 286 q 668 205 715 221 q 656 197 659 203 q 660 178 653 191 q 708 129 675 150 q 782 107 742 107 q 815 111 800 107 q 844 120 831 115 q 869 129 857 125 q 895 134 882 134 q 942 115 926 134 q 958 65 958 97 q 935 -58 958 -4 q 873 -148 911 -111 q 791 -204 836 -184 q 701 -224 746 -224 q 632 -213 667 -224 q 570 -181 597 -203 q 527 -128 543 -160 q 510 -53 510 -96 q 515 -11 510 -32 q 528 31 521 9 q 540 72 534 52 q 546 111 546 92 q 524 166 546 147 q 472 186 503 186 q 419 162 437 186 q 400 111 400 138 q 406 70 400 89 q 417 35 411 52 q 429 1 424 18 q 435 -33 435 -16 q 412 -89 435 -72 q 363 -106 389 -106 q 296 -90 326 -106 q 246 -50 267 -74 q 214 3 225 -25 q 203 58 203 32 q 228 134 203 104 q 281 187 253 164 q 294 214 294 199 q 277 237 293 229 q 209 281 249 252 q 131 357 168 311 q 68 465 94 403 q 41 606 41 526 q 80 780 41 700 q 183 918 118 860 q 332 1008 248 975 q 509 1040 416 1040 q 671 1012 589 1040 q 822 928 754 983 q 931 791 889 872 q 974 606 974 710 m 714 505 q 697 582 714 547 q 653 642 681 616 q 588 682 625 668 q 509 696 550 696 q 431 682 468 696 q 365 643 393 668 q 319 583 336 618 q 301 509 301 549 q 319 432 301 467 q 367 373 338 397 q 433 335 396 349 q 509 322 471 322 q 581 335 545 322 q 647 371 618 347 q 695 429 676 395 q 714 505 714 463 z "},"¿":{"ha":859,"x_min":41,"x_max":818,"o":"m 41 89 q 62 225 41 165 q 114 330 82 285 q 187 406 146 375 q 270 455 228 436 q 351 484 311 475 q 419 493 390 493 q 518 418 518 493 q 495 363 518 383 q 431 335 472 343 q 326 282 366 322 q 286 184 286 241 q 297 129 286 154 q 327 86 309 104 q 370 58 346 68 q 419 49 393 49 q 484 61 460 49 q 522 91 509 74 q 539 125 534 107 q 543 153 543 143 q 540 189 543 174 q 533 217 536 204 q 526 241 529 229 q 522 265 522 253 q 533 292 522 278 q 564 306 543 306 q 618 291 590 306 q 671 252 646 277 q 722 197 697 228 q 764 135 746 167 q 801 53 789 92 q 815 -19 812 14 q 814 -75 818 -52 q 804 -110 811 -98 q 753 -173 786 -143 q 676 -227 721 -203 q 576 -264 632 -250 q 454 -278 519 -278 q 302 -253 376 -278 q 170 -181 228 -228 q 77 -67 113 -135 q 41 89 41 1 m 313 681 q 342 753 313 724 q 415 782 371 782 q 488 753 458 782 q 517 681 517 724 q 488 608 517 637 q 415 579 458 579 q 342 608 371 579 q 313 681 313 637 z "},"¡":{"ha":428,"x_min":41,"x_max":386,"o":"m 41 -65 q 46 42 41 -17 q 60 161 52 102 q 84 278 69 221 q 117 379 98 335 q 160 450 136 424 q 214 476 184 476 q 267 450 243 476 q 310 379 292 424 q 343 278 329 335 q 367 161 358 221 q 381 42 376 102 q 386 -65 386 -17 q 372 -156 386 -118 q 334 -218 358 -193 q 279 -255 310 -243 q 214 -267 248 -267 q 149 -255 180 -267 q 94 -218 118 -243 q 55 -156 69 -193 q 41 -65 41 -118 m 111 681 q 140 753 111 724 q 214 782 170 782 q 286 753 257 782 q 315 681 315 724 q 286 608 315 637 q 214 579 257 579 q 140 608 170 579 q 111 681 111 637 z "},"ƒ":{"ha":1103,"x_min":-3,"x_max":1103,"o":"m 1103 800 q 1090 735 1103 764 q 1058 688 1078 707 q 1016 660 1039 669 q 971 650 993 650 q 913 660 937 650 q 874 686 889 671 q 853 721 860 701 q 846 757 846 741 q 857 806 846 789 q 868 846 868 823 q 858 871 868 860 q 823 882 848 882 q 805 880 815 882 q 784 870 794 878 q 765 849 774 863 q 749 814 755 836 q 738 773 746 802 q 722 713 730 745 q 706 654 714 682 q 696 612 699 625 q 694 598 693 602 q 707 595 696 595 q 741 595 721 595 q 783 597 761 596 q 823 599 804 597 q 852 600 842 600 q 902 583 884 600 q 921 538 921 566 q 903 492 921 510 q 857 473 885 473 q 824 475 847 473 q 775 478 802 476 q 722 480 749 479 q 679 481 696 481 q 663 477 668 481 q 654 460 657 473 q 644 419 653 454 q 622 335 635 385 q 594 230 608 286 q 565 123 579 174 q 542 35 551 72 q 529 -11 532 -1 q 493 -93 517 -54 q 434 -160 469 -131 q 353 -207 399 -189 q 252 -224 307 -224 q 160 -212 199 -224 q 93 -185 121 -200 q 48 -153 65 -170 q 25 -125 32 -136 q 3 -70 8 -102 q 4 -7 -3 -39 q 21 38 8 11 q 50 93 33 65 q 86 147 66 121 q 123 192 106 174 q 168 208 144 211 q 203 170 191 204 q 234 121 212 143 q 293 100 256 100 q 360 128 340 100 q 390 193 380 157 q 397 217 392 196 q 410 267 403 237 q 427 329 418 296 q 443 391 436 363 q 456 439 450 419 q 461 463 461 460 q 452 481 465 481 q 411 478 435 481 q 376 476 387 476 q 335 492 354 476 q 315 541 315 509 q 336 585 315 570 q 382 600 357 600 q 431 597 401 600 q 481 595 461 595 q 495 599 492 595 q 503 618 498 603 q 511 647 504 621 q 526 705 518 673 q 542 765 534 736 q 553 804 550 794 q 831 1039 616 1039 q 939 1018 889 1039 q 1026 964 989 997 q 1083 887 1063 930 q 1103 800 1103 844 z "},"«":{"ha":614,"x_min":41,"x_max":572,"o":"m 310 416 q 286 361 310 386 q 225 336 262 336 q 172 349 201 336 q 123 403 143 361 q 110 445 114 424 q 101 486 106 467 q 88 522 96 505 q 65 547 81 538 q 42 586 41 562 q 65 624 43 610 q 88 649 81 633 q 101 685 96 665 q 110 726 106 704 q 123 768 114 747 q 172 822 143 810 q 225 835 201 835 q 286 810 262 835 q 310 754 310 785 q 290 694 310 717 q 248 653 271 671 q 205 620 225 635 q 186 585 186 606 q 205 550 186 566 q 248 517 225 534 q 290 477 271 500 q 310 416 310 454 m 572 416 q 549 361 572 386 q 488 336 525 336 q 435 349 464 336 q 386 403 406 361 q 372 445 376 424 q 363 486 368 467 q 351 522 358 505 q 328 547 343 538 q 305 586 304 562 q 328 624 306 610 q 351 649 343 633 q 363 685 358 665 q 372 726 368 704 q 386 768 376 747 q 435 822 406 810 q 488 835 464 835 q 549 810 525 835 q 572 754 572 785 q 553 694 572 717 q 510 653 533 671 q 468 620 488 635 q 449 585 449 606 q 468 550 449 566 q 510 517 488 534 q 553 477 533 500 q 572 416 572 454 z "},"»":{"ha":614,"x_min":41,"x_max":572,"o":"m 41 416 q 61 477 41 454 q 103 517 81 500 q 146 550 126 534 q 165 585 165 566 q 146 620 165 606 q 103 653 126 635 q 61 694 81 671 q 41 754 41 717 q 65 810 41 785 q 126 835 89 835 q 179 822 150 835 q 228 768 208 810 q 241 726 237 747 q 251 685 245 704 q 263 649 256 665 q 286 624 271 633 q 309 586 309 610 q 286 547 310 562 q 263 522 271 538 q 251 486 256 505 q 241 445 245 467 q 228 403 237 424 q 179 349 208 361 q 126 336 150 336 q 65 361 89 336 q 41 416 41 386 m 304 416 q 324 477 304 454 q 366 517 343 500 q 408 550 389 534 q 428 585 428 566 q 408 620 428 606 q 366 653 389 635 q 324 694 343 671 q 304 754 304 717 q 328 810 304 785 q 389 835 351 835 q 441 822 412 835 q 490 768 471 810 q 504 726 500 747 q 513 685 509 704 q 526 649 518 665 q 549 624 533 633 q 572 586 571 610 q 549 547 572 562 q 526 522 533 538 q 513 486 518 505 q 504 445 509 467 q 490 403 500 424 q 441 349 471 361 q 389 336 412 336 q 328 361 351 336 q 304 416 304 386 z "},"…":{"ha":848,"x_min":41,"x_max":807,"o":"m 245 82 q 216 9 245 39 q 143 -20 187 -20 q 71 9 100 -20 q 41 82 41 39 q 71 154 41 125 q 143 183 100 183 q 216 154 187 183 q 245 82 245 125 m 526 82 q 497 9 526 39 q 424 -20 468 -20 q 351 9 380 -20 q 322 82 322 39 q 351 154 322 125 q 424 183 380 183 q 497 154 468 183 q 526 82 526 125 m 807 82 q 778 9 807 39 q 704 -20 749 -20 q 632 9 661 -20 q 603 82 603 39 q 632 154 603 125 q 704 183 661 183 q 778 154 749 183 q 807 82 807 125 z "},"À":{"ha":1117,"x_min":41,"x_max":1075,"o":"m 806 183 q 843 147 806 147 q 879 151 863 147 q 909 154 896 154 q 970 131 945 154 q 996 66 996 107 q 971 4 996 28 q 909 -20 946 -20 q 859 -11 884 -20 q 798 -3 833 -3 q 740 -11 765 -3 q 688 -20 714 -20 q 618 4 642 -20 q 595 72 595 28 q 604 125 595 97 q 626 182 614 153 q 649 241 639 211 q 659 300 659 271 q 632 380 659 346 q 558 414 606 414 q 485 380 511 414 q 458 300 458 346 q 468 241 458 271 q 490 182 478 211 q 512 125 503 153 q 522 72 522 97 q 498 4 522 28 q 429 -20 475 -20 q 377 -11 403 -20 q 319 -3 351 -3 q 258 -11 283 -3 q 207 -20 233 -20 q 146 4 171 -20 q 121 66 121 28 q 146 131 121 107 q 207 154 172 154 q 238 151 221 154 q 273 147 254 147 q 311 183 311 147 q 291 224 311 205 q 241 263 271 243 q 176 309 211 283 q 112 370 142 335 q 62 455 82 406 q 41 572 41 504 q 82 745 41 661 q 192 895 122 829 q 357 1001 262 961 q 558 1040 452 1040 q 760 1001 665 1040 q 924 895 854 961 q 1035 745 994 829 q 1075 572 1075 661 q 1055 455 1075 504 q 1005 370 1035 406 q 940 309 975 335 q 876 263 905 283 q 826 224 846 243 q 806 183 806 205 m 742 599 q 731 696 742 646 q 696 788 720 746 q 640 856 673 829 q 558 882 606 882 q 477 856 511 882 q 420 788 443 829 q 386 696 397 746 q 375 599 375 646 q 384 533 375 551 q 404 514 393 514 q 427 525 414 514 q 458 550 440 536 q 500 575 476 564 q 558 586 525 586 q 616 575 591 586 q 658 550 640 564 q 689 525 676 536 q 713 514 703 514 q 733 533 724 514 q 742 599 742 551 m 669 1089 q 661 1067 669 1076 q 632 1057 652 1057 q 582 1067 614 1057 q 520 1097 550 1076 q 468 1149 490 1117 q 446 1226 446 1181 q 477 1299 446 1275 q 542 1322 509 1322 q 571 1318 555 1322 q 601 1303 587 1314 q 623 1275 614 1293 q 632 1231 632 1257 q 630 1204 632 1217 q 628 1185 628 1192 q 634 1154 628 1166 q 649 1132 640 1141 q 663 1113 657 1122 q 669 1089 669 1103 z "},"à":{"ha":1117,"x_min":41,"x_max":1075,"o":"m 806 183 q 843 147 806 147 q 879 151 863 147 q 909 154 896 154 q 970 131 945 154 q 996 66 996 107 q 971 4 996 28 q 909 -20 946 -20 q 859 -11 884 -20 q 798 -3 833 -3 q 740 -11 765 -3 q 688 -20 714 -20 q 618 4 642 -20 q 595 72 595 28 q 604 125 595 97 q 626 182 614 153 q 649 241 639 211 q 659 300 659 271 q 632 380 659 346 q 558 414 606 414 q 485 380 511 414 q 458 300 458 346 q 468 241 458 271 q 490 182 478 211 q 512 125 503 153 q 522 72 522 97 q 498 4 522 28 q 429 -20 475 -20 q 377 -11 403 -20 q 319 -3 351 -3 q 258 -11 283 -3 q 207 -20 233 -20 q 146 4 171 -20 q 121 66 121 28 q 146 131 121 107 q 207 154 172 154 q 238 151 221 154 q 273 147 254 147 q 311 183 311 147 q 291 224 311 205 q 241 263 271 243 q 176 309 211 283 q 112 370 142 335 q 62 455 82 406 q 41 572 41 504 q 82 745 41 661 q 192 895 122 829 q 357 1001 262 961 q 558 1040 452 1040 q 760 1001 665 1040 q 924 895 854 961 q 1035 745 994 829 q 1075 572 1075 661 q 1055 455 1075 504 q 1005 370 1035 406 q 940 309 975 335 q 876 263 905 283 q 826 224 846 243 q 806 183 806 205 m 742 599 q 731 696 742 646 q 696 788 720 746 q 640 856 673 829 q 558 882 606 882 q 477 856 511 882 q 420 788 443 829 q 386 696 397 746 q 375 599 375 646 q 384 533 375 551 q 404 514 393 514 q 427 525 414 514 q 458 550 440 536 q 500 575 476 564 q 558 586 525 586 q 616 575 591 586 q 658 550 640 564 q 689 525 676 536 q 713 514 703 514 q 733 533 724 514 q 742 599 742 551 m 669 1089 q 661 1067 669 1076 q 632 1057 652 1057 q 582 1067 614 1057 q 520 1097 550 1076 q 468 1149 490 1117 q 446 1226 446 1181 q 477 1299 446 1275 q 542 1322 509 1322 q 571 1318 555 1322 q 601 1303 587 1314 q 623 1275 614 1293 q 632 1231 632 1257 q 630 1204 632 1217 q 628 1185 628 1192 q 634 1154 628 1166 q 649 1132 640 1141 q 663 1113 657 1122 q 669 1089 669 1103 z "},"Ã":{"ha":1117,"x_min":41,"x_max":1075,"o":"m 806 183 q 843 147 806 147 q 879 151 863 147 q 909 154 896 154 q 970 131 945 154 q 996 66 996 107 q 971 4 996 28 q 909 -20 946 -20 q 859 -11 884 -20 q 798 -3 833 -3 q 740 -11 765 -3 q 688 -20 714 -20 q 618 4 642 -20 q 595 72 595 28 q 604 125 595 97 q 626 182 614 153 q 649 241 639 211 q 659 300 659 271 q 632 380 659 346 q 558 414 606 414 q 485 380 511 414 q 458 300 458 346 q 468 241 458 271 q 490 182 478 211 q 512 125 503 153 q 522 72 522 97 q 498 4 522 28 q 429 -20 475 -20 q 377 -11 403 -20 q 319 -3 351 -3 q 258 -11 283 -3 q 207 -20 233 -20 q 146 4 171 -20 q 121 66 121 28 q 146 131 121 107 q 207 154 172 154 q 238 151 221 154 q 273 147 254 147 q 311 183 311 147 q 291 224 311 205 q 241 263 271 243 q 176 309 211 283 q 112 370 142 335 q 62 455 82 406 q 41 572 41 504 q 82 745 41 661 q 192 895 122 829 q 357 1001 262 961 q 558 1040 452 1040 q 760 1001 665 1040 q 924 895 854 961 q 1035 745 994 829 q 1075 572 1075 661 q 1055 455 1075 504 q 1005 370 1035 406 q 940 309 975 335 q 876 263 905 283 q 826 224 846 243 q 806 183 806 205 m 742 599 q 731 696 742 646 q 696 788 720 746 q 640 856 673 829 q 558 882 606 882 q 477 856 511 882 q 420 788 443 829 q 386 696 397 746 q 375 599 375 646 q 384 533 375 551 q 404 514 393 514 q 427 525 414 514 q 458 550 440 536 q 500 575 476 564 q 558 586 525 586 q 616 575 591 586 q 658 550 640 564 q 689 525 676 536 q 713 514 703 514 q 733 533 724 514 q 742 599 742 551 m 743 1218 q 732 1163 743 1190 q 702 1115 721 1136 q 658 1080 684 1093 q 603 1067 632 1067 q 562 1075 579 1067 q 531 1093 545 1083 q 506 1111 518 1103 q 482 1120 494 1120 q 463 1114 472 1120 q 446 1101 454 1108 q 428 1089 437 1095 q 406 1083 418 1083 q 386 1092 397 1083 q 374 1121 374 1100 q 387 1185 374 1157 q 421 1234 400 1214 q 467 1265 441 1254 q 519 1276 493 1276 q 561 1269 543 1276 q 592 1252 578 1261 q 619 1235 607 1243 q 643 1227 631 1227 q 662 1233 654 1227 q 677 1245 669 1239 q 692 1256 685 1251 q 711 1261 700 1261 q 743 1218 743 1261 z "},"ã":{"ha":1117,"x_min":41,"x_max":1075,"o":"m 806 183 q 843 147 806 147 q 879 151 863 147 q 909 154 896 154 q 970 131 945 154 q 996 66 996 107 q 971 4 996 28 q 909 -20 946 -20 q 859 -11 884 -20 q 798 -3 833 -3 q 740 -11 765 -3 q 688 -20 714 -20 q 618 4 642 -20 q 595 72 595 28 q 604 125 595 97 q 626 182 614 153 q 649 241 639 211 q 659 300 659 271 q 632 380 659 346 q 558 414 606 414 q 485 380 511 414 q 458 300 458 346 q 468 241 458 271 q 490 182 478 211 q 512 125 503 153 q 522 72 522 97 q 498 4 522 28 q 429 -20 475 -20 q 377 -11 403 -20 q 319 -3 351 -3 q 258 -11 283 -3 q 207 -20 233 -20 q 146 4 171 -20 q 121 66 121 28 q 146 131 121 107 q 207 154 172 154 q 238 151 221 154 q 273 147 254 147 q 311 183 311 147 q 291 224 311 205 q 241 263 271 243 q 176 309 211 283 q 112 370 142 335 q 62 455 82 406 q 41 572 41 504 q 82 745 41 661 q 192 895 122 829 q 357 1001 262 961 q 558 1040 452 1040 q 760 1001 665 1040 q 924 895 854 961 q 1035 745 994 829 q 1075 572 1075 661 q 1055 455 1075 504 q 1005 370 1035 406 q 940 309 975 335 q 876 263 905 283 q 826 224 846 243 q 806 183 806 205 m 742 599 q 731 696 742 646 q 696 788 720 746 q 640 856 673 829 q 558 882 606 882 q 477 856 511 882 q 420 788 443 829 q 386 696 397 746 q 375 599 375 646 q 384 533 375 551 q 404 514 393 514 q 427 525 414 514 q 458 550 440 536 q 500 575 476 564 q 558 586 525 586 q 616 575 591 586 q 658 550 640 564 q 689 525 676 536 q 713 514 703 514 q 733 533 724 514 q 742 599 742 551 m 743 1218 q 732 1163 743 1190 q 702 1115 721 1136 q 658 1080 684 1093 q 603 1067 632 1067 q 562 1075 579 1067 q 531 1093 545 1083 q 506 1111 518 1103 q 482 1120 494 1120 q 463 1114 472 1120 q 446 1101 454 1108 q 428 1089 437 1095 q 406 1083 418 1083 q 386 1092 397 1083 q 374 1121 374 1100 q 387 1185 374 1157 q 421 1234 400 1214 q 467 1265 441 1254 q 519 1276 493 1276 q 561 1269 543 1276 q 592 1252 578 1261 q 619 1235 607 1243 q 643 1227 631 1227 q 662 1233 654 1227 q 677 1245 669 1239 q 692 1256 685 1251 q 711 1261 700 1261 q 743 1218 743 1261 z "},"Õ":{"ha":1161,"x_min":41,"x_max":1120,"o":"m 1120 498 q 1079 294 1120 390 q 967 124 1039 197 q 795 7 895 50 q 579 -36 696 -36 q 368 6 467 -36 q 197 122 269 49 q 83 292 125 195 q 41 500 41 390 q 88 720 41 621 q 211 890 135 819 q 384 1001 286 961 q 582 1040 481 1040 q 780 1001 684 1040 q 952 890 876 961 q 1074 719 1028 819 q 1120 498 1120 619 m 847 396 q 828 493 847 444 q 773 581 808 542 q 688 644 737 619 q 579 668 639 668 q 472 644 521 668 q 388 581 424 619 q 333 493 353 542 q 314 396 314 444 q 335 286 314 336 q 394 198 357 235 q 478 140 431 161 q 579 119 526 119 q 682 140 633 119 q 767 198 730 161 q 826 286 804 235 q 847 396 847 336 m 765 1218 q 754 1163 765 1190 q 724 1115 743 1136 q 680 1080 705 1093 q 625 1067 654 1067 q 584 1075 602 1067 q 554 1093 567 1083 q 529 1111 541 1103 q 504 1120 517 1120 q 485 1114 494 1120 q 468 1101 476 1108 q 450 1089 460 1095 q 428 1083 440 1083 q 408 1092 419 1083 q 396 1121 396 1100 q 409 1185 396 1157 q 443 1234 422 1214 q 490 1265 464 1254 q 542 1276 515 1276 q 583 1269 566 1276 q 615 1252 600 1261 q 641 1235 629 1243 q 665 1227 653 1227 q 684 1233 676 1227 q 699 1245 692 1239 q 714 1256 707 1251 q 733 1261 722 1261 q 765 1218 765 1261 z "},"õ":{"ha":1161,"x_min":41,"x_max":1120,"o":"m 1120 498 q 1079 294 1120 390 q 967 124 1039 197 q 795 7 895 50 q 579 -36 696 -36 q 368 6 467 -36 q 197 122 269 49 q 83 292 125 195 q 41 500 41 390 q 88 720 41 621 q 211 890 135 819 q 384 1001 286 961 q 582 1040 481 1040 q 780 1001 684 1040 q 952 890 876 961 q 1074 719 1028 819 q 1120 498 1120 619 m 847 396 q 828 493 847 444 q 773 581 808 542 q 688 644 737 619 q 579 668 639 668 q 472 644 521 668 q 388 581 424 619 q 333 493 353 542 q 314 396 314 444 q 335 286 314 336 q 394 198 357 235 q 478 140 431 161 q 579 119 526 119 q 682 140 633 119 q 767 198 730 161 q 826 286 804 235 q 847 396 847 336 m 765 1218 q 754 1163 765 1190 q 724 1115 743 1136 q 680 1080 705 1093 q 625 1067 654 1067 q 584 1075 602 1067 q 554 1093 567 1083 q 529 1111 541 1103 q 504 1120 517 1120 q 485 1114 494 1120 q 468 1101 476 1108 q 450 1089 460 1095 q 428 1083 440 1083 q 408 1092 419 1083 q 396 1121 396 1100 q 409 1185 396 1157 q 443 1234 422 1214 q 490 1265 464 1254 q 542 1276 515 1276 q 583 1269 566 1276 q 615 1252 600 1261 q 641 1235 629 1243 q 665 1227 653 1227 q 684 1233 676 1227 q 699 1245 692 1239 q 714 1256 707 1251 q 733 1261 722 1261 q 765 1218 765 1261 z "},"Œ":{"ha":1615,"x_min":41,"x_max":1573,"o":"m 579 -36 q 368 6 467 -36 q 197 122 269 49 q 83 292 125 195 q 41 500 41 390 q 88 720 41 621 q 211 890 135 819 q 384 1001 286 961 q 582 1040 481 1040 q 820 1026 682 1040 q 1131 1011 957 1011 q 1249 1014 1202 1011 q 1329 1020 1296 1017 q 1386 1026 1362 1023 q 1434 1029 1410 1029 q 1499 1008 1474 1029 q 1524 947 1524 987 q 1519 906 1524 928 q 1514 856 1514 884 q 1519 809 1514 828 q 1525 766 1525 790 q 1495 696 1525 722 q 1428 669 1466 669 q 1355 694 1385 669 q 1325 762 1325 718 q 1329 791 1325 774 q 1333 823 1333 808 q 1327 844 1333 836 q 1304 852 1321 852 l 1104 852 q 1059 847 1075 852 q 1035 830 1043 842 q 1024 799 1026 818 q 1022 754 1022 781 q 1026 706 1022 724 q 1039 681 1031 689 q 1060 670 1047 672 q 1090 668 1072 668 q 1162 672 1126 668 q 1226 676 1198 676 q 1256 671 1240 676 q 1283 655 1271 665 q 1304 628 1296 644 q 1312 590 1312 611 q 1304 552 1312 568 q 1283 525 1296 536 q 1256 508 1271 514 q 1226 503 1240 503 q 1169 506 1202 503 q 1104 510 1136 510 q 1061 502 1078 510 q 1036 482 1044 494 q 1025 453 1028 469 q 1022 418 1022 436 q 1040 352 1022 367 q 1104 336 1057 336 l 1324 336 q 1345 345 1339 336 q 1352 366 1352 353 q 1347 396 1352 382 q 1343 431 1343 410 q 1375 514 1343 482 q 1455 546 1407 546 q 1535 514 1501 546 q 1569 418 1569 482 q 1559 344 1569 382 q 1549 258 1549 306 q 1561 142 1549 186 q 1573 75 1573 98 q 1544 3 1573 26 q 1479 -20 1515 -20 q 1428 -17 1454 -20 q 1365 -9 1401 -14 q 1278 -3 1329 -5 q 1154 0 1227 0 q 985 -5 1067 0 q 830 -18 903 -11 q 693 -31 757 -25 q 579 -36 629 -36 m 847 396 q 828 493 847 444 q 773 581 808 542 q 688 644 737 619 q 579 668 639 668 q 472 644 521 668 q 388 581 424 619 q 333 493 353 542 q 314 396 314 444 q 335 286 314 336 q 394 198 357 235 q 478 140 431 161 q 579 119 526 119 q 682 140 633 119 q 767 198 730 161 q 826 286 804 235 q 847 396 847 336 z "},"œ":{"ha":1615,"x_min":41,"x_max":1573,"o":"m 579 -36 q 368 6 467 -36 q 197 122 269 49 q 83 292 125 195 q 41 500 41 390 q 88 720 41 621 q 211 890 135 819 q 384 1001 286 961 q 582 1040 481 1040 q 820 1026 682 1040 q 1131 1011 957 1011 q 1249 1014 1202 1011 q 1329 1020 1296 1017 q 1386 1026 1362 1023 q 1434 1029 1410 1029 q 1499 1008 1474 1029 q 1524 947 1524 987 q 1519 906 1524 928 q 1514 856 1514 884 q 1519 809 1514 828 q 1525 766 1525 790 q 1495 696 1525 722 q 1428 669 1466 669 q 1355 694 1385 669 q 1325 762 1325 718 q 1329 791 1325 774 q 1333 823 1333 808 q 1327 844 1333 836 q 1304 852 1321 852 l 1104 852 q 1059 847 1075 852 q 1035 830 1043 842 q 1024 799 1026 818 q 1022 754 1022 781 q 1026 706 1022 724 q 1039 681 1031 689 q 1060 670 1047 672 q 1090 668 1072 668 q 1162 672 1126 668 q 1226 676 1198 676 q 1256 671 1240 676 q 1283 655 1271 665 q 1304 628 1296 644 q 1312 590 1312 611 q 1304 552 1312 568 q 1283 525 1296 536 q 1256 508 1271 514 q 1226 503 1240 503 q 1169 506 1202 503 q 1104 510 1136 510 q 1061 502 1078 510 q 1036 482 1044 494 q 1025 453 1028 469 q 1022 418 1022 436 q 1040 352 1022 367 q 1104 336 1057 336 l 1324 336 q 1345 345 1339 336 q 1352 366 1352 353 q 1347 396 1352 382 q 1343 431 1343 410 q 1375 514 1343 482 q 1455 546 1407 546 q 1535 514 1501 546 q 1569 418 1569 482 q 1559 344 1569 382 q 1549 258 1549 306 q 1561 142 1549 186 q 1573 75 1573 98 q 1544 3 1573 26 q 1479 -20 1515 -20 q 1428 -17 1454 -20 q 1365 -9 1401 -14 q 1278 -3 1329 -5 q 1154 0 1227 0 q 985 -5 1067 0 q 830 -18 903 -11 q 693 -31 757 -25 q 579 -36 629 -36 m 847 396 q 828 493 847 444 q 773 581 808 542 q 688 644 737 619 q 579 668 639 668 q 472 644 521 668 q 388 581 424 619 q 333 493 353 542 q 314 396 314 444 q 335 286 314 336 q 394 198 357 235 q 478 140 431 161 q 579 119 526 119 q 682 140 633 119 q 767 198 730 161 q 826 286 804 235 q 847 396 847 336 z "},"–":{"ha":699,"x_min":41,"x_max":657,"o":"m 657 589 q 631 526 657 550 q 566 503 606 503 q 473 508 529 503 q 350 514 416 514 q 226 508 282 514 q 134 503 170 503 q 67 526 93 503 q 41 589 41 550 q 67 651 41 628 q 134 675 93 675 q 226 669 170 675 q 350 664 282 664 q 473 669 416 664 q 566 675 529 675 q 631 651 606 675 q 657 589 657 628 z "},"—":{"ha":846,"x_min":41,"x_max":804,"o":"m 804 589 q 779 526 804 550 q 713 503 753 503 q 604 508 676 503 q 424 514 532 514 q 242 508 314 514 q 134 503 170 503 q 67 526 93 503 q 41 589 41 550 q 67 651 41 628 q 134 675 93 675 q 242 669 170 675 q 424 664 314 664 q 604 669 532 664 q 713 675 676 675 q 779 651 753 675 q 804 589 804 628 z "},"“":{"ha":542,"x_min":41,"x_max":500,"o":"m 500 832 q 472 762 500 789 q 403 734 444 734 q 326 767 358 734 q 294 856 294 800 q 311 929 294 897 q 351 983 328 961 q 401 1018 375 1006 q 446 1029 428 1029 q 468 1008 468 1029 q 463 986 468 996 q 458 957 458 977 q 465 926 458 940 q 479 899 471 913 q 494 869 488 885 q 500 832 500 852 m 248 832 q 220 762 248 789 q 150 734 192 734 q 74 767 106 734 q 41 856 41 800 q 58 929 41 897 q 99 983 75 961 q 149 1018 122 1006 q 193 1029 175 1029 q 215 1008 215 1029 q 210 986 215 996 q 205 957 205 977 q 212 926 205 940 q 227 899 218 913 q 241 869 235 885 q 248 832 248 852 z "},"”":{"ha":542,"x_min":41,"x_max":500,"o":"m 248 908 q 231 835 248 867 q 190 781 214 803 q 141 746 167 758 q 96 734 115 734 q 74 755 74 734 q 79 778 74 768 q 83 807 83 787 q 77 837 83 823 q 62 865 71 851 q 48 895 54 879 q 41 932 41 911 q 69 1002 41 975 q 139 1029 97 1029 q 215 997 183 1029 q 248 908 248 964 m 500 908 q 483 835 500 867 q 443 781 467 803 q 394 746 419 758 q 349 734 368 734 q 326 755 326 734 q 331 778 326 768 q 336 807 336 787 q 330 837 336 823 q 315 865 323 851 q 301 895 307 879 q 294 932 294 911 q 322 1002 294 975 q 392 1029 350 1029 q 468 997 436 1029 q 500 908 500 964 z "},"‘":{"ha":289,"x_min":41,"x_max":248,"o":"m 248 832 q 220 762 248 789 q 150 734 192 734 q 74 767 106 734 q 41 856 41 800 q 58 929 41 897 q 99 983 75 961 q 149 1018 122 1006 q 193 1029 175 1029 q 215 1008 215 1029 q 210 986 215 996 q 205 957 205 977 q 212 926 205 940 q 227 899 218 913 q 241 869 235 885 q 248 832 248 852 z "},"’":{"ha":289,"x_min":41,"x_max":248,"o":"m 248 908 q 231 835 248 867 q 190 781 214 803 q 141 746 167 758 q 96 734 115 734 q 74 755 74 734 q 79 778 74 768 q 83 807 83 787 q 77 837 83 823 q 62 865 71 851 q 48 895 54 879 q 41 932 41 911 q 69 1002 41 975 q 139 1029 97 1029 q 215 997 183 1029 q 248 908 248 964 z "},"÷":{"ha":699,"x_min":41,"x_max":657,"o":"m 453 354 q 424 282 453 311 q 350 253 395 253 q 278 282 307 253 q 249 354 249 311 q 278 427 249 397 q 350 456 307 456 q 424 427 395 456 q 453 354 453 397 m 453 825 q 424 753 453 782 q 350 724 395 724 q 278 753 307 724 q 249 825 249 782 q 278 897 249 868 q 350 926 307 926 q 424 897 395 926 q 453 825 453 868 m 657 589 q 631 526 657 550 q 566 503 606 503 q 473 508 529 503 q 350 514 416 514 q 226 508 282 514 q 134 503 170 503 q 67 526 93 503 q 41 589 41 550 q 67 651 41 628 q 134 675 93 675 q 226 669 170 675 q 350 664 282 664 q 473 669 416 664 q 566 675 529 675 q 631 651 606 675 q 657 589 657 628 z "},"ÿ":{"ha":1078,"x_min":28,"x_max":1050,"o":"m 632 200 q 637 166 632 180 q 663 151 643 151 q 685 153 672 151 q 713 154 697 154 q 772 131 746 154 q 798 68 798 109 q 772 5 798 31 q 707 -20 747 -20 q 679 -17 697 -20 q 638 -11 661 -14 q 590 -5 615 -8 q 542 -3 566 -3 q 439 -11 479 -3 q 371 -20 399 -20 q 306 5 330 -20 q 281 68 281 31 q 306 131 281 109 q 366 154 332 154 q 391 153 379 154 q 415 151 403 151 q 437 161 429 151 q 446 199 446 171 l 446 237 q 444 260 446 249 q 437 279 443 271 q 418 293 431 288 q 382 298 406 298 q 283 318 334 298 q 193 376 233 338 q 128 473 153 415 q 103 610 103 532 q 113 686 103 650 q 135 750 122 722 q 162 798 149 778 q 183 827 175 818 q 190 850 196 842 q 172 859 184 859 q 160 858 168 859 q 142 857 151 857 q 124 857 132 857 q 113 856 117 856 q 54 879 79 856 q 28 942 28 901 q 53 1004 28 979 q 118 1029 78 1029 q 178 1021 142 1029 q 268 1013 215 1013 q 352 1021 313 1013 q 410 1029 392 1029 q 475 1004 450 1029 q 500 942 500 979 q 474 879 500 901 q 415 856 449 856 q 388 857 400 856 q 368 859 375 859 q 340 843 349 859 q 332 803 332 827 q 342 739 332 771 q 377 681 353 707 q 441 640 401 656 q 539 624 481 624 q 637 640 597 624 q 701 681 676 656 q 735 739 725 707 q 746 803 746 771 q 738 843 746 827 q 710 859 729 859 q 690 857 703 859 q 663 856 677 856 q 604 879 629 856 q 578 942 578 901 q 603 1004 578 979 q 668 1029 628 1029 q 726 1021 686 1029 q 810 1013 765 1013 q 899 1021 863 1013 q 960 1029 936 1029 q 1025 1004 1000 1029 q 1050 942 1050 979 q 1024 879 1050 901 q 965 856 999 856 q 954 857 961 856 q 936 857 946 857 q 918 858 926 857 q 905 859 909 859 q 887 850 893 859 q 895 827 882 842 q 916 798 903 818 q 942 750 929 778 q 965 686 956 722 q 975 610 975 650 q 950 473 975 532 q 885 376 925 415 q 794 318 844 338 q 696 298 745 298 q 660 293 672 298 q 641 279 647 288 q 633 260 635 271 q 632 237 632 249 l 632 200 m 501 1173 q 472 1100 501 1129 q 399 1071 443 1071 q 326 1100 355 1071 q 297 1173 297 1129 q 326 1244 297 1215 q 399 1274 355 1274 q 472 1244 443 1274 q 501 1173 501 1215 m 781 1173 q 751 1100 781 1129 q 677 1071 722 1071 q 606 1100 635 1071 q 576 1173 576 1129 q 606 1244 576 1215 q 677 1274 635 1274 q 751 1244 722 1274 q 781 1173 781 1215 z "},"Ÿ":{"ha":1078,"x_min":28,"x_max":1050,"o":"m 632 200 q 637 166 632 180 q 663 151 643 151 q 685 153 672 151 q 713 154 697 154 q 772 131 746 154 q 798 68 798 109 q 772 5 798 31 q 707 -20 747 -20 q 679 -17 697 -20 q 638 -11 661 -14 q 590 -5 615 -8 q 542 -3 566 -3 q 439 -11 479 -3 q 371 -20 399 -20 q 306 5 330 -20 q 281 68 281 31 q 306 131 281 109 q 366 154 332 154 q 391 153 379 154 q 415 151 403 151 q 437 161 429 151 q 446 199 446 171 l 446 237 q 444 260 446 249 q 437 279 443 271 q 418 293 431 288 q 382 298 406 298 q 283 318 334 298 q 193 376 233 338 q 128 473 153 415 q 103 610 103 532 q 113 686 103 650 q 135 750 122 722 q 162 798 149 778 q 183 827 175 818 q 190 850 196 842 q 172 859 184 859 q 160 858 168 859 q 142 857 151 857 q 124 857 132 857 q 113 856 117 856 q 54 879 79 856 q 28 942 28 901 q 53 1004 28 979 q 118 1029 78 1029 q 178 1021 142 1029 q 268 1013 215 1013 q 352 1021 313 1013 q 410 1029 392 1029 q 475 1004 450 1029 q 500 942 500 979 q 474 879 500 901 q 415 856 449 856 q 388 857 400 856 q 368 859 375 859 q 340 843 349 859 q 332 803 332 827 q 342 739 332 771 q 377 681 353 707 q 441 640 401 656 q 539 624 481 624 q 637 640 597 624 q 701 681 676 656 q 735 739 725 707 q 746 803 746 771 q 738 843 746 827 q 710 859 729 859 q 690 857 703 859 q 663 856 677 856 q 604 879 629 856 q 578 942 578 901 q 603 1004 578 979 q 668 1029 628 1029 q 726 1021 686 1029 q 810 1013 765 1013 q 899 1021 863 1013 q 960 1029 936 1029 q 1025 1004 1000 1029 q 1050 942 1050 979 q 1024 879 1050 901 q 965 856 999 856 q 954 857 961 856 q 936 857 946 857 q 918 858 926 857 q 905 859 909 859 q 887 850 893 859 q 895 827 882 842 q 916 798 903 818 q 942 750 929 778 q 965 686 956 722 q 975 610 975 650 q 950 473 975 532 q 885 376 925 415 q 794 318 844 338 q 696 298 745 298 q 660 293 672 298 q 641 279 647 288 q 633 260 635 271 q 632 237 632 249 l 632 200 m 501 1173 q 472 1100 501 1129 q 399 1071 443 1071 q 326 1100 355 1071 q 297 1173 297 1129 q 326 1244 297 1215 q 399 1274 355 1274 q 472 1244 443 1274 q 501 1173 501 1215 m 781 1173 q 751 1100 781 1129 q 677 1071 722 1071 q 606 1100 635 1071 q 576 1173 576 1129 q 606 1244 576 1215 q 677 1274 635 1274 q 751 1244 722 1274 q 781 1173 781 1215 z "},"⁄":{"ha":751,"x_min":39,"x_max":713,"o":"m 685 766 q 665 747 675 755 q 643 728 656 739 q 615 702 631 717 q 576 660 599 686 q 546 623 570 650 q 492 558 522 596 q 426 480 461 521 q 359 401 390 439 q 306 337 329 364 q 275 300 283 310 q 242 257 254 275 q 221 225 229 239 q 206 200 212 211 q 191 176 200 189 q 163 154 179 163 q 131 145 147 146 q 99 149 114 144 q 71 164 83 154 q 42 221 45 186 q 62 283 39 256 q 83 304 74 296 q 105 324 93 313 q 133 351 117 335 q 171 393 149 367 q 209 439 183 408 q 266 507 235 469 q 331 584 297 545 q 394 659 366 624 q 443 718 422 693 q 469 749 464 742 q 504 793 492 775 q 525 825 517 811 q 540 850 533 839 q 557 873 547 861 q 586 899 570 890 q 620 907 603 907 q 652 903 636 908 q 681 889 668 899 q 708 834 704 869 q 685 766 713 799 z "},"€":{"ha":1260,"x_min":41,"x_max":1249,"o":"m 1231 123 q 1168 67 1206 96 q 1079 16 1131 39 q 965 -21 1028 -7 q 823 -36 901 -36 q 632 -6 724 -36 q 468 79 541 24 q 343 215 395 135 q 272 393 292 294 q 264 414 269 408 q 244 419 258 419 q 222 418 237 419 q 188 417 207 418 q 149 416 170 416 q 110 415 127 415 q 62 433 83 415 q 41 479 41 450 q 62 526 41 510 q 107 542 83 542 q 134 541 117 542 q 172 540 151 541 q 212 538 192 539 q 244 538 232 538 q 265 553 264 538 q 268 579 267 566 q 272 608 269 593 q 270 622 275 619 q 256 625 265 625 q 214 625 244 625 q 161 624 183 624 q 115 641 135 624 q 94 688 94 659 q 115 733 94 717 q 160 750 135 750 q 222 748 183 750 q 301 746 261 746 q 319 749 314 746 q 335 770 325 753 q 422 882 371 832 q 535 967 473 932 q 664 1022 596 1003 q 799 1040 732 1040 q 923 1025 860 1040 q 1039 979 986 1010 q 1125 902 1092 949 q 1158 793 1158 856 q 1119 685 1158 724 q 1025 647 1080 647 q 939 677 977 647 q 901 761 901 708 q 912 807 901 793 q 922 838 922 821 q 912 857 922 848 q 886 870 903 865 q 848 878 869 875 q 804 880 827 880 q 665 846 729 880 q 562 762 600 811 q 568 745 549 745 q 677 747 616 745 q 786 750 737 750 q 836 733 814 750 q 857 688 857 717 q 836 640 857 656 q 786 624 814 624 q 734 625 766 624 q 665 627 701 625 q 592 629 628 628 q 530 629 555 629 q 507 620 517 629 q 497 582 497 610 q 503 547 497 557 q 522 536 509 536 q 568 537 538 536 q 629 539 597 538 q 691 541 661 541 q 734 542 721 542 q 784 527 761 542 q 807 479 807 511 q 783 430 807 446 q 734 415 758 415 q 701 416 724 415 q 653 417 677 416 q 606 418 628 418 q 578 419 585 419 q 568 412 570 419 q 576 393 566 404 q 622 358 597 372 q 671 333 646 343 q 722 317 697 322 q 768 313 747 313 q 881 338 832 313 q 970 406 929 363 q 1019 428 990 428 q 1051 417 1036 428 q 1072 387 1065 407 q 1136 286 1096 328 q 1218 215 1177 244 q 1245 172 1242 200 q 1231 123 1249 143 z "},"‹":{"ha":351,"x_min":41,"x_max":310,"o":"m 310 416 q 286 361 310 386 q 225 336 262 336 q 172 349 201 336 q 123 403 143 361 q 110 445 114 424 q 101 486 106 467 q 88 522 96 505 q 65 547 81 538 q 42 586 41 562 q 65 624 43 610 q 88 649 81 633 q 101 685 96 665 q 110 726 106 704 q 123 768 114 747 q 172 822 143 810 q 225 835 201 835 q 286 810 262 835 q 310 754 310 785 q 290 694 310 717 q 248 653 271 671 q 205 620 225 635 q 186 585 186 606 q 205 550 186 566 q 248 517 225 534 q 290 477 271 500 q 310 416 310 454 z "},"›":{"ha":351,"x_min":41,"x_max":310,"o":"m 41 416 q 61 477 41 454 q 103 517 81 500 q 146 550 126 534 q 165 585 165 566 q 146 620 165 606 q 103 653 126 635 q 61 694 81 671 q 41 754 41 717 q 65 810 41 785 q 126 835 89 835 q 179 822 150 835 q 228 768 208 810 q 241 726 237 747 q 251 685 245 704 q 263 649 256 665 q 286 624 271 633 q 309 586 309 610 q 286 547 310 562 q 263 522 271 538 q 251 486 256 505 q 241 445 245 467 q 228 403 237 424 q 179 349 208 361 q 126 336 150 336 q 65 361 89 336 q 41 416 41 386 z "},"·":{"ha":288,"x_min":41,"x_max":245,"o":"m 245 444 q 216 372 245 401 q 143 343 187 343 q 71 372 100 343 q 41 444 41 401 q 71 517 41 488 q 143 546 100 546 q 216 517 187 546 q 245 444 245 488 z "},"‚":{"ha":289,"x_min":41,"x_max":248,"o":"m 248 82 q 231 8 248 40 q 190 -46 214 -24 q 141 -80 167 -68 q 96 -92 115 -92 q 74 -71 74 -92 q 79 -48 74 -58 q 83 -20 83 -39 q 77 11 83 -3 q 62 39 71 25 q 48 69 54 53 q 41 106 41 85 q 69 176 41 149 q 139 203 97 203 q 215 170 183 203 q 248 82 248 138 z "},"„":{"ha":542,"x_min":41,"x_max":500,"o":"m 248 82 q 231 8 248 40 q 190 -46 214 -24 q 141 -80 167 -68 q 96 -92 115 -92 q 74 -71 74 -92 q 79 -48 74 -58 q 83 -20 83 -39 q 77 11 83 -3 q 62 39 71 25 q 48 69 54 53 q 41 106 41 85 q 69 176 41 149 q 139 203 97 203 q 215 170 183 203 q 248 82 248 138 m 500 82 q 483 8 500 40 q 443 -46 467 -24 q 394 -80 419 -68 q 349 -92 368 -92 q 326 -71 326 -92 q 331 -48 326 -58 q 336 -20 336 -39 q 330 11 336 -3 q 315 39 323 25 q 301 69 307 53 q 294 106 294 85 q 322 176 294 149 q 392 203 350 203 q 468 170 436 203 q 500 82 500 138 z "}}}
